<svg width="500" height="500" viewBox="0 0 500 500" fill="none" xmlns="http://www.w3.org/2000/svg">
<path opacity="0.18" d="M10.14 230.74C1.70998 280.26 17.96 334.98 57.06 366.58C93.36 395.87 142.61 401.96 189.08 405.82C259.73 411.73 334.13 414.49 397.94 383.59C411.88 376.86 425.3 368.51 440.3 364.59C448.88 362.33 458.17 361.38 465.06 355.86C471.95 350.34 474.87 341.62 477.1 333.2C484.56 304.49 484.96 271.23 466.33 248.15C444.44 221.02 404.04 216.74 378.2 193.37C365.09 181.5 356.55 165.45 344.65 152.39C307.52 111.59 246.11 106.87 191.01 104.93C146.41 103.38 100.38 89.44 67.8 123.77C39.5 153.58 16.82 189.55 10.14 230.75V230.74Z" fill="#41BBB1"/>
<path d="M195.44 77.91H179.4V84.84H195.44V77.91Z" fill="#41BBB1"/>
<path d="M189.05 66.5599H186.23V80.3899H189.05V66.5599Z" fill="#41BBB1"/>
<path d="M181.499 49.6231L175.802 63.4451L206.469 76.0852L212.166 62.2632L181.499 49.6231Z" fill="#41BBB1"/>
<path d="M205.48 74.12L192.43 68.9L197.06 57.45L210.11 62.6699L205.48 74.12Z" fill="url(#paint0_linear_47_145)"/>
<path d="M202.85 69.21C204.424 69.21 205.7 67.934 205.7 66.36C205.7 64.786 204.424 63.51 202.85 63.51C201.276 63.51 200 64.786 200 66.36C200 67.934 201.276 69.21 202.85 69.21Z" fill="#41BBB1"/>
<path d="M76.52 310.44C75.89 307.01 76.52 302.31 79.92 301.72C82.14 301.34 84.13 303.07 85.68 304.7C92.98 312.31 99.58 320.56 105.39 329.36C101.47 318.53 98.7 307.32 97.1 295.92C96.57 292.12 96.23 288.01 98.07 284.63C99.91 281.25 104.81 279.33 107.75 281.82C109.37 283.19 109.91 285.43 110.37 287.5L114.87 307.85C115.05 299.62 112.42 291.53 112.59 283.32C112.76 275.12 116.74 265.84 124.74 263.89C126.54 284.59 125.94 305.42 122.96 325.98C126.03 322.46 127.2 317.73 129.41 313.61C131.62 309.49 135.75 305.64 140.36 306.42C141.35 315.81 135.91 324.53 130.68 332.41C133.13 330.1 135.87 327.7 139.26 327.1C142.65 326.5 146.62 328.56 146.86 332.01C147.11 335.46 143.76 337.69 140.86 339.37L117.44 352.79C116.49 353.42 115.42 353.84 114.3 354.02C112.95 354.02 111.64 353.65 110.5 352.93C94.7 344.55 79.74 328.23 76.51 310.46L76.52 310.44Z" fill="#41BBB1"/>
<path d="M76.52 310.44C75.89 307.01 76.52 302.31 79.92 301.72C82.14 301.34 84.13 303.07 85.68 304.7C92.98 312.31 99.58 320.56 105.39 329.36C101.47 318.53 98.7 307.32 97.1 295.92C96.57 292.12 96.23 288.01 98.07 284.63C99.91 281.25 104.81 279.33 107.75 281.82C109.37 283.19 109.91 285.43 110.37 287.5L114.87 307.85C115.05 299.62 112.42 291.53 112.59 283.32C112.76 275.12 116.74 265.84 124.74 263.89C126.54 284.59 125.94 305.42 122.96 325.98C126.03 322.46 127.2 317.73 129.41 313.61C131.62 309.49 135.75 305.64 140.36 306.42C141.35 315.81 135.91 324.53 130.68 332.41C133.13 330.1 135.87 327.7 139.26 327.1C142.65 326.5 146.62 328.56 146.86 332.01C147.11 335.46 143.76 337.69 140.86 339.37L117.44 352.79C116.49 353.42 115.42 353.84 114.3 354.02C112.95 354.02 111.64 353.65 110.5 352.93C94.7 344.55 79.74 328.23 76.51 310.46L76.52 310.44Z" fill="url(#paint1_linear_47_145)"/>
<path d="M130.04 351.47H98.19V382.42H130.04V351.47Z" fill="#41BBB1"/>
<path d="M300.57 84.03H79.81V234.54H300.57V84.03Z" fill="#41BBB1"/>
<path d="M146.57 157.24C145.45 156.01 149.7 156.8 149.02 155.33C145.5 148.24 144.47 140.09 140.74 133.11C140.15 132.02 139.51 130.96 138.97 129.86C140.18 129.12 141.29 128.21 142.26 127.17C144.01 125.35 145.59 123.38 146.98 121.27C147.19 121.48 147.53 121.63 147.73 121.93C159.52 140.03 146.63 154.45 146.56 157.24H146.57Z" fill="#231F20"/>
<path d="M126.21 184.78C133.76 184.66 141.87 185.26 147.84 189.89C152.12 193.23 154.74 198.23 156.92 203.21C160.8 212.11 163.64 221.43 165.38 230.99C165.55 231.92 168.56 233.75 167.71 234.18C167.42 234.33 163.04 234.72 162.71 234.73C137.41 235.51 113.18 235.29 87.9 236.07C87.35 236.15 86.8 236.05 86.32 235.78C85.89 235.38 85.62 234.84 85.56 234.26C83.22 224.8 80.96 215.08 82.7 205.54C82.96 203.76 83.55 202.04 84.42 200.46C86.46 197.05 89.83 196.06 93.08 194.24C96.06 192.56 98.64 190.46 101.81 189.09C109.46 185.79 117.96 184.92 126.21 184.79V184.78Z" fill="white"/>
<path d="M116.08 165.53C114.94 168.52 115.17 171.83 115.43 175.02L116.89 193.42C116.77 195.12 117.83 196.69 119.47 197.2C122.95 199.09 126.72 200.88 130.68 200.65C134.64 200.42 138.72 197.69 139.09 193.76C139.32 191.16 137.96 188.7 136.38 186.62C134.8 184.55 132.92 182.63 131.87 180.26C130.14 176.32 130.9 171.81 130.57 167.53C130.52 165.47 129.88 163.46 128.71 161.77C125.14 157.23 117.78 161.13 116.09 165.55L116.08 165.53Z" fill="#FFB4A3"/>
<path d="M122.57 180.89C125.05 183.35 128.05 185.22 131.34 186.38C132.08 186.78 132.97 186.74 133.67 186.27C134.42 185.53 133.88 184.28 133.35 183.36C131.99 180.96 131.01 178.37 130.44 175.67C130.3 174.35 129.82 173.08 129.07 171.99C128.62 171.52 128.1 171.13 127.52 170.82C125.07 169.4 118.46 165.91 116.62 169.91C115.1 173.14 120.47 178.8 122.57 180.87V180.89Z" fill="url(#paint2_linear_47_145)"/>
<path d="M148.51 151.45C149.1 155.02 149.22 158.65 148.85 162.25C148.06 167.57 145.23 172.37 140.96 175.64C137.21 178.66 132.29 179.8 127.59 178.74C121.58 177.08 117.78 171.38 114.88 165.78C111.69 159.65 108.97 153.1 108.26 146.16C107.55 139.22 109.03 131.92 113.48 126.61C120.77 117.91 133.72 116.77 142.42 124.06C143.18 124.7 143.9 125.39 144.56 126.13C148.84 131 147.71 145 148.5 151.44L148.51 151.45Z" fill="#FFB4A3"/>
<path d="M146.99 121.27C145.58 123.38 143.99 125.35 142.22 127.17C141.25 128.21 140.14 129.11 138.93 129.86C134.72 132.51 129.5 133.61 125.08 135.78C123.71 136.36 122.51 137.28 121.58 138.45C119.63 141.26 120.67 145.55 118.29 148C117.81 148.4 117.4 148.87 117.06 149.4C116.84 150.01 116.8 150.67 116.93 151.31C117.73 158.16 117.76 165.09 117.03 171.95C114.18 168.96 109.97 167.71 106.78 165.07C100.35 159.78 99.53 150.35 99.42 142.05C99.19 137.92 99.63 133.78 100.72 129.79C101.95 125.85 104.74 122.19 108.64 120.79C109.24 120.62 109.81 120.37 110.34 120.04C110.98 119.42 111.46 118.66 111.74 117.82C115.9 108.73 126.89 106.17 135.8 109.14C139.48 110.37 143.4 112.67 145.02 116.39C145.33 117.12 145.57 117.87 145.73 118.65C146.65 118.38 147.39 118.36 147.63 118.8C147.88 119.24 147.61 120.21 146.97 121.28L146.99 121.27Z" fill="#231F20"/>
<path d="M271.1 138.46H176.19V208.46H271.1V138.46Z" fill="white"/>
<path d="M224.55 207.22C224.49 207.73 224.2 208.18 223.77 208.45C220.45 211.14 216.63 213.16 212.54 214.39C210.63 214.97 208.96 215.27 207.99 217.06C207.23 218.82 206.62 220.63 206.16 222.49C204.93 226.22 203.36 229.83 201.46 233.27C201.23 233.7 200.98 234.13 200.71 234.5H180.83C181.15 233.9 181.56 233.37 182.06 232.91C185.06 229.74 187.68 226.23 189.87 222.46C190.14 222.01 190.4 221.55 190.65 221.09C191.5 219.61 192.28 218.09 193.03 216.54C193.78 214.99 194.59 211.41 195.91 210.25C197.53 208.8 200.24 209.32 202.19 209.37C205.27 209.47 208.35 209.15 211.34 208.43C215.24 207.45 219.08 205.45 223.06 206.06C223.7 206.21 224.51 206.55 224.54 207.24L224.55 207.22Z" fill="#FFB4A3"/>
<path d="M194.7 153.29H186.83V197.12H194.7V153.29Z" fill="#41BBB1"/>
<path d="M207.83 167.54H199.96V197.12H207.83V167.54Z" fill="#41BBB1"/>
<path d="M221.55 162.46H213.68V197.12H221.55V162.46Z" fill="#41BBB1"/>
<path d="M235.71 167.54H227.84V197.12H235.71V167.54Z" fill="#41BBB1"/>
<path d="M113 151.89C112.47 151.85 111.95 151.92 111.45 152.11C110.35 152.68 109.6 153.75 109.44 154.98C108.95 158.18 110.16 161.4 112.64 163.48C113.45 164.28 114.47 164.85 115.58 165.11C116.72 165.36 117.9 164.98 118.67 164.1C119.32 163.02 119.54 161.73 119.3 160.49C118.93 156.48 117.78 152.13 113 151.88V151.89Z" fill="#FFB4A3"/>
<path d="M115.48 158.38C115.21 157.7 114.9 157.03 114.56 156.38C114.37 156.11 114.15 155.87 113.9 155.66C113.51 155.23 112.92 155.01 112.34 155.08C111.96 155.2 111.65 155.5 111.52 155.88C111.38 156.27 111.33 156.69 111.39 157.11C111.5 158.67 112.21 160.12 113.38 161.16C113.64 161.4 113.94 161.6 114.26 161.75C114.76 161.91 115.29 161.98 115.82 161.95C116 161.97 116.19 161.97 116.37 161.95C117.08 161.57 117.4 160.73 117.13 159.98C116.81 159.23 115.88 159.13 115.49 158.4L115.48 158.38Z" fill="url(#paint3_linear_47_145)"/>
<path d="M422.8 283.62H161.79V289.13H422.8V283.62Z" fill="#41BBB1"/>
<path d="M227.43 290.56H156.45V379.75H227.43V290.56Z" fill="#41BBB1"/>
<path d="M368.54 326.58C369.18 327.16 390.11 375.44 390.36 378.19C390.58 380.64 388.64 382.57 387.13 384.48C389.08 384.12 395.38 381.44 396.81 380.05C397.28 379.66 397.62 379.13 397.79 378.54C397.87 377.97 397.81 377.39 397.62 376.85C396.39 372.39 389.61 342.61 388.64 336.87C388.34 334.5 387.76 332.17 386.92 329.93C386.08 327.67 384.49 325.76 382.42 324.52C380.3 323.3 377.66 323.37 375.61 324.72C374.29 324.65 369.78 326.12 368.53 326.58H368.54Z" fill="#FFB4A3"/>
<path d="M400.45 335.72C405.72 347.66 407.31 360.92 411.7 373.22C412.03 373.97 412.2 374.77 412.22 375.59C412.13 376.33 411.87 377.04 411.45 377.66C410.17 379.74 408.25 381.35 405.97 382.23C406.35 374.87 402.77 368.04 399.3 361.59L394.69 353.01C393.04 350.09 391.57 347.07 390.28 343.97C389.64 342.39 389.11 340.76 388.64 339.13C387.62 335.72 384.32 327.71 390.07 326.79C395.31 325.99 398.7 331.72 400.47 335.72H400.45Z" fill="#FFB4A3"/>
<path d="M388.16 278.29C384.91 278.52 381.65 277.86 378.35 278.12C375.05 278.38 371.62 279.92 370.49 283.03C372.34 284.73 375.17 284.65 377.68 284.42C383.81 283.84 397.57 284.24 403.72 283.25C406.17 282.87 401.02 281.29 403.24 280.28C404.24 279.95 405.04 279.19 405.44 278.21C400.91 273.95 393.4 277.94 388.17 278.3L388.16 278.29Z" fill="#FFB4A3"/>
<path d="M445.46 283.82L446.47 308.52C446.58 311.06 446.64 313.74 445.35 315.88C443.07 319.76 437.77 320.28 433.28 320.37L402.94 320.95C400.74 320.84 398.54 321.18 396.48 321.94C394.48 322.84 397 326.97 397.12 329.16C397.12 329.98 393.22 328.79 392.61 329.36C392.14 329.68 391.56 329.8 391 329.7L376 328.9C374.68 328.9 373.37 328.68 372.12 328.23C369.12 326.93 367.9 323.4 366.99 320.26C365.74 316.55 365.03 312.69 364.88 308.78C364.88 304.88 366.23 300.81 369.22 298.31C372.81 295.29 377.91 295.11 382.6 295.08L412.61 294.87C413.53 294.99 414.45 294.72 415.16 294.13C415.77 293.43 415.71 292.35 416.25 291.6C416.87 290.91 417.71 290.48 418.63 290.37L435.49 286.63C437.24 286.11 439.08 285.98 440.89 286.26C442.72 286.59 444.12 288.09 444.32 289.94" fill="#231F20"/>
<path d="M412.41 212.95C412.14 213.47 411.91 214 411.71 214.54C411.51 215.22 411.27 215.88 410.99 216.53C410.44 217.26 410.18 218.16 410.25 219.07C410.48 220.3 411.56 221.02 412.42 221.85C413.31 222.69 414.04 223.69 414.58 224.79C415.24 226.19 415.67 227.84 416.96 228.7C418.68 229.85 421.12 229.07 422.93 230.06C425.58 231.51 424.32 237.04 427.26 237.1C429.77 237.13 432.26 236.71 434.62 235.87C435.76 235.58 436.77 234.89 437.44 233.92C438.42 232.15 437.23 230.02 436.46 228.14C433.28 220.46 437.22 210.91 433.01 203.75C431.58 201.35 429.38 199.51 426.77 198.54C423.4 197.23 419.6 197.77 416.73 199.95C413.69 202.4 415.01 206.6 413.79 209.92C413.39 210.95 412.93 211.96 412.42 212.94L412.41 212.95Z" fill="#FFB4A3"/>
<path d="M415.56 192.91C412.61 197.14 413.65 202.97 417.88 205.92C418.13 206.09 418.38 206.25 418.65 206.4C420.92 207.63 423.9 208.18 425.11 210.46C425.61 211.87 425.92 213.34 426.01 214.83C426.17 215.61 426.66 216.53 427.47 216.47C428.79 216.36 428.7 213.89 429.98 213.62C431.34 214.88 431.42 217.01 430.16 218.37C429.95 218.59 429.72 218.78 429.46 218.94C429.06 219.16 428.53 219.41 428.55 219.86C428.57 220.31 429.13 220.49 429.53 220.69C431.36 221.67 430.76 224.66 432.31 226.1C433.14 226.76 434.2 227.04 435.25 226.9C438.18 226.59 440.81 224.99 442.45 222.55C444.06 220.11 444.91 217.25 444.9 214.33C444.82 213.27 444.97 212.2 445.34 211.2C445.74 210.16 446.88 209.62 447.94 209.97C447.23 213.65 446.52 217.41 447.49 221.01C448.67 225.19 451.96 228.45 456.15 229.59C455.1 227.81 454.51 225.8 454.43 223.74C454.43 221.77 454.67 219.81 455.14 217.89L456.77 209.78C457.35 207.46 457.63 205.07 457.6 202.68C457.57 200.26 456.63 197.94 454.96 196.18C453.23 194.43 450.6 193.95 448.36 194.95C446.71 195.94 445.6 197.62 445.32 199.52C445.06 201.4 445.08 203.3 445.38 205.17C442.75 202.43 440.32 199.5 438.11 196.41C436.93 194.39 435.3 192.67 433.35 191.38C431.02 190.15 428.22 190.3 425.59 190.5C421.91 190.77 418.31 190.12 415.53 192.88L415.56 192.91Z" fill="#231F20"/>
<path d="M438.45 234.13C436.56 234.23 434.66 234.42 432.8 234.71C431.28 234.89 429.79 235.3 428.4 235.94C426.85 236.76 425.5 237.93 424.48 239.35C420.31 244.84 419.82 252.17 418.02 258.82C417.56 260.78 416.77 262.65 415.68 264.34C413.15 267.95 408.7 269.63 404.45 270.73C402.56 271.21 400.48 271.76 399.46 273.4C398.93 274.4 398.67 275.53 398.7 276.66C398.59 279.11 398.98 282.03 401.15 283.15C401.9 283.48 402.7 283.67 403.52 283.71C408.24 284.16 413 283.77 417.59 282.56C418.49 283.79 417.59 285.59 418.19 286.97C418.79 288.36 420.74 288.66 422.32 288.7C428.88 288.8 435.44 288.39 441.94 287.47C442.66 287.41 443.36 287.21 444 286.88C444.97 286.11 445.63 285.01 445.86 283.79C448.44 274.5 449.47 264.85 448.93 255.23C448.86 250.75 448.26 246.3 447.13 241.96C446.43 239.51 445.34 236.97 443.19 235.6C440.81 234.09 437.76 234.37 434.95 234.67" fill="#41BBB1"/>
<path d="M398.83 387.26C398.83 387.86 398.65 388.65 398.05 388.68C397.45 388.71 397.17 387.99 397.13 387.45C397.09 386.91 397.13 386.16 396.6 385.87C396.07 385.58 395.37 386.1 394.78 386.51C391.17 389.12 381.22 390.35 376.72 390.24C375.33 386.5 384.29 385.33 386.35 384.27C388.01 383.45 389.78 382.86 391.38 381.92C392.97 380.98 394.09 379.2 395.71 378.78C399.36 377.84 398.87 385.17 398.84 387.27L398.83 387.26Z" fill="#231F20"/>
<path d="M415.31 384.61C415.44 385.16 415.42 385.74 415.25 386.28C415.04 386.82 414.43 387.09 413.89 386.88C413.89 386.88 413.89 386.88 413.88 386.88C413.82 386.06 413.6 385.26 413.23 384.53C413.14 384.32 412.98 384.13 412.79 384C412.24 383.71 411.64 384.31 411.28 384.83C410.67 385.93 409.74 386.82 408.61 387.38C407.91 387.6 407.18 387.71 406.44 387.7L402.65 387.82C402.53 387.82 393.75 388.94 393.64 388.87C393.53 388.8 392.87 387.97 395.46 386.12C397.35 384.77 406.17 378.85 406.17 378.85C404.81 382.53 410.22 377.32 411.23 376.89C415.25 375.23 414.93 382.08 415.33 384.6L415.31 384.61Z" fill="#231F20"/>
<path d="M395.03 338.99C396.7 339.9 398.61 340.29 400.5 340.11H434.03C436.18 340.26 438.34 339.95 440.36 339.2C442.03 338.31 443.54 337.13 444.81 335.73C450.74 329.96 457.24 324.8 464.21 320.33C464.67 320.1 465.04 319.73 465.26 319.28C465.35 319.02 465.38 318.75 465.36 318.48C465.15 314.8 461.19 312.26 457.5 312.14C453.81 312.02 450.29 313.57 446.79 314.78C430.57 320.4 411.53 319.04 397.74 329.35C395.25 331.2 390.9 336.13 395.03 339V338.99Z" fill="#231F20"/>
<path d="M437.49 335.71C433.38 314.81 436.23 293.14 445.58 274.01C448.72 267.65 453.13 261.16 459.94 259.16C463.09 258.23 466.45 258.38 469.69 257.82C475.99 256.75 481.79 253.09 488.18 252.91C488.8 252.83 489.43 253 489.92 253.39C490.24 253.77 490.43 254.24 490.46 254.74C490.92 257.52 490.89 260.36 490.36 263.13C489.4 268.21 486.86 272.82 484.77 277.54C479.49 289.44 476.87 302.35 477.09 315.36C477.24 316.95 477.09 318.55 476.62 320.08C475.99 321.49 475.05 322.75 473.87 323.76C465.29 332.05 453.98 336.78 442.94 341.33C442.13 341.75 441.22 341.95 440.3 341.91C439.1 341.62 438.07 340.85 437.45 339.79C434.99 336.31 433.99 332.01 434.65 327.81" fill="#231F20"/>
<path d="M437.49 335.71C433.38 314.81 436.23 293.14 445.58 274.01C448.72 267.65 453.13 261.16 459.94 259.16C463.09 258.23 466.45 258.38 469.69 257.82C475.99 256.75 481.79 253.09 488.18 252.91C488.8 252.83 489.43 253 489.92 253.39C490.24 253.77 490.43 254.24 490.46 254.74C490.92 257.52 490.89 260.36 490.36 263.13C489.4 268.21 486.86 272.82 484.77 277.54C479.49 289.44 476.87 302.35 477.09 315.36C477.24 316.95 477.09 318.55 476.62 320.08C475.99 321.49 475.05 322.75 473.87 323.76C465.29 332.05 453.98 336.78 442.94 341.33C442.13 341.75 441.22 341.95 440.3 341.91C439.1 341.62 438.07 340.85 437.45 339.79C434.99 336.31 433.99 332.01 434.65 327.81" fill="url(#paint4_linear_47_145)"/>
<path d="M395.03 338.99L378.31 388.75H383.38L400.5 340.11L395.03 338.99Z" fill="#41BBB1"/>
<path d="M431 339.78L445.53 388.42H452.62L437.47 339.88L431 339.78Z" fill="#41BBB1"/>
<path d="M465.79 330.65L482.68 385.37H476.59L459.71 333.7L465.79 330.65Z" fill="#41BBB1"/>
<path d="M309.72 376.77C309.77 377.33 309.69 377.89 309.47 378.41C308.77 379.43 307.65 380.09 306.42 380.2L305.5 378.91C303.11 381.14 299.48 381.2 296.22 381.08C293.36 380.98 290.52 380.83 287.64 380.69C287.16 380.74 286.68 380.56 286.34 380.21C286.18 379.89 286.14 379.52 286.24 379.18C286.81 376.42 289.07 374.33 291.86 373.97C294.04 373.74 296.29 374.63 298.43 374.15C301.23 373.52 303.27 370.35 306.19 370.29C309.11 370.23 309.65 374.52 309.72 376.77Z" fill="#231F20"/>
<path d="M309.72 376.77C309.77 377.33 309.69 377.89 309.47 378.41C308.77 379.43 307.65 380.09 306.42 380.2L305.5 378.91C303.11 381.14 299.48 381.2 296.22 381.08C293.36 380.98 290.52 380.83 287.64 380.69C287.16 380.74 286.68 380.56 286.34 380.21C286.18 379.89 286.14 379.52 286.24 379.18C286.81 376.42 289.07 374.33 291.86 373.97C294.04 373.74 296.29 374.63 298.43 374.15C301.23 373.52 303.27 370.35 306.19 370.29C309.11 370.23 309.65 374.52 309.72 376.77Z" fill="url(#paint5_linear_47_145)"/>
<path d="M269.92 307.94C265.94 309 262.12 310.63 258.6 312.77C257.59 313.42 256.7 314.25 256 315.22C255.08 316.71 254.59 318.43 254.61 320.19C254.33 329.68 261.45 337.58 268.1 344.35L290 366.61C292.53 369.19 295.16 371.82 298.51 373.15C301.86 374.47 306.14 374.17 308.49 371.43C300.8 361.68 293.32 351.77 286.07 341.68C285.46 341.06 285.19 340.18 285.35 339.33C285.75 338.21 287.29 338.1 288.48 338.26C300.39 339.1 311.97 334.07 319.47 324.77C321.84 321.78 323.79 318.03 323.06 314.27C322.42 310.95 319.8 308.36 317 306.45C301.74 295.99 285.56 302.94 269.91 307.95L269.92 307.94Z" fill="#231F20"/>
<path d="M270.05 307.95C266.07 309.02 262.26 310.64 258.73 312.78C257.72 313.43 256.83 314.26 256.13 315.23C255.22 316.7 254.74 318.4 254.76 320.14C254.47 329.63 261.6 337.53 268.25 344.3L290.15 366.56C292.69 369.12 295.31 371.76 298.66 373.1C302.01 374.44 306.3 374.12 308.64 371.38C300.96 361.62 293.49 351.7 286.23 341.63C285.62 341.01 285.35 340.13 285.49 339.28C285.89 338.16 287.44 338.11 288.62 338.21C300.54 339.06 312.11 334.02 319.61 324.72C321.98 321.72 323.94 317.96 323.22 314.22C322.57 310.88 319.95 308.3 317.09 306.4C301.88 295.99 285.74 302.95 270.05 307.96V307.95Z" fill="url(#paint6_linear_47_145)"/>
<path d="M279.05 338.99C280.72 339.9 282.63 340.29 284.52 340.11H318.05C320.2 340.26 322.36 339.95 324.38 339.2C326.05 338.31 327.55 337.13 328.82 335.73C334.76 329.96 341.26 324.8 348.23 320.33C348.71 320.09 349.1 319.7 349.33 319.23C349.42 318.97 349.45 318.7 349.43 318.43C349.22 314.75 345.26 312.21 341.57 312.09C337.88 311.97 334.36 313.52 330.86 314.73C314.64 320.35 295.6 318.99 281.87 329.3C279.27 331.2 274.92 336.13 279.05 339V338.99Z" fill="#231F20"/>
<path d="M279.05 338.99C280.72 339.9 282.63 340.29 284.52 340.11H318.05C320.2 340.26 322.36 339.95 324.38 339.2C326.05 338.31 327.55 337.13 328.82 335.73C334.76 329.96 341.26 324.8 348.23 320.33C348.71 320.09 349.1 319.7 349.33 319.23C349.42 318.97 349.45 318.7 349.43 318.43C349.22 314.75 345.26 312.21 341.57 312.09C337.88 311.97 334.36 313.52 330.86 314.73C314.64 320.35 295.6 318.99 281.87 329.3C279.27 331.2 274.92 336.13 279.05 339V338.99Z" fill="url(#paint7_linear_47_145)"/>
<path d="M273.88 310.57L250.79 322.11C247.18 323.76 243.76 325.79 240.59 328.17C238.92 329.06 238.26 331.11 239.11 332.81C242.62 343.57 252.6 350.68 261.96 357.02L273.28 364.68L292.1 377.42C293.47 378.35 295.02 379.32 296.65 379.04C299.02 378.65 300.21 375.72 299.62 373.39C299.03 371.06 297.24 369.28 295.52 367.61L278.07 350.6C273.91 346.55 269.68 342.41 267.03 337.26C279.58 332.35 293.27 331.47 306.43 328.57C309.62 328.07 312.67 326.87 315.33 325.04C317.87 323.07 319.57 319.69 318.69 316.59C317.81 314.29 316.17 312.37 314.03 311.16C310.79 308.83 306.97 307.42 302.99 307.09C300.32 306.94 297.66 307.48 294.99 307.34C292.62 307.21 290.98 305.89 288.86 305.57C284.04 304.85 278.02 308.51 273.87 310.59L273.88 310.57Z" fill="#231F20"/>
<path d="M270.93 216.21C270.17 217.17 268.97 218.18 269.43 219.3C269.69 219.9 270.36 220.2 270.89 220.59C272.21 221.77 273.02 223.41 273.13 225.18C273.25 226.93 273.67 228.64 274.36 230.26C275.17 231.81 277.03 232.98 278.66 232.36C279.63 231.98 280.52 231.01 281.52 231.33C282.28 231.58 282.6 232.46 283.04 233.12C284.28 234.68 286.31 235.38 288.25 234.94C290.15 234.47 291.93 233.64 293.51 232.49C294.21 232.13 294.78 231.58 295.17 230.9C295.4 230.25 295.4 229.55 295.17 228.9C294.62 226.9 293.07 225.36 291.79 223.71C289.4 220.65 287.8 217.06 287.12 213.24C286.65 210.58 286.53 207.6 284.67 205.69C282.11 203.09 276.56 203.65 273.91 206.01C270.94 208.51 273.3 213.2 270.93 216.24V216.21Z" fill="#FFB4A3"/>
<path d="M271.28 204.94C271.54 205.89 272.38 206.58 273.36 206.63C274.32 206.75 275.29 206.56 276.24 206.63C278.5 206.78 280.45 208.3 281.15 210.46C281.9 212.91 280.82 215.78 281.84 218.17C282.18 218.64 282.96 218.26 283.23 217.74C283.5 217.22 283.61 216.59 284.08 216.24C284.85 215.68 285.96 216.4 286.4 217.26C287.39 219.37 286.56 221.88 284.51 222.99C284.71 223.76 285.74 223.98 286.51 223.8C287.25 223.5 288.04 223.32 288.84 223.26C290.67 223.42 291.6 225.97 293.43 226.06C294.66 226.06 295.63 224.96 296.35 223.93L298.45 220.9C298.7 220.6 298.86 220.23 298.9 219.85C298.88 219.5 298.76 219.15 298.57 218.86C297.51 216.79 297.16 214.42 297.56 212.13C298.08 209.33 299.71 206.73 299.57 203.89C299.3 201.49 298.17 199.27 296.38 197.64C292.2 193.41 285.59 191.91 279.78 192.6C277.85 192.76 276.1 193.77 275 195.36C273.43 197.43 270.93 202.37 271.3 204.96L271.28 204.94Z" fill="#231F20"/>
<path d="M290.37 229.33C288.46 230.39 286.62 231.57 284.86 232.86C284.31 233.24 283.86 233.73 283.52 234.31C283.16 234.95 283.16 235.73 283.52 236.37C284.13 237.24 285.29 236.79 286.17 236.37C290.23 234.25 294.75 233.65 299.1 233.23C299.72 233.26 300.31 232.94 300.62 232.4C300.77 231.78 300.64 231.12 300.26 230.6C297.54 226.15 293.9 227.25 290.36 229.34L290.37 229.33Z" fill="#41BBB1"/>
<path d="M282.58 286.7C279.5 280.44 277.24 273.81 275.85 266.97C273.76 268.8 271.96 270.93 270.5 273.3C268.35 276.81 267.32 282.01 270.59 284.51C264.76 286.29 258.59 286.71 252.57 285.74C250.85 285.62 249.23 284.91 247.97 283.73C247.19 282.72 246.76 281.48 246.74 280.2C246.46 275.85 248.94 271.85 251.33 268.19L267.85 242.88C268.41 241.92 269.1 241.06 269.92 240.32C271.07 239.49 272.38 238.89 273.77 238.58C284.21 235.48 294.83 233 305.57 231.15C307.18 230.79 308.83 230.68 310.48 230.84C315.07 231.51 318.08 235.84 320.39 239.85C332.48 260.82 341.05 284.62 339.71 308.8C339.69 310.11 339.49 311.4 339.1 312.65C338.31 314.53 337.01 316.15 335.36 317.35C329.96 321.61 322.86 323.19 316 323.25C305.75 323.35 292.22 320.26 284.57 312.89C280.24 308.73 284.57 306.22 286.64 302.1C289.25 296.91 284.91 291.43 282.59 286.72L282.58 286.7Z" fill="#41BBB1"/>
<path d="M318.68 327.9C314.56 307.2 320.25 292.96 329.58 274.01C332.72 267.65 337.13 261.16 343.94 259.16C347.09 258.23 350.45 258.38 353.69 257.82C359.99 256.75 365.79 253.09 372.18 252.91C372.8 252.83 373.43 253 373.92 253.39C374.24 253.77 374.43 254.24 374.46 254.74C374.92 257.52 374.89 260.36 374.36 263.13C373.4 268.21 370.86 272.82 368.77 277.54C363.48 289.44 360.86 302.34 361.09 315.36C361.24 316.95 361.09 318.55 360.62 320.08C359.99 321.49 359.05 322.75 357.87 323.76C349.29 332.05 337.98 336.78 326.94 341.33C326.13 341.75 325.22 341.95 324.3 341.91C323.1 341.62 322.07 340.85 321.45 339.79C318.99 336.31 317.99 332.01 318.65 327.81" fill="#231F20"/>
<path d="M318.68 327.9C314.56 307.2 320.25 292.96 329.58 274.01C332.72 267.65 337.13 261.16 343.94 259.16C347.09 258.23 350.45 258.38 353.69 257.82C359.99 256.75 365.79 253.09 372.18 252.91C372.8 252.83 373.43 253 373.92 253.39C374.24 253.77 374.43 254.24 374.46 254.74C374.92 257.52 374.89 260.36 374.36 263.13C373.4 268.21 370.86 272.82 368.77 277.54C363.48 289.44 360.86 302.34 361.09 315.36C361.24 316.95 361.09 318.55 360.62 320.08C359.99 321.49 359.05 322.75 357.87 323.76C349.29 332.05 337.98 336.78 326.94 341.33C326.13 341.75 325.22 341.95 324.3 341.91C323.1 341.62 322.07 340.85 321.45 339.79C318.99 336.31 317.99 332.01 318.65 327.81" fill="url(#paint8_linear_47_145)"/>
<path d="M349.81 330.65L366.7 385.37H360.62L343.73 333.7L349.81 330.65Z" fill="#41BBB1"/>
<path d="M279.05 338.99L262.34 388.75H267.4L284.51 340.11L279.05 338.99Z" fill="#41BBB1"/>
<path d="M315.02 339.78L329.55 388.42H336.64L321.5 339.88L315.02 339.78Z" fill="#41BBB1"/>
<path d="M301.4 380.09C301.45 380.65 301.37 381.22 301.17 381.75C300.46 382.77 299.34 383.42 298.1 383.53L297.18 382.24C294.8 384.47 291.16 384.53 287.9 384.42C285.04 384.31 282.18 384.17 279.32 384.03C278.83 384.08 278.35 383.9 278.02 383.54C277.85 383.22 277.81 382.85 277.91 382.51C278.48 379.76 280.74 377.67 283.53 377.31C285.71 377.06 287.96 377.96 290.1 377.48C292.9 376.85 295.01 373.68 297.86 373.62C300.71 373.56 301.33 377.86 301.4 380.1V380.09Z" fill="#231F20"/>
<defs>
<linearGradient id="paint0_linear_47_145" x1="206.74" y1="53.29" x2="193.71" y2="83.06" gradientUnits="userSpaceOnUse">
<stop stop-color="#231F20" stop-opacity="0"/>
<stop offset="1" stop-color="#231F20"/>
</linearGradient>
<linearGradient id="paint1_linear_47_145" x1="113.32" y1="292.54" x2="106.42" y2="402.57" gradientUnits="userSpaceOnUse">
<stop stop-color="#231F20" stop-opacity="0"/>
<stop offset="1" stop-color="#231F20"/>
</linearGradient>
<linearGradient id="paint2_linear_47_145" x1="122.27" y1="193.07" x2="130.05" y2="153.49" gradientUnits="userSpaceOnUse">
<stop stop-color="#231F20" stop-opacity="0"/>
<stop offset="1" stop-color="#231F20"/>
</linearGradient>
<linearGradient id="paint3_linear_47_145" x1="108.64" y1="159.2" x2="123.08" y2="157.44" gradientUnits="userSpaceOnUse">
<stop stop-color="#231F20" stop-opacity="0"/>
<stop offset="1" stop-color="#231F20"/>
</linearGradient>
<linearGradient id="paint4_linear_47_145" x1="434.48" y1="297.41" x2="490.79" y2="297.41" gradientUnits="userSpaceOnUse">
<stop stop-color="#231F20" stop-opacity="0"/>
<stop offset="1" stop-color="#231F20"/>
</linearGradient>
<linearGradient id="paint5_linear_47_145" x1="286.21" y1="375.7" x2="309.72" y2="375.7" gradientUnits="userSpaceOnUse">
<stop stop-color="#231F20" stop-opacity="0"/>
<stop offset="1" stop-color="#231F20"/>
</linearGradient>
<linearGradient id="paint6_linear_47_145" x1="254.75" y1="337.43" x2="323.38" y2="337.43" gradientUnits="userSpaceOnUse">
<stop stop-color="#231F20" stop-opacity="0"/>
<stop offset="1" stop-color="#231F20"/>
</linearGradient>
<linearGradient id="paint7_linear_47_145" x1="277.35" y1="326.12" x2="349.44" y2="326.12" gradientUnits="userSpaceOnUse">
<stop stop-color="#231F20" stop-opacity="0"/>
<stop offset="1" stop-color="#231F20"/>
</linearGradient>
<linearGradient id="paint8_linear_47_145" x1="317.31" y1="297.41" x2="374.79" y2="297.41" gradientUnits="userSpaceOnUse">
<stop stop-color="#231F20" stop-opacity="0"/>
<stop offset="1" stop-color="#231F20"/>
</linearGradient>
</defs>
</svg>
