<svg width="500" height="500" viewBox="0 0 500 500" fill="none" xmlns="http://www.w3.org/2000/svg">
<path d="M74.99 380.58L402.7 380.58L402.7 80.09L74.99 80.09L74.99 380.58Z" fill="#E6E6E6"/>
<path opacity="0.05" d="M394.06 206.34C394.06 206.34 387.32 204.42 384.91 214.71C382.5 225 383.64 227.24 388.67 229.82C393.69 232.4 391.11 249.11 381.98 248.76C372.86 248.42 365.45 241.02 360.97 248.76C356.5 256.5 351.99 313.24 333.32 300.97C314.65 288.7 310.46 241.68 310.46 241.68L277.11 241.2V278.03L303.05 277.51C303.05 277.51 306.39 322.75 342.89 332.87C350.54 334.99 354.98 342.93 352.52 350.47L342.71 380.57H399.13L399.19 340.88C399.19 340.88 401.82 217.64 394.05 206.33L394.06 206.34Z" fill="#000001"/>
<path d="M308.6 250.77C310.362 250.77 311.79 249.342 311.79 247.58C311.79 245.818 310.362 244.39 308.6 244.39C306.838 244.39 305.41 245.818 305.41 247.58C305.41 249.342 306.838 250.77 308.6 250.77Z" fill="white"/>
<path opacity="0.05" d="M118.12 257.53L96.82 258.1L89.8 380.57H106.41H120.3C122.01 374.74 126.42 344.44 143.02 326.89C159.62 309.34 238.7 266.31 214.25 236.09C202.34 221.36 169.78 276.11 169.78 276.11L138.33 279.84L140.49 278.71L118.12 257.53Z" fill="#000001"/>
<path opacity="0.55" d="M207.21 264.83L200.24 273.57C192.83 282.86 189.34 294.67 190.5 306.5L191.83 320.08L212.23 301.56L207.21 264.84V264.83Z" fill="#A5A5A5"/>
<path opacity="0.55" d="M256.12 264.83L263.09 273.57C270.5 282.86 273.99 294.67 272.83 306.5L271.5 320.08L251.1 301.56L256.12 264.84V264.83Z" fill="#A5A5A5"/>
<path opacity="0.55" d="M222.36 304.46C222.36 304.46 228.71 341.91 218.26 344.98C207.82 348.05 202.9 331.26 189.18 341.29C175.46 351.32 193.07 362.38 168.7 359.31C144.33 356.24 134.91 368.25 140.65 380.57H320.44C320.44 380.57 329.45 369.14 319.42 361.36C314.24 357.34 308.4 357.2 303.96 358C300.8 358.57 297.92 356.12 298.01 352.92C298.12 349.24 297.48 345.06 294.64 342.51C291.18 339.41 284.02 342.64 278.66 345.88C272.51 349.59 265.35 351.32 258.22 350.46C251.98 349.71 245.6 347.65 243.86 342.51C240.17 331.66 242.43 303.76 242.43 303.76L222.36 304.45V304.46Z" fill="white"/>
<path d="M231.69 187.3C231.69 187.3 180.21 215.55 212.23 301.55H251.15C283.17 215.55 231.69 187.3 231.69 187.3Z" fill="#A5A5A5"/>
<path d="M251.15 301.56L249.43 308.15H214.11L212.23 300.77L251.15 301.56Z" fill="white"/>
<path d="M232.06 250.98C239.361 250.98 245.28 245.061 245.28 237.76C245.28 230.459 239.361 224.54 232.06 224.54C224.759 224.54 218.84 230.459 218.84 237.76C218.84 245.061 224.759 250.98 232.06 250.98Z" fill="#E6E6E6"/>
<path d="M98.42 118.96C102.987 118.96 106.69 115.257 106.69 110.69C106.69 106.123 102.987 102.42 98.42 102.42C93.8526 102.42 90.15 106.123 90.15 110.69C90.15 115.257 93.8526 118.96 98.42 118.96Z" fill="#FFD200"/>
<path d="M121.71 118.96C126.277 118.96 129.98 115.257 129.98 110.69C129.98 106.123 126.277 102.42 121.71 102.42C117.143 102.42 113.44 106.123 113.44 110.69C113.44 115.257 117.143 118.96 121.71 118.96Z" fill="#225B73"/>
<path d="M143.99 118.96C148.557 118.96 152.26 115.257 152.26 110.69C152.26 106.123 148.557 102.42 143.99 102.42C139.423 102.42 135.72 106.123 135.72 110.69C135.72 115.257 139.423 118.96 143.99 118.96Z" fill="#24285B"/>
<path opacity="0.05" d="M294.06 139.62H178.22V161.3H294.06V139.62Z" fill="#000001"/>
<g opacity="0.03">
<path d="M406.79 440.54C449.007 440.54 483.23 433.538 483.23 424.9C483.23 416.262 449.007 409.26 406.79 409.26C364.573 409.26 330.35 416.262 330.35 424.9C330.35 433.538 364.573 440.54 406.79 440.54Z" fill="#000001"/>
</g>
<path d="M399.7 227.48C399.7 227.48 376.97 224.45 372.41 243.44C367.85 262.43 367.19 288.74 348.94 294.01C330.68 299.27 320.58 262.76 320.58 262.76C320.58 262.76 316.34 252.51 311.78 251.12C307.22 249.73 303.96 259.83 311.78 266.02C311.78 266.02 318.37 312.64 353.38 311.01C388.39 309.38 399.71 261.31 399.71 227.49L399.7 227.48Z" fill="#F4A28C"/>
<path opacity="0.08" d="M399.7 227.48C399.7 227.48 376.97 224.45 372.41 243.44C367.85 262.43 367.19 288.74 348.94 294.01C330.68 299.27 320.58 262.76 320.58 262.76C320.58 262.76 316.34 252.51 311.78 251.12C307.22 249.73 303.96 259.83 311.78 266.02C311.78 266.02 318.37 312.64 353.38 311.01C388.39 309.38 399.71 261.31 399.71 227.49L399.7 227.48Z" fill="#000001"/>
<path d="M399.7 227.48C399.7 227.48 375.3 222.66 371.88 242.39C368.46 262.11 362.43 275.32 362.43 275.32L381.07 281.35L399.71 227.48H399.7Z" fill="#225B73"/>
<path opacity="0.46" d="M399.7 227.48C399.7 227.48 375.3 222.66 371.88 242.39C368.46 262.11 362.43 275.32 362.43 275.32L381.07 281.35L399.71 227.48H399.7Z" fill="white"/>
<path d="M400.86 195.43C400.86 195.43 397.73 202.06 397.2 207.04C396.98 209.06 398.47 210.9 400.5 211.09C403.01 211.32 406.48 210.91 408.59 207.56L412.87 202.31C412.87 202.31 415.43 198.93 412.59 194.71C409.74 190.49 402.58 191.29 400.87 195.43H400.86Z" fill="#F4A28C"/>
<path d="M411.25 203.51L412.97 227.48H399.7L403.67 210.48L411.25 203.51Z" fill="#F4A28C"/>
<path d="M399.11 199.71L396.21 201.65C395.49 202.13 395.52 203.19 396.26 203.63L398.71 205.1L399.11 199.71Z" fill="#F4A28C"/>
<path opacity="0.31" d="M403.56 210.96C403.56 210.96 406.37 210.48 407.88 208.89C407.88 208.89 408.74 214.08 402.42 215.83L403.56 210.96Z" fill="#CE8172"/>
<path d="M406.92 203.22C406.92 203.22 407.95 200.59 409.86 201.53C411.77 202.47 410.31 206.28 407.47 205.63L406.91 203.22H406.92Z" fill="#F4A28C"/>
<path d="M375.72 363.95L364.49 414.97H371.02L392.87 363.95H375.72Z" fill="#F4A28C"/>
<path d="M412.25 357.75L424.22 414.97H430.79L429.8 357.35L412.25 357.75Z" fill="#F4A28C"/>
<path d="M364.49 414.97C364.49 414.97 360.86 419.57 356.23 419.34C351.59 419.11 350.91 425.67 358.37 424.99C361.22 424.73 363.5 424.28 365.24 423.81C367.31 423.26 369.46 423.48 371.53 424.03C372.18 424.2 372.91 424.05 373.66 423.18C375.78 420.69 370.58 414.97 370.58 414.97H364.49Z" fill="#225B73"/>
<path d="M430.31 414.97C430.31 414.97 433.94 419.57 438.57 419.34C443.21 419.11 443.89 425.67 436.43 424.99C433.58 424.73 431.3 424.28 429.56 423.81C427.49 423.26 425.34 423.48 423.27 424.03C422.62 424.2 421.89 424.05 421.14 423.18C419.02 420.69 424.22 414.97 424.22 414.97H430.31Z" fill="#225B73"/>
<path d="M399.7 227.48H412.97C412.97 227.48 413.88 227.42 415.44 227.48C444.39 228.41 461.21 260.57 445.84 285.12C437.29 298.78 427.08 317.18 426.4 328.18L374.79 325.57C374.79 325.57 378.7 292.1 369.14 272.97C369.14 272.97 351.56 242.85 399.69 227.48H399.7Z" fill="#225B73"/>
<path opacity="0.08" d="M422.75 245.01C422.75 245.01 416.33 258.28 414.81 282.14C413.29 306 377.07 277.82 377.07 277.82L375.41 317.23L428.1 320.01L432.48 304.04C432.48 304.04 446.3 279.32 422.75 245.02V245.01Z" fill="#000001"/>
<path d="M374.465 312.877L408.86 308.849L402.635 255.702L368.24 259.731L374.465 312.877Z" fill="#FFD200"/>
<path d="M378.045 263.065L394.056 261.19L393.144 253.403L377.133 255.279L378.045 263.065Z" fill="#24285B"/>
<path d="M375.41 317.23L428.11 320.01L442.18 373.38L366.02 370.67L375.41 317.23Z" fill="#24285B"/>
<path opacity="0.08" d="M370.34 277.88L406.91 292.47L408.84 308.88L374.44 312.91L370.34 277.88Z" fill="#000001"/>
<path d="M423.19 247.56C422.71 236.8 436.24 231.68 443.09 239.98C448.99 247.14 454.41 257.66 454.21 272.04C453.78 303.27 449.57 337.08 382.19 300.13L385.82 290.23C385.82 290.23 415.72 304.61 428.21 299.94C437.39 296.51 424.13 269 423.18 247.55L423.19 247.56Z" fill="#F4A28C"/>
<path d="M385.82 290.24C385.82 290.24 374.58 284.9 369.8 290.24C365.02 295.58 372.63 300.36 382.19 300.14L385.82 290.24Z" fill="#F4A28C"/>
<path d="M399.7 191.91L397.4 197.67L406.92 201.32C406.92 201.32 407.46 207.73 404.09 208.89C404.09 208.89 406.17 208.99 408.18 206.91C409.04 206.01 410.43 205.89 411.37 206.71L411.49 206.82C411.49 206.82 415.95 202.67 417.03 197.02C418.12 191.37 411.81 190.5 411.81 190.5C411.81 190.5 403.44 184.63 399.69 191.91H399.7Z" fill="#24285B"/>
<path d="M411.82 190.5C411.82 190.5 412.25 185.07 422.04 185.94C431.82 186.81 422.04 200.02 430.08 212.32C430.08 212.32 415.3 209.19 414.87 195.94L411.83 190.51L411.82 190.5Z" fill="#24285B"/>
<path d="M411.2 190.11C411.2 190.11 413.16 188.76 415.93 190.51C418.7 192.26 419.92 198.66 415.56 200.86C415.56 200.86 419.18 192.19 411.2 190.11Z" fill="#FFD200"/>
<path d="M427.46 281.35H456.15C456.15 281.35 459.3 239.47 435.55 234.11C411.81 228.75 427.46 281.35 427.46 281.35Z" fill="#225B73"/>
<path opacity="0.46" d="M427.46 281.35H456.15C456.15 281.35 459.3 239.47 435.55 234.11C411.81 228.75 427.46 281.35 427.46 281.35Z" fill="white"/>
<path d="M290.38 259.72H333.43V223.8H290.38V259.72Z" fill="#24285B"/>
<path opacity="0.62" d="M328.93 254.16L318.68 235.86L311.5 249.41L302.78 237.91L294.06 254.16H328.93Z" fill="white"/>
<g opacity="0.03">
<path d="M78.37 440.53C109.027 440.53 133.88 433.64 133.88 425.14C133.88 416.64 109.027 409.75 78.37 409.75C47.7127 409.75 22.86 416.64 22.86 425.14C22.86 433.64 47.7127 440.53 78.37 440.53Z" fill="#000001"/>
</g>
<path d="M81.23 215.27L84.95 226.42L76.13 232.03L72.95 212.7L81.23 215.27Z" fill="#F4A28C"/>
<path d="M69.92 201.92C71.82 197.29 77.98 196.34 81.41 199.99C85.17 204 89.69 210.38 84.57 213.85C76.73 219.16 69.53 209.24 69.53 209.24C69.53 209.24 68.48 205.44 69.92 201.92Z" fill="#F4A28C"/>
<path d="M75.65 208.76C75.65 208.76 73.64 207.08 72.73 209.47C71.82 211.86 75.37 213.01 76.43 211.8C77.49 210.6 75.65 208.76 75.65 208.76Z" fill="#F4A28C"/>
<path d="M57.92 237.66C57.92 237.66 21.62 259.64 16.85 311.23C16.03 320.1 21.75 328.26 30.41 330.35L72.96 340.61L57.93 237.66H57.92Z" fill="#225B73"/>
<path opacity="0.2" d="M57.92 237.66C57.92 237.66 21.62 259.64 16.85 311.23C16.03 320.1 21.75 328.26 30.41 330.35L72.96 340.61L57.93 237.66H57.92Z" fill="white"/>
<path d="M73.1581 300.266L17.3849 325.895L34.1454 362.368L89.9186 336.739L73.1581 300.266Z" fill="#FFD200"/>
<path d="M76.76 205.87C76.76 205.87 80.93 217.8 73.66 217.05C66.39 216.3 70.37 211.18 66.77 205.87C63.17 200.56 65.06 196.98 70.56 192.32C73.08 190.18 74.78 189.19 75.79 188.06C77.71 185.92 81.24 186.32 82.33 188.99C84.21 193.57 84.22 199.7 76.75 205.88L76.76 205.87Z" fill="#24285B"/>
<path d="M49.53 248.45C52.98 240.7 59.72 234.9 67.84 232.46C83.36 227.8 112.83 218.01 121.54 232.53C133.47 252.41 115.11 330.43 115.11 330.43L62.95 334.48C62.95 334.48 34.26 282.73 49.52 248.45H49.53Z" fill="#225B73"/>
<path d="M115.11 330.43L108.25 420.1H97.41L87.72 350.44L63.75 334.48L115.11 330.43Z" fill="#24285B"/>
<path d="M63.75 334.48L48.78 420.1H60.41L85.52 348.97L63.75 334.48Z" fill="#24285B"/>
<path opacity="0.08" d="M72.35 231.1C72.35 231.1 47.95 309.68 118.4 314.89L115.11 330.43L62.95 334.48C62.95 334.48 44.57 305.62 45.35 265.09C45.35 265.09 45.79 245.05 59.9 236.19C59.9 236.19 65.29 232.22 72.34 231.1H72.35Z" fill="#000001"/>
<path d="M50.89 420.1L43.68 425.42C42.45 426.33 43.09 428.28 44.62 428.28H56.71C57.59 428.28 58.3 427.57 58.3 426.69V420.1H50.9H50.89Z" fill="#225B73"/>
<path d="M107.95 420.1L114.74 425.41C115.94 426.35 115.28 428.28 113.75 428.28H105.14C102.6 428.28 100.54 426.22 100.54 423.68V420.1H107.94H107.95Z" fill="#225B73"/>
<path d="M214.63 224.46L206.81 222.17L172.51 251.98C167.37 256.45 160.23 257.83 153.8 255.58C146.65 253.08 137.7 247.99 131.32 237.65C118.98 217.65 98.04 224.89 98.04 224.89C98.04 224.89 82.26 240.44 113.53 267.12C132.2 283.05 151.31 284.05 163.69 282.26C165.2 282.04 166.72 282.01 168.25 281.96C169.61 281.92 171.03 281.62 172.49 281C174.09 280.33 175.71 279.52 177.35 278.59C190.03 271.35 203.71 255.83 214.64 224.45L214.63 224.46Z" fill="#225B73"/>
<path opacity="0.2" d="M214.63 224.46L206.81 222.17L172.51 251.98C167.37 256.45 160.23 257.83 153.8 255.58C146.65 253.08 137.7 247.99 131.32 237.65C118.98 217.65 98.04 224.89 98.04 224.89C98.04 224.89 82.26 240.44 113.53 267.12C132.2 283.05 151.31 284.05 163.69 282.26C165.2 282.04 166.72 282.01 168.25 281.96C169.61 281.92 171.03 281.62 172.49 281C174.09 280.33 175.71 279.52 177.35 278.59C190.03 271.35 203.71 255.83 214.64 224.45L214.63 224.46Z" fill="white"/>
<path d="M206.8 222.17C206.8 222.17 211.15 209.73 214.62 208.76C218.09 207.79 214.62 215.47 214.62 215.47C214.62 215.47 224.11 220.13 214.62 224.47L206.8 222.18V222.17Z" fill="#F4A28C"/>
<path d="M429.88 59.46H318.45V136.73H429.88V59.46Z" fill="#24285B"/>
<path d="M357.34 104.04H344.8V120.08H357.34V104.04Z" fill="white"/>
<path d="M380.77 91.7H368.23V120.07H380.77V91.7Z" fill="white"/>
<path d="M403.77 79.12H391.23V120.08H403.77V79.12Z" fill="white"/>
<path opacity="0.58" d="M468.28 411.38C468.28 411.38 478.26 408.7 480.47 399.43C480.47 399.43 465.03 396.24 464.53 412.19L468.28 411.39V411.38Z" fill="#225B73"/>
<path opacity="0.73" d="M467.07 410.39C467.07 410.39 474.08 399.41 467.99 389.08C467.99 389.08 456.21 396.49 461.37 410.39H467.06H467.07Z" fill="#225B73"/>
<path d="M465.27 410.39C465.27 410.39 461.64 398.74 450.52 396.49C450.52 396.49 448.4 404.03 457.67 410.39H465.27Z" fill="#225B73"/>
<path d="M472.5 410.15L470.42 423.97H457.69L455.88 410.15H472.5Z" fill="#24285B"/>
</svg>
