<svg width="500" height="500" viewBox="0 0 500 500" fill="none" xmlns="http://www.w3.org/2000/svg">
<g opacity="0.3">
<path d="M378.08 76.96C426.38 100.4 464.54 164.1 475.42 242.93C484.58 309.36 472.35 390.52 394.15 426.57C314.34 463.37 89.75 476.94 46.28 368.58C2.81 260.22 9.48 122.57 94.45 75.63C154.02 42.72 283.76 31.18 378.08 76.96Z" fill="#E6E6E6"/>
</g>
<path d="M34.24 344.75C34.24 344.75 52.6 258.36 98.8 258.36C145 258.36 169.59 394.16 57.19 408.94L34.24 344.75Z" fill="#F4A28C"/>
<path d="M471.49 116.64H74.67V371.6H471.49V116.64Z" fill="#41BBB1"/>
<g opacity="0.46">
<path d="M471.49 116.65H74.67V371.6H471.49V116.65Z" fill="white"/>
</g>
<path d="M439.24 139.39H106.93V344.75H439.24V139.39Z" fill="white"/>
<path d="M70.44 312.67C70.44 312.67 106.11 276.19 121.51 279.44C134.22 282.11 134.23 307.41 106.54 328.47C95.18 337.11 88.02 350.06 87.06 364.3C86.27 376.07 82.39 390.08 70.44 400.66C45.31 422.91 26.67 403.53 29.1 373.5C31.53 343.47 33.15 334.56 70.44 312.67Z" fill="#F4A28C"/>
<path d="M91.92 433.79L93.89 406.64L25.81 386.01L11.53 433.79H91.92Z" fill="#41BBB1"/>
<path d="M312.62 299.73H233.54C230.232 299.73 227.55 302.412 227.55 305.72V313.18C227.55 316.488 230.232 319.17 233.54 319.17H312.62C315.928 319.17 318.61 316.488 318.61 313.18V305.72C318.61 302.412 315.928 299.73 312.62 299.73Z" fill="#E6E6E6"/>
<path d="M407.91 208.75H157.4C146.492 208.75 137.65 217.592 137.65 228.5V246.89C137.65 257.798 146.492 266.64 157.4 266.64H407.91C418.818 266.64 427.66 257.798 427.66 246.89V228.5C427.66 217.592 418.818 208.75 407.91 208.75Z" fill="#E6E6E6"/>
<path d="M146.08 177.4L150.54 177.12C150.64 177.84 150.83 178.4 151.13 178.78C151.61 179.39 152.3 179.7 153.2 179.7C153.87 179.7 154.38 179.54 154.75 179.23C155.12 178.92 155.29 178.55 155.29 178.14C155.29 177.73 155.12 177.39 154.77 177.08C154.42 176.77 153.62 176.48 152.37 176.2C150.31 175.74 148.85 175.12 147.97 174.36C147.09 173.59 146.65 172.62 146.65 171.43C146.65 170.65 146.88 169.91 147.33 169.22C147.78 168.53 148.46 167.98 149.37 167.59C150.28 167.2 151.52 166.99 153.1 166.99C155.04 166.99 156.52 167.35 157.53 168.07C158.54 168.79 159.15 169.94 159.35 171.51L154.93 171.77C154.81 171.09 154.57 170.59 154.19 170.28C153.81 169.97 153.29 169.81 152.63 169.81C152.09 169.81 151.67 169.93 151.4 170.16C151.13 170.39 150.99 170.67 150.99 171C150.99 171.24 151.1 171.46 151.33 171.65C151.55 171.85 152.08 172.04 152.9 172.21C154.95 172.65 156.42 173.1 157.3 173.55C158.18 174 158.83 174.56 159.24 175.23C159.65 175.9 159.85 176.65 159.85 177.48C159.85 178.45 159.58 179.35 159.04 180.17C158.5 180.99 157.75 181.61 156.78 182.04C155.81 182.47 154.6 182.68 153.13 182.68C150.55 182.68 148.76 182.18 147.77 181.19C146.78 180.2 146.21 178.93 146.08 177.4Z" fill="#E6E6E6"/>
<path d="M162.2 167.25H174.76V170.49H166.9V172.9H174.2V175.99H166.9V178.98H174.99V182.42H162.2V167.25Z" fill="#E6E6E6"/>
<path d="M186.84 179.92H181.52L180.78 182.42H175.99L181.69 167.25H186.8L192.5 182.42H187.59L186.83 179.92H186.84ZM185.87 176.64L184.2 171.19L182.54 176.64H185.87Z" fill="#E6E6E6"/>
<path d="M194.06 182.42V167.25H201.87C203.32 167.25 204.43 167.37 205.19 167.62C205.95 167.87 206.57 168.33 207.04 169C207.51 169.67 207.74 170.49 207.74 171.46C207.74 172.3 207.56 173.03 207.2 173.64C206.84 174.25 206.35 174.75 205.72 175.12C205.32 175.36 204.77 175.56 204.07 175.72C204.63 175.91 205.03 176.09 205.29 176.28C205.46 176.4 205.71 176.67 206.04 177.08C206.37 177.49 206.59 177.8 206.7 178.02L208.97 182.42H203.67L201.16 177.78C200.84 177.18 200.56 176.79 200.31 176.61C199.97 176.38 199.59 176.26 199.16 176.26H198.75V182.42H194.04H194.06ZM198.77 173.4H200.75C200.96 173.4 201.38 173.33 201.99 173.19C202.3 173.13 202.55 172.97 202.75 172.71C202.95 172.45 203.04 172.16 203.04 171.83C203.04 171.34 202.88 170.96 202.57 170.7C202.26 170.44 201.68 170.31 200.82 170.31H198.76V173.39L198.77 173.4Z" fill="#E6E6E6"/>
<path d="M220.2 176.21L224.31 177.45C224.03 178.6 223.6 179.56 223.01 180.34C222.42 181.12 221.68 181.7 220.8 182.09C219.92 182.48 218.8 182.68 217.44 182.68C215.79 182.68 214.44 182.44 213.4 181.96C212.35 181.48 211.45 180.64 210.69 179.43C209.93 178.22 209.55 176.68 209.55 174.8C209.55 172.29 210.22 170.36 211.55 169.01C212.88 167.66 214.77 166.99 217.22 166.99C219.13 166.99 220.63 167.38 221.73 168.15C222.83 168.92 223.64 170.11 224.17 171.71L220.03 172.63C219.89 172.17 219.73 171.83 219.57 171.62C219.31 171.26 218.99 170.99 218.61 170.79C218.23 170.59 217.81 170.5 217.34 170.5C216.28 170.5 215.46 170.93 214.9 171.78C214.47 172.41 214.26 173.41 214.26 174.77C214.26 176.45 214.52 177.6 215.03 178.23C215.54 178.85 216.26 179.16 217.18 179.16C218.1 179.16 218.75 178.91 219.21 178.4C219.67 177.89 220 177.17 220.21 176.21H220.2Z" fill="#E6E6E6"/>
<path d="M226.6 167.25H231.29V172.56H236.41V167.25H241.12V182.42H236.41V176.28H231.29V182.42H226.6V167.25Z" fill="#E6E6E6"/>
<path d="M298.88 258.26C294.85 255.23 290.87 252.18 287.15 248.79L269.71 263.82L224.44 208.26L137.2 292.64L150.71 306.6L222.74 236.92L267.26 291.56L303.42 260.4C301.93 260.08 300.41 259.4 298.88 258.25V258.26Z" fill="#24285B"/>
<path d="M281.88 239.13L283.35 238.69C283.35 237.88 283.35 237.24 283.35 236.59C283.35 236.35 282.97 235.92 282.91 235.94C282.02 236.32 281.56 235.68 281.67 235.11C281.78 234.54 282.64 234.21 283.19 233.76C283.31 233.67 283.53 233.76 283.82 233.67L283.6 232.58C285.13 231.13 285.73 230.05 285.32 229.47C284.43 228.22 282.49 227.45 281.63 228C280.28 228.89 280.28 229.57 281.25 231.41L277.41 236.69C277.06 236.73 276.74 236.88 276.48 237.12C276.33 237.31 276.75 237.94 276.9 238.37L277.49 239.99L284.49 241.11L281.87 239.14L281.88 239.13Z" fill="#41BBB1"/>
<path d="M289.35 238V235.31C288.66 234.65 288 234.18 287.56 233.6C286.63 232.54 285.66 233.28 284.87 233.6C284.08 233.92 284.18 234.69 285 235.19C285.13 235.27 285.19 235.55 285.19 235.76C285.19 236.42 285.01 237.5 285.31 237.66C286.49 238.25 287.72 238.7 289 239.01C289.23 239.01 289.61 238.55 289.9 238.31L289.35 238.01V238Z" fill="#41BBB1"/>
<path d="M372.53 292.72C371.45 290.84 369.14 290.06 367.15 290.92C365.02 291.98 362.96 293.18 360.62 294.46L363.85 294.82C364.56 293.99 364.99 293.11 365.69 292.76C366.94 292.07 368.31 291.61 369.73 291.41C370.55 291.34 371.47 292.19 372.53 292.72Z" fill="#41BBB1"/>
<path d="M360.91 296.28L358.22 296.52L359.57 294.97C357.01 294.28 354.19 295.27 354.33 296.85C356.55 296.66 358.83 297.75 360.91 296.27V296.28Z" fill="#41BBB1"/>
<path d="M368.68 228.88C369.64 228.88 370.48 229.23 370.82 228.88C371.78 228.06 372.39 228.73 373.23 229C374.12 229.13 375.03 229.13 375.92 229C374.1 226.12 373.6 225.94 371.34 227.24L370.88 227.5L368.67 228.89L368.68 228.88Z" fill="#41BBB1"/>
<path d="M352.086 309.243L366.547 303.078L348.597 260.974L334.136 267.139L352.086 309.243Z" fill="#FFD200"/>
<path d="M366.081 353.382L388.333 343.896L365.27 289.797L343.017 299.284L366.081 353.382Z" fill="#24285B"/>
<path d="M372.73 202.37C372.55 201.96 372.38 201.56 372.18 201.15C369.37 195 365.49 189.65 360.86 185.26C346.4 171.48 324.59 166.82 305.05 175.16C278.84 186.32 266.66 216.63 277.83 242.84C279.28 246.23 281.04 249.39 283.09 252.29C286.92 257.75 291.73 262.32 297.15 265.82C308.58 273.26 322.76 276.05 336.55 272.92C339.57 272.25 342.55 271.3 345.5 270.04C347.48 269.19 349.39 268.24 351.2 267.18C373.42 254.31 383.04 226.6 372.71 202.38L372.73 202.37ZM339.58 256.11C329.46 260.42 318.49 259.8 309.33 255.32C303.47 252.48 298.35 248.04 294.67 242.32C293.56 240.62 292.6 238.81 291.77 236.88C283.88 218.37 292.48 196.97 310.98 189.07C324.3 183.4 339.11 186.26 349.3 195.22C353.29 198.7 356.56 203.11 358.78 208.31C359.26 209.4 359.66 210.52 360.02 211.63C365.62 229.31 356.98 248.68 339.57 256.12L339.58 256.11Z" fill="#FFD200"/>
<path d="M439.87 377.51C439.87 377.51 427.32 278.32 390.1 274.98C352.88 271.64 373.07 332.87 354.86 330.11C336.65 327.35 332.76 370.34 400.58 399.35L439.88 377.51H439.87Z" fill="#F4A28C"/>
<path d="M488.47 433.79L440.61 367.6L407.79 385.85L386.36 397.77L398.88 433.79H488.47Z" fill="#41BBB1"/>
<path d="M424.24 144.32L408.68 193.4L396.85 179.89L372.18 201.15L360.03 211.62L309.33 255.31C303.47 252.47 298.35 248.03 294.67 242.31L349.31 195.21L360.86 185.25L384.07 165.26L372.31 151.84L424.25 144.32H424.24Z" fill="#24285B"/>
</svg>
