<svg width="1440" height="1320" viewBox="0 0 1440 1320" fill="none" xmlns="http://www.w3.org/2000/svg">
<g clip-path="url(#clip0_175_2852)">
<path d="M1979 0H0.374023V1319.08H1979V0Z" fill="white"/>
<path d="M165.26 0H0.374023V164.885H165.26V0Z" fill="#4E7C8F"/>
<path d="M165.26 0H0.374023V164.885H165.26V0Z" fill="#CFDCE1"/>
<path d="M330.145 0H165.26V164.885H330.145V0Z" fill="white"/>
<path d="M247.715 0H165.26V82.4558H247.715V0Z" fill="#A0DDD8"/>
<path d="M165.26 0C187.128 0 208.101 8.68728 223.565 24.1507C239.028 39.6142 247.715 60.5871 247.715 82.4558H165.26V0Z" fill="#548093"/>
<path d="M330.171 0H247.715V82.4558H330.171V0Z" fill="#93AFBB"/>
<path d="M247.715 82.4558C247.715 60.5871 256.403 39.6142 271.866 24.1507C287.329 8.68728 308.302 0 330.171 0V82.4558H247.715Z" fill="#5EC5BD"/>
<path d="M247.715 82.4558H165.26V164.912H247.715V82.4558Z" fill="#BDE8E4"/>
<path d="M165.26 164.912C187.128 164.912 208.101 156.224 223.565 140.761C239.028 125.297 247.715 104.324 247.715 82.4558H165.26V164.912Z" fill="#73CDC5"/>
<path d="M330.171 82.4558H247.715V164.912H330.171V82.4558Z" fill="#86A5B2"/>
<path d="M247.715 82.4558C247.715 104.324 256.403 125.297 271.866 140.761C287.329 156.224 308.302 164.912 330.171 164.912V82.4558H247.715Z" fill="#598496"/>
<path d="M495.031 0H330.145V164.885H495.031V0Z" fill="#91D8D2"/>
<path d="M330.145 164.886C351.798 164.886 373.239 160.621 393.244 152.334C413.249 144.048 431.426 131.903 446.737 116.592C462.048 101.281 474.193 83.1038 482.479 63.099C490.766 43.0941 495.031 21.6531 495.031 0L330.145 0V164.886Z" fill="#ACC2CB"/>
<path d="M659.916 0H495.031V164.885H659.916V0Z" fill="white"/>
<path d="M577.486 0H495.031V82.4558H577.486V0Z" fill="#63C7BF"/>
<path d="M495.031 82.4558C495.031 60.5871 503.718 39.6142 519.181 24.1507C534.645 8.68728 555.618 0 577.486 0V20.6139C561.085 20.6139 545.355 27.1294 533.758 38.727C522.16 50.3246 515.644 66.0543 515.644 82.4558" fill="#457589"/>
<path d="M659.942 0H577.486V82.4558H659.942V0Z" fill="#CEEEEB"/>
<path d="M577.486 0C599.355 0 620.328 8.68728 635.791 24.1507C651.255 39.6142 659.942 60.5871 659.942 82.4558H639.328C639.328 66.0543 632.813 50.3246 621.215 38.727C609.618 27.1294 593.888 20.6139 577.486 20.6139" fill="#225B73"/>
<path d="M577.486 82.4558H495.031V164.912H577.486V82.4558Z" fill="#B9CBD3"/>
<path d="M495.031 82.4558C495.031 104.324 503.718 125.297 519.181 140.761C534.645 156.224 555.618 164.912 577.486 164.912V144.298C561.085 144.298 545.355 137.782 533.758 126.185C522.16 114.587 515.644 98.8573 515.644 82.4558" fill="#BCE7E3"/>
<path d="M659.942 82.4558H577.486V164.912H659.942V82.4558Z" fill="#E7EDF0"/>
<path d="M577.486 164.912C599.355 164.912 620.328 156.224 635.791 140.761C651.255 125.297 659.942 104.324 659.942 82.4558H639.328C639.328 90.577 637.729 98.6187 634.621 106.122C631.513 113.625 626.958 120.442 621.215 126.185C615.473 131.927 608.655 136.482 601.152 139.59C593.649 142.698 585.608 144.298 577.486 144.298" fill="#C5EAE7"/>
<path d="M824.802 0H659.916V164.885H824.802V0Z" fill="#A5BCC6"/>
<path d="M824.802 0H659.916V164.885H824.802V0Z" fill="#3A6C82"/>
<path d="M989.687 0H824.802V164.885H989.687V0Z" fill="white"/>
<path d="M907.257 0H824.802V82.4558H907.257V0Z" fill="#80D2CB"/>
<path d="M866.029 82.4558C888.799 82.4558 907.257 63.9974 907.257 41.2279C907.257 18.4584 888.799 0 866.029 0C843.26 0 824.802 18.4584 824.802 41.2279C824.802 63.9974 843.26 82.4558 866.029 82.4558Z" fill="#C6EAE7"/>
<path d="M989.713 0H907.257V82.4558H989.713V0Z" fill="#47BDB4"/>
<path d="M989.713 0H907.257V82.4558H989.713V0Z" fill="#59C4BB"/>
<path d="M907.257 82.4558H824.802V164.912H907.257V82.4558Z" fill="#F0FAF9"/>
<path d="M866.029 164.912C888.799 164.912 907.257 146.453 907.257 123.684C907.257 100.914 888.799 82.4558 866.029 82.4558C843.26 82.4558 824.802 100.914 824.802 123.684C824.802 146.453 843.26 164.912 866.029 164.912Z" fill="#E5F6F4"/>
<path d="M989.713 82.4558H907.257V164.912H989.713V82.4558Z" fill="#B9E6E2"/>
<path d="M989.713 82.4558H907.257V164.912H989.713V82.4558Z" fill="#8CD6D0"/>
<path d="M1154.57 0H989.687V164.885H1154.57V0Z" fill="#F3FBFA"/>
<path d="M1154.57 0H989.687V164.885H1154.57V0Z" fill="#E3F5F4"/>
<path d="M1319.46 0H1154.57V164.885H1319.46V0Z" fill="#517E91"/>
<path d="M1154.57 0H1319.46L1154.57 164.886V0Z" fill="#527F91"/>
<path d="M1484.34 0H1319.46V164.885H1484.34V0Z" fill="white"/>
<path d="M1401.91 0H1319.46V82.4558H1401.91V0Z" fill="#E6F6F5"/>
<path d="M1319.46 0C1341.33 0 1362.3 8.68728 1377.76 24.1507C1393.23 39.6142 1401.91 60.5871 1401.91 82.4558H1319.46V0Z" fill="#D1EEEC"/>
<path d="M1484.37 0H1401.91V82.4558H1484.37V0Z" fill="#95D9D3"/>
<path d="M1401.91 82.4558C1401.91 60.5871 1410.6 39.6142 1426.06 24.1507C1441.53 8.68728 1462.5 0 1484.37 0V82.4558H1401.91Z" fill="#3C6E84"/>
<path d="M1401.91 82.4558H1319.46V164.912H1401.91V82.4558Z" fill="#6D93A3"/>
<path d="M1319.46 164.912C1341.33 164.912 1362.3 156.224 1377.76 140.761C1393.23 125.297 1401.91 104.324 1401.91 82.4558H1319.46V164.912Z" fill="#B7E5E2"/>
<path d="M1484.37 82.4558H1401.91V164.912H1484.37V82.4558Z" fill="#4DBFB6"/>
<path d="M1401.91 82.4558C1401.91 104.324 1410.6 125.297 1426.06 140.761C1441.53 156.224 1462.5 164.912 1484.37 164.912V82.4558H1401.91Z" fill="#D4DFE4"/>
<path d="M165.26 164.885H0.374023V329.771H165.26V164.885Z" fill="white"/>
<path d="M82.8298 164.885H0.374023V247.341H82.8298V164.885Z" fill="#BBE7E3"/>
<path d="M0.374023 164.885C22.2427 164.885 43.2156 173.573 58.6791 189.036C74.1425 204.5 82.8298 225.473 82.8298 247.341H0.374023V164.885Z" fill="#D3EFED"/>
<path d="M165.286 164.885H82.8298V247.341H165.286V164.885Z" fill="#E2E9EC"/>
<path d="M82.8298 247.341C82.8298 225.473 91.5171 204.5 106.981 189.036C122.444 173.573 143.417 164.885 165.286 164.885V247.341H82.8298Z" fill="#74CDC6"/>
<path d="M82.8298 247.341H0.374023V329.797H82.8298V247.341Z" fill="#D3EFED"/>
<path d="M0.374023 329.797C22.2427 329.797 43.2156 321.11 58.6791 305.646C74.1425 290.183 82.8298 269.21 82.8298 247.341H0.374023V329.797Z" fill="#52C1B8"/>
<path d="M165.286 247.341H82.8298V329.797H165.286V247.341Z" fill="#5EC5BD"/>
<path d="M82.8298 247.341C82.8298 269.21 91.5171 290.183 106.981 305.646C122.444 321.11 143.417 329.797 165.286 329.797V247.341H82.8298Z" fill="#7397A7"/>
<path d="M330.145 164.885H165.26V329.771H330.145V164.885Z" fill="#49BEB4"/>
<path d="M165.26 164.885C208.99 164.885 250.929 182.257 281.851 213.179C312.773 244.101 330.145 286.041 330.145 329.771L165.26 164.885C165.26 208.616 182.631 250.555 213.553 281.477C244.475 312.399 286.415 329.771 330.145 329.771" fill="#D6E0E5"/>
<path d="M495.031 164.885H330.145V329.771H495.031V164.885Z" fill="#BEE8E4"/>
<path d="M330.145 164.885C351.798 164.885 373.239 169.15 393.244 177.437C413.249 185.723 431.426 197.868 446.737 213.179C462.048 228.49 474.193 246.667 482.479 266.672C490.766 286.677 495.031 308.118 495.031 329.771H330.145V164.885Z" fill="#688F9F"/>
<path d="M659.916 164.885H495.031V329.771H659.916V164.885Z" fill="#49BEB4"/>
<path d="M659.916 164.885V329.771H495.031L659.916 164.885Z" fill="#65C8C0"/>
<path d="M824.802 164.885H659.916V329.771H824.802V164.885Z" fill="white"/>
<path d="M742.372 164.885H659.916V247.341H742.372V164.885Z" fill="#83A3B1"/>
<path d="M659.916 164.885C681.785 164.885 702.758 173.573 718.221 189.036C733.685 204.5 742.372 225.473 742.372 247.341H659.916V164.885Z" fill="#FCFEFE"/>
<path d="M824.828 164.885H742.372V247.341H824.828V164.885Z" fill="#CCEDEA"/>
<path d="M742.372 247.341C742.372 225.473 751.059 204.5 766.523 189.036C781.986 173.573 802.959 164.885 824.828 164.885V247.341H742.372Z" fill="#D7F1EF"/>
<path d="M742.372 247.341H659.916V329.797H742.372V247.341Z" fill="#4A798C"/>
<path d="M659.916 329.797C681.785 329.797 702.758 321.11 718.221 305.646C733.685 290.183 742.372 269.21 742.372 247.341H659.916V329.797Z" fill="#F9FDFD"/>
<path d="M824.828 247.341H742.372V329.797H824.828V247.341Z" fill="#4A798C"/>
<path d="M742.372 247.341C742.372 269.21 751.059 290.183 766.523 305.646C781.986 321.11 802.959 329.797 824.828 329.797V247.341H742.372Z" fill="#548093"/>
<path d="M989.687 164.885H824.802V329.771H989.687V164.885Z" fill="#D2DEE3"/>
<path d="M989.687 164.885H824.802V329.771H989.687V164.885Z" fill="#7397A7"/>
<path d="M1154.57 164.885H989.687V329.771H1154.57V164.885Z" fill="#FBFCFC"/>
<path d="M989.687 329.771C989.687 286.041 1007.06 244.101 1037.98 213.179C1068.9 182.257 1110.84 164.885 1154.57 164.885V329.771H989.687Z" fill="#EDF2F4"/>
<path d="M1319.46 164.885H1154.57V329.771H1319.46V164.885Z" fill="#E3F5F4"/>
<path d="M1154.57 329.771C1198.3 329.771 1240.24 312.399 1271.16 281.477C1302.09 250.555 1319.46 208.616 1319.46 164.885H1154.57V329.771Z" fill="#5AC4BB"/>
<path d="M1484.34 164.885H1319.46V329.771H1484.34V164.885Z" fill="white"/>
<path d="M1401.91 164.885H1319.46V247.341H1401.91V164.885Z" fill="#A7E0DB"/>
<path d="M1319.46 247.341C1341.33 247.341 1362.3 238.654 1377.76 223.191C1393.23 207.727 1401.91 186.754 1401.91 164.885H1319.46V247.341Z" fill="#5EC5BD"/>
<path d="M1484.37 164.885H1401.91V247.341H1484.37V164.885Z" fill="#68C9C1"/>
<path d="M1401.91 164.885C1401.91 186.754 1410.6 207.727 1426.06 223.191C1441.53 238.654 1462.5 247.341 1484.37 247.341V164.885H1401.91Z" fill="#8CAAB6"/>
<path d="M1401.91 247.341H1319.46V329.797H1401.91V247.341Z" fill="#D9F1EF"/>
<path d="M1319.46 247.341C1341.33 247.341 1362.3 256.029 1377.76 271.492C1393.23 286.956 1401.91 307.928 1401.91 329.797H1319.46V247.341Z" fill="#59C4BB"/>
<path d="M1484.37 247.341H1401.91V329.797H1484.37V247.341Z" fill="#B3C6CF"/>
<path d="M1401.91 329.797C1401.91 307.928 1410.6 286.956 1426.06 271.492C1441.53 256.029 1462.5 247.341 1484.37 247.341V329.797H1401.91Z" fill="#EAF7F6"/>
<path d="M165.26 329.771H0.374023V494.656H165.26V329.771Z" fill="#2A6178"/>
<path d="M0.374023 494.656C22.0271 494.656 43.4681 490.392 63.473 482.105C83.4778 473.819 101.655 461.674 116.966 446.363C132.277 431.052 144.422 412.875 152.708 392.87C160.995 372.865 165.26 351.424 165.26 329.771H0.374023V494.656Z" fill="#C7D5DB"/>
<path d="M330.145 329.771H165.26V494.656H330.145V329.771Z" fill="white"/>
<path d="M247.715 329.771H165.26V412.227H247.715V329.771Z" fill="#B3C7CF"/>
<path d="M247.715 329.771V412.227H165.26L247.715 329.771Z" fill="#8FD7D1"/>
<path d="M330.171 329.771H247.715V412.227H330.171V329.771Z" fill="#85D3CD"/>
<path d="M247.715 329.771L330.171 412.227H247.715V329.771Z" fill="#7C9EAC"/>
<path d="M247.715 412.227H165.26V494.683H247.715V412.227Z" fill="#235C74"/>
<path d="M165.26 412.227H247.715L165.26 494.683V412.227Z" fill="#EAEFF2"/>
<path d="M330.171 412.227H247.715V494.683H330.171V412.227Z" fill="#D0DCE1"/>
<path d="M247.715 412.227H330.171V494.683L247.715 412.227Z" fill="#B6C9D1"/>
<path d="M495.031 329.771H330.145V494.656H495.031V329.771Z" fill="white"/>
<path d="M412.601 329.771H330.145V412.227H412.601V329.771Z" fill="#6C92A2"/>
<path d="M412.601 329.771V412.227H330.145L412.601 329.771Z" fill="#98B3BE"/>
<path d="M495.057 329.771H412.601V412.227H495.057V329.771Z" fill="#9AB4BF"/>
<path d="M412.601 329.771H495.057L412.601 412.227V329.771Z" fill="#CFDCE1"/>
<path d="M412.601 412.227H330.145V494.683H412.601V412.227Z" fill="#4ABEB5"/>
<path d="M330.145 412.227H412.601V494.683L330.145 412.227Z" fill="#DAF2F0"/>
<path d="M495.057 412.227H412.601V494.683H495.057V412.227Z" fill="#63C7BF"/>
<path d="M412.601 412.227L495.057 494.683H412.601V412.227Z" fill="#5E8799"/>
<path d="M659.916 329.771H495.031V494.656H659.916V329.771Z" fill="#31667C"/>
<path d="M495.031 329.771H659.916L495.031 494.656V329.771Z" fill="#B8CAD2"/>
<path d="M824.802 329.771H659.916V494.656H824.802V329.771Z" fill="#B2C6CE"/>
<path d="M659.916 494.656C681.569 494.656 703.01 490.392 723.015 482.105C743.02 473.819 761.197 461.674 776.508 446.363C791.819 431.052 803.964 412.875 812.25 392.87C820.537 372.865 824.802 351.424 824.802 329.771H659.916V494.656Z" fill="#7E9FAD"/>
<path d="M989.687 329.771H824.802V494.656H989.687V329.771Z" fill="white"/>
<path d="M907.257 329.771H824.802V412.227H907.257V329.771Z" fill="#80D2CB"/>
<path d="M824.802 412.227C824.802 390.358 833.489 369.385 848.952 353.922C864.416 338.458 885.389 329.771 907.257 329.771V412.227H824.802Z" fill="#C2E9E6"/>
<path d="M989.713 329.771H907.257V412.227H989.713V329.771Z" fill="#2A6178"/>
<path d="M907.257 329.771C929.126 329.771 950.099 338.458 965.562 353.922C981.026 369.385 989.713 390.358 989.713 412.227H907.257V329.771Z" fill="#BACCD3"/>
<path d="M907.257 412.227H824.802V494.683H907.257V412.227Z" fill="white"/>
<path d="M824.802 412.227C824.802 434.095 833.489 455.068 848.952 470.532C864.416 485.995 885.389 494.683 907.257 494.683V412.227H824.802Z" fill="#9FB8C2"/>
<path d="M989.713 412.227H907.257V494.683H989.713V412.227Z" fill="#D0DCE1"/>
<path d="M907.257 494.683C929.126 494.683 950.099 485.995 965.562 470.532C981.026 455.068 989.713 434.095 989.713 412.227H907.257V494.683Z" fill="#47778B"/>
<path d="M1154.57 329.771H989.687V494.656H1154.57V329.771Z" fill="#8BD5CF"/>
<path d="M989.687 494.656C989.687 450.926 1007.06 408.987 1037.98 378.065C1068.9 347.143 1110.84 329.771 1154.57 329.771V494.656H989.687Z" fill="#235B73"/>
<path d="M1319.46 329.771H1154.57V494.656H1319.46V329.771Z" fill="#EBF0F2"/>
<path d="M1154.57 329.771H1319.46V494.656L1154.57 329.771Z" fill="#5D8798"/>
<path d="M1484.34 329.771H1319.46V494.656H1484.34V329.771Z" fill="white"/>
<path d="M1401.91 329.771H1319.46V412.227H1401.91V329.771Z" fill="#B4C7CF"/>
<path d="M1360.69 412.227C1383.46 412.227 1401.91 393.768 1401.91 370.999C1401.91 348.229 1383.46 329.771 1360.69 329.771C1337.92 329.771 1319.46 348.229 1319.46 370.999C1319.46 393.768 1337.92 412.227 1360.69 412.227Z" fill="#DFE7EB"/>
<path d="M1484.37 329.771H1401.91V412.227H1484.37V329.771Z" fill="#86D4CD"/>
<path d="M1484.37 329.771H1401.91V412.227H1484.37V329.771Z" fill="#AAE1DC"/>
<path d="M1401.91 412.227H1319.46V494.683H1401.91V412.227Z" fill="#3E7085"/>
<path d="M1360.69 494.683C1383.46 494.683 1401.91 476.224 1401.91 453.455C1401.91 430.685 1383.46 412.227 1360.69 412.227C1337.92 412.227 1319.46 430.685 1319.46 453.455C1319.46 476.224 1337.92 494.683 1360.69 494.683Z" fill="#8AA8B5"/>
<path d="M1484.37 412.227H1401.91V494.683H1484.37V412.227Z" fill="#54C2B9"/>
<path d="M1484.37 412.227H1401.91V494.683H1484.37V412.227Z" fill="#F3FBFA"/>
<path d="M165.26 494.656H0.374023V659.542H165.26V494.656Z" fill="white"/>
<path d="M82.8298 494.656H0.374023V577.112H82.8298V494.656Z" fill="#A4BCC6"/>
<path d="M82.8298 494.656V577.112H0.374023L82.8298 494.656Z" fill="#7BD0C9"/>
<path d="M165.286 494.656H82.8298V577.112H165.286V494.656Z" fill="#52C1B8"/>
<path d="M82.8298 494.656L165.286 577.112H82.8298V494.656Z" fill="#8BD5CF"/>
<path d="M82.8298 577.112H0.374023V659.568H82.8298V577.112Z" fill="#82D2CC"/>
<path d="M0.374023 577.112H82.8298L0.374023 659.568V577.112Z" fill="#225B73"/>
<path d="M165.286 577.112H82.8298V659.568H165.286V577.112Z" fill="#9AB4BF"/>
<path d="M82.8298 577.112H165.286V659.568L82.8298 577.112Z" fill="#A0DDD8"/>
<path d="M330.145 494.656H165.26V659.542H330.145V494.656Z" fill="white"/>
<path d="M247.715 494.656H165.26V577.112H247.715V494.656Z" fill="#9EDCD7"/>
<path d="M247.715 494.656V577.112H165.26L247.715 494.656Z" fill="#DAF2F0"/>
<path d="M330.171 494.656H247.715V577.112H330.171V494.656Z" fill="#4EC0B6"/>
<path d="M247.715 494.656L330.171 577.112H247.715V494.656Z" fill="#7D9EAC"/>
<path d="M247.715 577.112H165.26V659.568H247.715V577.112Z" fill="#83D3CC"/>
<path d="M165.26 577.112H247.715V659.568L165.26 577.112Z" fill="#7FA0AE"/>
<path d="M330.171 577.112H247.715V659.568H330.171V577.112Z" fill="#6ACAC2"/>
<path d="M247.715 577.112H330.171L247.715 659.568V577.112Z" fill="#E3F5F3"/>
<path d="M495.031 494.656H330.145V659.542H495.031V494.656Z" fill="white"/>
<path d="M412.601 494.656H330.145V577.112H412.601V494.656Z" fill="#46768A"/>
<path d="M330.145 577.112C330.145 555.244 338.832 534.271 354.296 518.807C369.759 503.344 390.732 494.656 412.601 494.656V515.27C396.199 515.27 380.47 521.786 368.872 533.383C357.274 544.981 350.759 560.711 350.759 577.112" fill="#E1E9EC"/>
<path d="M495.057 494.656H412.601V577.112H495.057V494.656Z" fill="#58C3BB"/>
<path d="M412.601 494.656C434.469 494.656 455.442 503.344 470.906 518.807C486.369 534.271 495.057 555.244 495.057 577.112H474.443C474.443 560.711 467.927 544.981 456.33 533.383C444.732 521.786 429.002 515.27 412.601 515.27" fill="#4F7D90"/>
<path d="M412.601 577.112H330.145V659.568H412.601V577.112Z" fill="#E7EDF0"/>
<path d="M330.145 577.112C330.145 598.981 338.832 619.954 354.296 635.417C369.759 650.881 390.732 659.568 412.601 659.568V638.954C396.199 638.954 380.47 632.439 368.872 620.841C357.274 609.243 350.759 593.514 350.759 577.112" fill="#ADC2CB"/>
<path d="M495.057 577.112H412.601V659.568H495.057V577.112Z" fill="#74CDC6"/>
<path d="M412.601 659.568C434.469 659.568 455.442 650.881 470.906 635.417C486.369 619.954 495.057 598.981 495.057 577.112H474.443C474.443 593.514 467.927 609.243 456.33 620.841C444.732 632.439 429.002 638.954 412.601 638.954" fill="#EEF9F8"/>
<path d="M659.916 494.656H495.031V659.542H659.916V494.656Z" fill="#DCF3F1"/>
<path d="M659.916 494.656H495.031V659.542H659.916V494.656Z" fill="#95D9D3"/>
<path d="M824.802 494.656H659.916V659.542H824.802V494.656Z" fill="#8DAAB7"/>
<path d="M659.916 494.656C681.569 494.656 703.01 498.921 723.015 507.208C743.02 515.494 761.197 527.639 776.508 542.95C791.819 558.261 803.964 576.438 812.25 596.443C820.537 616.448 824.802 637.889 824.802 659.542L659.916 494.656C659.916 538.387 677.288 580.326 708.21 611.248C739.132 642.17 781.071 659.542 824.802 659.542" fill="#6CCBC3"/>
<path d="M989.687 494.656H824.802V659.542H989.687V494.656Z" fill="#76CEC7"/>
<path d="M824.802 494.656L989.687 659.542H824.802V494.656Z" fill="#6ACAC2"/>
<path d="M1154.57 494.656H989.687V659.542H1154.57V494.656Z" fill="white"/>
<path d="M1072.14 494.656H989.687V577.112H1072.14V494.656Z" fill="#3A6D82"/>
<path d="M1072.14 494.656V577.112H989.687L1072.14 494.656Z" fill="#5AC4BB"/>
<path d="M1154.6 494.656H1072.14V577.112H1154.6V494.656Z" fill="#B5E5E1"/>
<path d="M1072.14 494.656L1154.6 577.112H1072.14V494.656Z" fill="#C6EAE7"/>
<path d="M1072.14 577.112H989.687V659.568H1072.14V577.112Z" fill="#BACCD3"/>
<path d="M989.687 577.112H1072.14V659.568L989.687 577.112Z" fill="#8DAAB7"/>
<path d="M1154.6 577.112H1072.14V659.568H1154.6V577.112Z" fill="#4F7C8F"/>
<path d="M1072.14 577.112H1154.6L1072.14 659.568V577.112Z" fill="#6C92A2"/>
<path d="M1319.46 494.656H1154.57V659.542H1319.46V494.656Z" fill="white"/>
<path d="M1237.03 494.656H1154.57V577.112H1237.03V494.656Z" fill="#94B0BB"/>
<path d="M1154.57 494.656C1176.44 494.656 1197.41 503.344 1212.88 518.807C1228.34 534.271 1237.03 555.244 1237.03 577.112H1154.57V494.656Z" fill="#E4F5F4"/>
<path d="M1319.48 494.656H1237.03V577.112H1319.48V494.656Z" fill="#DFE8EB"/>
<path d="M1237.03 577.112C1237.03 555.244 1245.72 534.271 1261.18 518.807C1276.64 503.344 1297.62 494.656 1319.48 494.656V577.112H1237.03Z" fill="#B6E5E1"/>
<path d="M1237.03 577.112H1154.57V659.568H1237.03V577.112Z" fill="#F6FCFB"/>
<path d="M1154.57 659.568C1176.44 659.568 1197.41 650.881 1212.88 635.417C1228.34 619.954 1237.03 598.981 1237.03 577.112H1154.57V659.568Z" fill="#F0F4F5"/>
<path d="M1319.48 577.112H1237.03V659.568H1319.48V577.112Z" fill="#F7FCFC"/>
<path d="M1237.03 577.112C1237.03 598.981 1245.72 619.954 1261.18 635.417C1276.64 650.881 1297.62 659.568 1319.48 659.568V577.112H1237.03Z" fill="#CEDBE0"/>
<path d="M1484.34 494.656H1319.46V659.542H1484.34V494.656Z" fill="#87A6B3"/>
<path d="M1319.46 659.542C1319.46 615.812 1336.83 573.872 1367.75 542.95C1398.67 512.028 1440.61 494.656 1484.34 494.656V659.542H1319.46Z" fill="#C3E9E6"/>
<path d="M165.26 659.542H0.374023V824.427H165.26V659.542Z" fill="white"/>
<path d="M82.8298 659.542H0.374023V741.998H82.8298V659.542Z" fill="#D0EEEC"/>
<path d="M82.8298 659.542V741.998H0.374023L82.8298 659.542Z" fill="#396C82"/>
<path d="M165.286 659.542H82.8298V741.998H165.286V659.542Z" fill="#8EABB7"/>
<path d="M82.8298 659.542L165.286 741.998H82.8298V659.542Z" fill="#D6F0EE"/>
<path d="M82.8298 741.998H0.374023V824.454H82.8298V741.998Z" fill="#DDE6E9"/>
<path d="M0.374023 741.998H82.8298L0.374023 824.454V741.998Z" fill="#9BDBD6"/>
<path d="M165.286 741.998H82.8298V824.454H165.286V741.998Z" fill="#9BDBD6"/>
<path d="M82.8298 741.998H165.286V824.454L82.8298 741.998Z" fill="#5D8798"/>
<path d="M330.145 659.542H165.26V824.427H330.145V659.542Z" fill="#49788B"/>
<path d="M165.26 659.542L330.145 824.427H165.26V659.542Z" fill="#7ACFC8"/>
<path d="M495.031 659.542H330.145V824.427H495.031V659.542Z" fill="white"/>
<path d="M412.601 659.542H330.145V741.998H412.601V659.542Z" fill="#CAD8DE"/>
<path d="M412.601 659.542V741.998H330.145L412.601 659.542Z" fill="#9ADBD6"/>
<path d="M495.057 659.542H412.601V741.998H495.057V659.542Z" fill="#E9F7F6"/>
<path d="M412.601 659.542L495.057 741.998H412.601V659.542Z" fill="#6CCAC3"/>
<path d="M412.601 741.998H330.145V824.454H412.601V741.998Z" fill="#50C0B7"/>
<path d="M330.145 741.998H412.601L330.145 824.454V741.998Z" fill="#83A3B1"/>
<path d="M495.057 741.998H412.601V824.454H495.057V741.998Z" fill="#DAF2F0"/>
<path d="M412.601 741.998H495.057V824.454L412.601 741.998Z" fill="#89D5CF"/>
<path d="M659.916 659.542H495.031V824.427H659.916V659.542Z" fill="#47778B"/>
<path d="M495.031 659.542L659.916 824.427H495.031V659.542Z" fill="#668D9E"/>
<path d="M824.802 659.542H659.916V824.427H824.802V659.542Z" fill="white"/>
<path d="M742.372 659.542H659.916V741.998H742.372V659.542Z" fill="#E0F4F2"/>
<path d="M659.916 741.998C659.916 720.129 668.603 699.156 684.067 683.693C699.53 668.229 720.503 659.542 742.372 659.542V680.156C725.97 680.156 710.241 686.671 698.643 698.269C687.045 709.867 680.53 725.596 680.53 741.998" fill="#BFD0D7"/>
<path d="M824.828 659.542H742.372V741.998H824.828V659.542Z" fill="#5AC4BB"/>
<path d="M742.372 659.542C764.24 659.542 785.213 668.229 800.677 683.693C816.14 699.156 824.828 720.129 824.828 741.998H804.214C804.214 733.877 802.614 725.835 799.506 718.332C796.398 710.829 791.843 704.012 786.101 698.269C780.358 692.526 773.541 687.971 766.038 684.863C758.535 681.755 750.493 680.156 742.372 680.156" fill="#5AC4BB"/>
<path d="M742.372 741.998H659.916V824.454H742.372V741.998Z" fill="#C3EAE6"/>
<path d="M659.916 741.998C659.916 763.866 668.603 784.839 684.067 800.303C699.53 815.766 720.503 824.454 742.372 824.454V803.84C725.97 803.84 710.241 797.324 698.643 785.727C687.045 774.129 680.53 758.399 680.53 741.998" fill="#E7F7F5"/>
<path d="M824.828 741.998H742.372V824.454H824.828V741.998Z" fill="#91D8D2"/>
<path d="M742.372 824.454C764.24 824.454 785.213 815.766 800.677 800.303C816.14 784.839 824.828 763.866 824.828 741.998H804.214C804.214 750.119 802.614 758.161 799.506 765.664C796.398 773.167 791.843 779.984 786.101 785.727C780.358 791.469 773.541 796.024 766.038 799.132C758.535 802.24 750.493 803.84 742.372 803.84" fill="#A8E0DB"/>
<path d="M989.687 659.542H824.802V824.427H989.687V659.542Z" fill="#F6F8F9"/>
<path d="M824.802 659.542C868.532 659.542 910.471 676.914 941.393 707.836C972.315 738.758 989.687 780.697 989.687 824.427L824.802 659.542C824.802 681.195 829.066 702.636 837.353 722.641C845.639 742.646 857.784 760.823 873.095 776.134C904.017 807.056 945.957 824.427 989.687 824.427" fill="#C9ECE9"/>
<path d="M1154.57 659.542H989.687V824.427H1154.57V659.542Z" fill="#B2E3DF"/>
<path d="M989.687 659.542C1033.42 659.542 1075.36 676.914 1106.28 707.836C1137.2 738.758 1154.57 780.697 1154.57 824.427H989.687V659.542Z" fill="#53C1B8"/>
<path d="M1319.46 659.542H1154.57V824.427H1319.46V659.542Z" fill="white"/>
<path d="M1237.03 659.542H1154.57V741.998H1237.03V659.542Z" fill="#9AB4BF"/>
<path d="M1154.57 741.998C1154.57 720.129 1163.26 699.156 1178.72 683.693C1194.19 668.229 1215.16 659.542 1237.03 659.542V680.156C1220.63 680.156 1204.9 686.671 1193.3 698.269C1181.7 709.867 1175.19 725.596 1175.19 741.998" fill="#98DAD5"/>
<path d="M1319.48 659.542H1237.03V741.998H1319.48V659.542Z" fill="#6ACAC2"/>
<path d="M1237.03 659.542C1258.9 659.542 1279.87 668.229 1295.33 683.693C1310.8 699.156 1319.48 720.129 1319.48 741.998H1298.87C1298.87 725.596 1292.35 709.867 1280.76 698.269C1269.16 686.671 1253.43 680.156 1237.03 680.156" fill="#34687E"/>
<path d="M1237.03 741.998H1154.57V824.454H1237.03V741.998Z" fill="#57C3BA"/>
<path d="M1154.57 741.998C1154.57 763.866 1163.26 784.839 1178.72 800.303C1194.19 815.766 1215.16 824.454 1237.03 824.454V803.84C1228.91 803.84 1220.87 802.24 1213.36 799.132C1205.86 796.024 1199.04 791.469 1193.3 785.727C1187.56 779.984 1183 773.167 1179.89 765.664C1176.79 758.161 1175.19 750.119 1175.19 741.998" fill="#53C1B8"/>
<path d="M1319.48 741.998H1237.03V824.454H1319.48V741.998Z" fill="#DCF3F1"/>
<path d="M1237.03 824.454C1258.9 824.454 1279.87 815.766 1295.33 800.303C1310.8 784.839 1319.48 763.866 1319.48 741.998H1298.87C1298.87 750.119 1297.27 758.161 1294.16 765.664C1291.05 773.167 1286.5 779.984 1280.76 785.727C1275.01 791.469 1268.2 796.024 1260.69 799.132C1253.19 802.24 1245.15 803.84 1237.03 803.84" fill="#2A6178"/>
<path d="M1484.34 659.542H1319.46V824.427H1484.34V659.542Z" fill="white"/>
<path d="M1401.91 659.542H1319.46V741.998H1401.91V659.542Z" fill="#8BA9B5"/>
<path d="M1319.46 741.998C1319.46 720.129 1328.15 699.156 1343.61 683.693C1359.07 668.229 1380.05 659.542 1401.91 659.542V680.156C1385.51 680.156 1369.78 686.671 1358.18 698.269C1346.59 709.867 1340.07 725.596 1340.07 741.998" fill="#88A7B4"/>
<path d="M1484.37 659.542H1401.91V741.998H1484.37V659.542Z" fill="#A7BDC7"/>
<path d="M1401.91 659.542C1423.78 659.542 1444.76 668.229 1460.22 683.693C1475.68 699.156 1484.37 720.129 1484.37 741.998H1463.76C1463.76 725.596 1457.24 709.867 1445.64 698.269C1434.04 686.671 1418.32 680.156 1401.91 680.156" fill="#F3FBFA"/>
<path d="M1401.91 741.998H1319.46V824.454H1401.91V741.998Z" fill="#457589"/>
<path d="M1319.46 741.998C1319.46 763.866 1328.15 784.839 1343.61 800.303C1359.07 815.766 1380.05 824.454 1401.91 824.454V803.84C1393.79 803.84 1385.75 802.24 1378.25 799.132C1370.75 796.024 1363.93 791.469 1358.18 785.727C1352.44 779.984 1347.89 773.167 1344.78 765.664C1341.67 758.161 1340.07 750.119 1340.07 741.998" fill="#9DDCD7"/>
<path d="M1484.37 741.998H1401.91V824.454H1484.37V741.998Z" fill="#42BBB2"/>
<path d="M1401.91 824.454C1423.78 824.454 1444.76 815.766 1460.22 800.303C1475.68 784.839 1484.37 763.866 1484.37 741.998H1463.76C1463.76 750.119 1462.16 758.161 1459.05 765.664C1455.94 773.167 1451.39 779.984 1445.64 785.727C1439.9 791.469 1433.08 796.024 1425.58 799.132C1418.08 802.24 1410.03 803.84 1401.91 803.84" fill="#F4FBFB"/>
<path d="M165.26 824.427H0.374023V989.313H165.26V824.427Z" fill="white"/>
<path d="M82.8298 824.427H0.374023V906.883H82.8298V824.427Z" fill="#80D2CB"/>
<path d="M82.8298 824.427V906.883H0.374023L82.8298 824.427Z" fill="#668E9E"/>
<path d="M165.286 824.427H82.8298V906.883H165.286V824.427Z" fill="#6B91A1"/>
<path d="M82.8298 824.427H165.286L82.8298 906.883V824.427Z" fill="#7EA0AE"/>
<path d="M82.8298 906.883H0.374023V989.339H82.8298V906.883Z" fill="#9BDBD6"/>
<path d="M0.374023 906.883H82.8298V989.339L0.374023 906.883Z" fill="#EAF8F6"/>
<path d="M165.286 906.883H82.8298V989.339H165.286V906.883Z" fill="#8AD5CF"/>
<path d="M82.8298 906.883L165.286 989.339H82.8298V906.883Z" fill="#98B2BE"/>
<path d="M330.145 824.427H165.26V989.313H330.145V824.427Z" fill="white"/>
<path d="M247.715 824.427H165.26V906.883H247.715V824.427Z" fill="#51C1B8"/>
<path d="M206.487 906.883C229.257 906.883 247.715 888.425 247.715 865.655C247.715 842.886 229.257 824.427 206.487 824.427C183.718 824.427 165.26 842.886 165.26 865.655C165.26 888.425 183.718 906.883 206.487 906.883Z" fill="#BDCED5"/>
<path d="M330.171 824.427H247.715V906.883H330.171V824.427Z" fill="#EEF2F4"/>
<path d="M330.171 824.427H247.715V906.883H330.171V824.427Z" fill="#41BBB1"/>
<path d="M247.715 906.883H165.26V989.339H247.715V906.883Z" fill="#91ADB9"/>
<path d="M206.487 989.339C229.257 989.339 247.715 970.881 247.715 948.111C247.715 925.342 229.257 906.883 206.487 906.883C183.718 906.883 165.26 925.342 165.26 948.111C165.26 970.881 183.718 989.339 206.487 989.339Z" fill="#7397A6"/>
<path d="M330.171 906.883H247.715V989.339H330.171V906.883Z" fill="#D2DEE3"/>
<path d="M330.171 906.883H247.715V989.339H330.171V906.883Z" fill="#C6EBE8"/>
<path d="M495.031 824.427H330.145V989.313H495.031V824.427Z" fill="#41BBB1"/>
<path d="M495.031 824.427H330.145V989.313H495.031V824.427Z" fill="#A2DED9"/>
<path d="M659.916 824.427H495.031V989.313H659.916V824.427Z" fill="#FBFEFE"/>
<path d="M495.031 824.427H659.916V989.313L495.031 824.427Z" fill="#ACC2CB"/>
<path d="M824.802 824.427H659.916V989.313H824.802V824.427Z" fill="#85A4B1"/>
<path d="M824.802 824.427V989.313H659.916L824.802 824.427Z" fill="#C3D2D9"/>
<path d="M989.687 824.427H824.802V989.313H989.687V824.427Z" fill="white"/>
<path d="M907.257 824.427H824.802V906.883H907.257V824.427Z" fill="#4BBEB5"/>
<path d="M824.802 906.883C824.802 885.015 833.489 864.042 848.952 848.578C864.416 833.115 885.389 824.427 907.257 824.427V845.041C890.856 845.041 875.126 851.557 863.528 863.154C851.931 874.752 845.415 890.482 845.415 906.883" fill="#4E7B8F"/>
<path d="M989.713 824.427H907.257V906.883H989.713V824.427Z" fill="#FAFDFD"/>
<path d="M907.257 824.427C929.126 824.427 950.099 833.115 965.562 848.578C981.026 864.042 989.713 885.015 989.713 906.883H969.099C969.099 890.482 962.584 874.752 950.986 863.154C939.388 851.557 923.659 845.041 907.257 845.041" fill="#9ADBD5"/>
<path d="M907.257 906.883H824.802V989.339H907.257V906.883Z" fill="#50C1B7"/>
<path d="M824.802 906.883C824.802 928.752 833.489 949.725 848.952 965.188C864.416 980.652 885.389 989.339 907.257 989.339V968.725C890.856 968.725 875.126 962.21 863.528 950.612C851.931 939.014 845.415 923.285 845.415 906.883" fill="#B4E4E0"/>
<path d="M989.713 906.883H907.257V989.339H989.713V906.883Z" fill="#EAF0F2"/>
<path d="M907.257 989.339C929.126 989.339 950.099 980.652 965.562 965.188C981.026 949.725 989.713 928.752 989.713 906.883H969.099C969.099 923.285 962.584 939.014 950.986 950.612C939.388 962.21 923.659 968.725 907.257 968.725" fill="#F0FAF9"/>
<path d="M1154.57 824.427H989.687V989.313H1154.57V824.427Z" fill="white"/>
<path d="M1072.14 824.427H989.687V906.883H1072.14V824.427Z" fill="#D8E2E6"/>
<path d="M1072.14 824.427V906.883H989.687L1072.14 824.427Z" fill="#71CCC5"/>
<path d="M1154.6 824.427H1072.14V906.883H1154.6V824.427Z" fill="#4E7C8F"/>
<path d="M1072.14 824.427L1154.6 906.883H1072.14V824.427Z" fill="#64C7BF"/>
<path d="M1072.14 906.883H989.687V989.339H1072.14V906.883Z" fill="#3E7085"/>
<path d="M989.687 906.883H1072.14V989.339L989.687 906.883Z" fill="#D4DFE4"/>
<path d="M1154.6 906.883H1072.14V989.339H1154.6V906.883Z" fill="#B6E5E1"/>
<path d="M1072.14 906.883H1154.6L1072.14 989.339V906.883Z" fill="#598496"/>
<path d="M1319.46 824.427H1154.57V989.313H1319.46V824.427Z" fill="white"/>
<path d="M1237.03 824.427H1154.57V906.883H1237.03V824.427Z" fill="#E6F6F5"/>
<path d="M1237.03 824.427V906.883H1154.57L1237.03 824.427Z" fill="#C8EBE9"/>
<path d="M1319.48 824.427H1237.03V906.883H1319.48V824.427Z" fill="#8EABB8"/>
<path d="M1237.03 824.427L1319.48 906.883H1237.03V824.427Z" fill="#7C9EAC"/>
<path d="M1237.03 906.883H1154.57V989.339H1237.03V906.883Z" fill="#8EABB8"/>
<path d="M1154.57 906.883H1237.03L1154.57 989.339V906.883Z" fill="#91ADB9"/>
<path d="M1319.48 906.883H1237.03V989.339H1319.48V906.883Z" fill="#7FD1CA"/>
<path d="M1237.03 906.883H1319.48V989.339L1237.03 906.883Z" fill="#47768A"/>
<path d="M1484.34 824.427H1319.46V989.313H1484.34V824.427Z" fill="#53C2B8"/>
<path d="M1484.34 824.427V989.313H1319.46L1484.34 824.427Z" fill="#A9BFC9"/>
<path d="M165.26 989.313H0.374023V1154.2H165.26V989.313Z" fill="white"/>
<path d="M82.8298 989.313H0.374023V1071.77H82.8298V989.313Z" fill="#66C8C0"/>
<path d="M0.374023 989.313C22.2427 989.313 43.2156 998 58.6791 1013.46C74.1425 1028.93 82.8298 1049.9 82.8298 1071.77H0.374023V989.313Z" fill="#CCEDEA"/>
<path d="M165.286 989.313H82.8298V1071.77H165.286V989.313Z" fill="#C6D5DB"/>
<path d="M82.8298 1071.77C82.8298 1049.9 91.5171 1028.93 106.981 1013.46C122.444 998 143.417 989.313 165.286 989.313V1071.77H82.8298Z" fill="#D2DDE2"/>
<path d="M82.8298 1071.77H0.374023V1154.22H82.8298V1071.77Z" fill="#568294"/>
<path d="M0.374023 1154.22C22.2427 1154.22 43.2156 1145.54 58.6791 1130.07C74.1425 1114.61 82.8298 1093.64 82.8298 1071.77H0.374023V1154.22Z" fill="#AEE2DE"/>
<path d="M165.286 1071.77H82.8298V1154.22H165.286V1071.77Z" fill="#66C8C0"/>
<path d="M82.8298 1071.77C82.8298 1093.64 91.5171 1114.61 106.981 1130.07C122.444 1145.54 143.417 1154.22 165.286 1154.22V1071.77H82.8298Z" fill="#E3EAED"/>
<path d="M330.145 989.313H165.26V1154.2H330.145V989.313Z" fill="#70CCC4"/>
<path d="M330.145 989.313H165.26V1154.2H330.145V989.313Z" fill="#CEDBE0"/>
<path d="M495.031 989.313H330.145V1154.2H495.031V989.313Z" fill="#FDFDFE"/>
<path d="M330.145 989.313L495.031 1154.2H330.145V989.313Z" fill="#52C1B8"/>
<path d="M659.916 989.313H495.031V1154.2H659.916V989.313Z" fill="white"/>
<path d="M577.486 989.313H495.031V1071.77H577.486V989.313Z" fill="#F7FCFC"/>
<path d="M495.031 1071.77C516.899 1071.77 537.872 1063.08 553.336 1047.62C568.799 1032.15 577.486 1011.18 577.486 989.313H495.031V1071.77Z" fill="#FEFFFF"/>
<path d="M659.942 989.313H577.486V1071.77H659.942V989.313Z" fill="#47BDB3"/>
<path d="M577.486 989.313C577.486 1011.18 586.174 1032.15 601.637 1047.62C617.101 1063.08 638.073 1071.77 659.942 1071.77V989.313H577.486Z" fill="#2E647A"/>
<path d="M577.486 1071.77H495.031V1154.22H577.486V1071.77Z" fill="#E6F6F5"/>
<path d="M495.031 1071.77C516.899 1071.77 537.872 1080.46 553.336 1095.92C568.799 1111.38 577.486 1132.36 577.486 1154.22H495.031V1071.77Z" fill="#5F889A"/>
<path d="M659.942 1071.77H577.486V1154.22H659.942V1071.77Z" fill="#63C7BF"/>
<path d="M577.486 1154.22C577.486 1132.36 586.174 1111.38 601.637 1095.92C617.101 1080.46 638.073 1071.77 659.942 1071.77V1154.22H577.486Z" fill="#6FCBC4"/>
<path d="M824.802 989.313H659.916V1154.2H824.802V989.313Z" fill="white"/>
<path d="M742.372 989.313H659.916V1071.77H742.372V989.313Z" fill="#70CCC4"/>
<path d="M742.372 989.313V1071.77H659.916L742.372 989.313Z" fill="#93AFBA"/>
<path d="M824.828 989.313H742.372V1071.77H824.828V989.313Z" fill="#D5E0E4"/>
<path d="M742.372 989.313L824.828 1071.77H742.372V989.313Z" fill="#FAFDFD"/>
<path d="M742.372 1071.77H659.916V1154.22H742.372V1071.77Z" fill="#69C9C1"/>
<path d="M659.916 1071.77H742.372V1154.22L659.916 1071.77Z" fill="#87A6B3"/>
<path d="M824.828 1071.77H742.372V1154.22H824.828V1071.77Z" fill="#E2E9EC"/>
<path d="M742.372 1071.77H824.828L742.372 1154.22V1071.77Z" fill="#598496"/>
<path d="M989.687 989.313H824.802V1154.2H989.687V989.313Z" fill="#DEF3F1"/>
<path d="M824.802 989.313C868.532 989.313 910.471 1006.68 941.393 1037.61C972.315 1068.53 989.687 1110.47 989.687 1154.2H824.802V989.313Z" fill="#CDDADF"/>
<path d="M1154.57 989.313H989.687V1154.2H1154.57V989.313Z" fill="#42BBB1"/>
<path d="M989.687 989.313C1033.42 989.313 1075.36 1006.68 1106.28 1037.61C1137.2 1068.53 1154.57 1110.47 1154.57 1154.2L989.687 989.313C989.687 1033.04 1007.06 1074.98 1037.98 1105.9C1068.9 1136.83 1110.84 1154.2 1154.57 1154.2" fill="#F5F7F9"/>
<path d="M1319.46 989.313H1154.57V1154.2H1319.46V989.313Z" fill="white"/>
<path d="M1237.03 989.313H1154.57V1071.77H1237.03V989.313Z" fill="#658C9D"/>
<path d="M1154.57 1071.77C1154.57 1049.9 1163.26 1028.93 1178.72 1013.46C1194.19 998 1215.16 989.313 1237.03 989.313V1071.77H1154.57Z" fill="#8ED7D1"/>
<path d="M1319.48 989.313H1237.03V1071.77H1319.48V989.313Z" fill="#F4F6F8"/>
<path d="M1237.03 989.313C1258.9 989.313 1279.87 998 1295.33 1013.46C1310.8 1028.93 1319.48 1049.9 1319.48 1071.77H1237.03V989.313Z" fill="#D4F0ED"/>
<path d="M1237.03 1071.77H1154.57V1154.22H1237.03V1071.77Z" fill="#93D8D3"/>
<path d="M1154.57 1071.77C1154.57 1093.64 1163.26 1114.61 1178.72 1130.07C1194.19 1145.54 1215.16 1154.22 1237.03 1154.22V1071.77H1154.57Z" fill="#FAFBFC"/>
<path d="M1319.48 1071.77H1237.03V1154.22H1319.48V1071.77Z" fill="#265E76"/>
<path d="M1237.03 1154.22C1258.9 1154.22 1279.87 1145.54 1295.33 1130.07C1310.8 1114.61 1319.48 1093.64 1319.48 1071.77H1237.03V1154.22Z" fill="#90ADB9"/>
<path d="M1484.34 989.313H1319.46V1154.2H1484.34V989.313Z" fill="#5B8697"/>
<path d="M1484.34 989.313H1319.46V1154.2H1484.34V989.313Z" fill="#86D4CD"/>
<path d="M165.26 1154.2H0.374023V1319.08H165.26V1154.2Z" fill="#407186"/>
<path d="M165.26 1154.2H0.374023V1319.08H165.26V1154.2Z" fill="#B1C5CD"/>
<path d="M330.145 1154.2H165.26V1319.08H330.145V1154.2Z" fill="#EAEFF2"/>
<path d="M330.145 1154.2H165.26V1319.08H330.145V1154.2Z" fill="#4ABEB5"/>
<path d="M495.031 1154.2H330.145V1319.08H495.031V1154.2Z" fill="white"/>
<path d="M412.601 1154.2H330.145V1236.65H412.601V1154.2Z" fill="#9DB6C1"/>
<path d="M330.145 1154.2C352.014 1154.2 372.987 1162.89 388.45 1178.35C403.914 1193.81 412.601 1214.79 412.601 1236.65H330.145V1154.2Z" fill="#8FD7D1"/>
<path d="M495.057 1154.2H412.601V1236.65H495.057V1154.2Z" fill="#D7E1E5"/>
<path d="M412.601 1236.65C412.601 1214.79 421.288 1193.81 436.752 1178.35C452.215 1162.89 473.188 1154.2 495.057 1154.2V1236.65H412.601Z" fill="#8AA8B5"/>
<path d="M412.601 1236.65H330.145V1319.11H412.601V1236.65Z" fill="#A6DFDA"/>
<path d="M330.145 1319.11C352.014 1319.11 372.987 1310.42 388.45 1294.96C403.914 1279.5 412.601 1258.52 412.601 1236.65H330.145V1319.11Z" fill="#43BCB2"/>
<path d="M495.057 1236.65H412.601V1319.11H495.057V1236.65Z" fill="#87D4CE"/>
<path d="M412.601 1236.65C412.601 1258.52 421.288 1279.5 436.752 1294.96C452.215 1310.42 473.188 1319.11 495.057 1319.11V1236.65H412.601Z" fill="#E4F5F4"/>
<path d="M659.916 1154.2H495.031V1319.08H659.916V1154.2Z" fill="#A3BAC4"/>
<path d="M495.031 1154.2H659.916L495.031 1319.08V1154.2Z" fill="#69C9C1"/>
<path d="M824.802 1154.2H659.916V1319.08H824.802V1154.2Z" fill="white"/>
<path d="M742.372 1154.2H659.916V1236.65H742.372V1154.2Z" fill="#A6DFDA"/>
<path d="M742.372 1154.2V1236.65H659.916L742.372 1154.2Z" fill="#BCE7E4"/>
<path d="M824.828 1154.2H742.372V1236.65H824.828V1154.2Z" fill="#BAE6E3"/>
<path d="M742.372 1154.2L824.828 1236.65H742.372V1154.2Z" fill="#B4C7CF"/>
<path d="M742.372 1236.65H659.916V1319.11H742.372V1236.65Z" fill="#437488"/>
<path d="M659.916 1236.65H742.372V1319.11L659.916 1236.65Z" fill="#C8EBE8"/>
<path d="M824.828 1236.65H742.372V1319.11H824.828V1236.65Z" fill="#618A9B"/>
<path d="M742.372 1236.65H824.828L742.372 1319.11V1236.65Z" fill="#AEE2DE"/>
<path d="M989.687 1154.2H824.802V1319.08H989.687V1154.2Z" fill="#DBF2F0"/>
<path d="M989.687 1154.2H824.802V1319.08H989.687V1154.2Z" fill="#DAF2F0"/>
<path d="M1154.57 1154.2H989.687V1319.08H1154.57V1154.2Z" fill="#B4C8D0"/>
<path d="M1154.57 1154.2H989.687V1319.08H1154.57V1154.2Z" fill="#7699A8"/>
<path d="M1319.46 1154.2H1154.57V1319.08H1319.46V1154.2Z" fill="white"/>
<path d="M1237.03 1154.2H1154.57V1236.65H1237.03V1154.2Z" fill="#BECFD6"/>
<path d="M1154.57 1236.65C1154.57 1214.79 1163.26 1193.81 1178.72 1178.35C1194.19 1162.89 1215.16 1154.2 1237.03 1154.2V1174.81C1220.63 1174.81 1204.9 1181.33 1193.3 1192.93C1181.7 1204.52 1175.19 1220.25 1175.19 1236.65" fill="#49BEB4"/>
<path d="M1319.48 1154.2H1237.03V1236.65H1319.48V1154.2Z" fill="#D1EFEC"/>
<path d="M1237.03 1154.2C1258.9 1154.2 1279.87 1162.89 1295.33 1178.35C1310.8 1193.81 1319.48 1214.79 1319.48 1236.65H1298.87C1298.87 1220.25 1292.35 1204.52 1280.76 1192.93C1269.16 1181.33 1253.43 1174.81 1237.03 1174.81" fill="#FEFFFE"/>
<path d="M1237.03 1236.65H1154.57V1319.11H1237.03V1236.65Z" fill="#9FDDD8"/>
<path d="M1154.57 1236.65C1154.57 1258.52 1163.26 1279.5 1178.72 1294.96C1194.19 1310.42 1215.16 1319.11 1237.03 1319.11V1298.5C1220.63 1298.5 1204.9 1291.98 1193.3 1280.38C1181.7 1268.79 1175.19 1253.06 1175.19 1236.65" fill="#92AEBA"/>
<path d="M1319.48 1236.65H1237.03V1319.11H1319.48V1236.65Z" fill="#56C2B9"/>
<path d="M1237.03 1319.11C1258.9 1319.11 1279.87 1310.42 1295.33 1294.96C1310.8 1279.5 1319.48 1258.52 1319.48 1236.65H1298.87C1298.87 1253.06 1292.35 1268.79 1280.76 1280.38C1269.16 1291.98 1253.43 1298.5 1237.03 1298.5" fill="#78CFC8"/>
<path d="M1484.34 1154.2H1319.46V1319.08H1484.34V1154.2Z" fill="white"/>
<path d="M1401.91 1154.2H1319.46V1236.65H1401.91V1154.2Z" fill="#4E7C8F"/>
<path d="M1401.91 1154.2V1236.65H1319.46L1401.91 1154.2Z" fill="#6ECBC3"/>
<path d="M1484.37 1154.2H1401.91V1236.65H1484.37V1154.2Z" fill="#9DDCD7"/>
<path d="M1401.91 1154.2L1484.37 1236.65H1401.91V1154.2Z" fill="#99B3BE"/>
<path d="M1401.91 1236.65H1319.46V1319.11H1401.91V1236.65Z" fill="#7DD1CA"/>
<path d="M1319.46 1236.65H1401.91V1319.11L1319.46 1236.65Z" fill="#2C637A"/>
<path d="M1484.37 1236.65H1401.91V1319.11H1484.37V1236.65Z" fill="#34687E"/>
<path d="M1401.91 1236.65H1484.37L1401.91 1319.11V1236.65Z" fill="#ABE1DC"/>
</g>
<rect x="-1" width="1978.63" height="1319.08" fill="black" fill-opacity="0.4"/>
<defs>
<clipPath id="clip0_175_2852">
<rect width="1978.63" height="1319.08" fill="white" transform="translate(0.374023)"/>
</clipPath>
</defs>
</svg>
