<?xml version="1.0" standalone="no"?><svg xmlns:xlink="http://www.w3.org/1999/xlink" xmlns="http://www.w3.org/2000/svg" viewBox="0 0 1000 666.6666666666666" preserveAspectRatio="xMaxYMax slice"><g transform="scale(1.3175230566534915)"><rect x="0" y="0" width="759" height="506" fill="#ffffff"/><rect x="0" y="0" width="63.25" height="63.25" fill="#4e7c8f"/><rect x="0" y="0" width="63.25" height="63.25" fill="#cfdce1"/><rect x="63.25" y="0" width="63.25" height="63.25" fill="#ffffff"/><rect x="63.25" y="0" width="31.63" height="31.63" fill="#a0ddd8"/><path d="M 63.25 0 A 31.63 31.63 0 0 1 94.88 31.63 L 63.25 31.63L63.25 0" fill="#548093"/><rect x="94.88" y="0" width="31.63" height="31.63" fill="#93afbb"/><path d="M 94.88 31.63 A 31.63 31.63 0 0 1  126.50999999999999 0 L 126.50999999999999 31.63L94.88 31.63" fill="#5ec5bd"/><rect x="63.25" y="31.63" width="31.63" height="31.63" fill="#bde8e4"/><path d="M 63.25 63.26 A 31.63 31.63 0 0 0 94.88 31.63 L 63.25 31.63L63.25 63.26" fill="#73cdc5"/><rect x="94.88" y="31.63" width="31.63" height="31.63" fill="#86a5b2"/><path d="M 94.88 31.63 A 31.63 31.63 0 0 0 126.50999999999999 63.26 L 126.50999999999999 31.63L94.88 31.63" fill="#598496"/><rect x="126.5" y="0" width="63.25" height="63.25" fill="#91d8d2"/><path d="M 126.5 63.25 A 63.25 63.25 0 0 0 189.75 0 L 126.5 0L126.5 63.25" fill="#acc2cb"/><rect x="189.75" y="0" width="63.25" height="63.25" fill="#ffffff"/><rect x="189.75" y="0" width="31.63" height="31.63" fill="#63c7bf"/><path d="M 189.75 31.63 A 31.63 31.63 0 0 1 221.38 0 L 221.38 7.9075 A 23.7225 23.7225 0 0 0 197.6575 31.63" fill="#457589"/><rect x="221.38" y="0" width="31.63" height="31.63" fill="#ceeeeb"/><path d="M 221.38 0 A 31.63 31.63 0 0 1 253.01 31.63 L 245.1025 31.63 A 23.7225 23.7225 0 0 0 221.38 7.9075" fill="#225b73"/><rect x="189.75" y="31.63" width="31.63" height="31.63" fill="#b9cbd3"/><path d="M 189.75 31.63 A 31.63 31.63 0 0 0 221.38 63.26 L 221.38 55.3525 A 23.7225 23.7225 0 0 1 197.6575 31.63" fill="#bce7e3"/><rect x="221.38" y="31.63" width="31.63" height="31.63" fill="#e7edf0"/><path d="M 221.38 63.26 A 31.63 31.63 0 0 0 253.01 31.63 L 245.1025 31.63 A 23.7225 23.7225 0 0 1 221.38 55.3525" fill="#c5eae7"/><rect x="253" y="0" width="63.25" height="63.25" fill="#a5bcc6"/><rect x="253" y="0" width="63.25" height="63.25" fill="#3a6c82"/><rect x="316.25" y="0" width="63.25" height="63.25" fill="#ffffff"/><rect x="316.25" y="0" width="31.63" height="31.63" fill="#80d2cb"/><circle cx="332.065" cy="15.815" r="15.815" fill="#c6eae7"/><rect x="347.88" y="0" width="31.63" height="31.63" fill="#47bdb4"/><rect x="347.88" y="0" width="31.63" height="31.63" fill="#59c4bb"/><rect x="316.25" y="31.63" width="31.63" height="31.63" fill="#f0faf9"/><circle cx="332.065" cy="47.445" r="15.815" fill="#e5f6f4"/><rect x="347.88" y="31.63" width="31.63" height="31.63" fill="#b9e6e2"/><rect x="347.88" y="31.63" width="31.63" height="31.63" fill="#8cd6d0"/><rect x="379.5" y="0" width="63.25" height="63.25" fill="#f3fbfa"/><rect x="379.5" y="0" width="63.25" height="63.25" fill="#e3f5f4"/><rect x="442.75" y="0" width="63.25" height="63.25" fill="#517e91"/><polygon points="442.75,0 506,0 442.75,63.25" fill="#527f91"/><rect x="506" y="0" width="63.25" height="63.25" fill="#ffffff"/><rect x="506" y="0" width="31.63" height="31.63" fill="#e6f6f5"/><path d="M 506 0 A 31.63 31.63 0 0 1 537.63 31.63 L 506 31.63L506 0" fill="#d1eeec"/><rect x="537.63" y="0" width="31.63" height="31.63" fill="#95d9d3"/><path d="M 537.63 31.63 A 31.63 31.63 0 0 1  569.26 0 L 569.26 31.63L537.63 31.63" fill="#3c6e84"/><rect x="506" y="31.63" width="31.63" height="31.63" fill="#6d93a3"/><path d="M 506 63.26 A 31.63 31.63 0 0 0 537.63 31.63 L 506 31.63L506 63.26" fill="#b7e5e2"/><rect x="537.63" y="31.63" width="31.63" height="31.63" fill="#4dbfb6"/><path d="M 537.63 31.63 A 31.63 31.63 0 0 0 569.26 63.26 L 569.26 31.63L537.63 31.63" fill="#d4dfe4"/><rect x="569.25" y="0" width="63.25" height="63.25" fill="#b2c6ce"/><rect x="569.25" y="0" width="63.25" height="63.25" fill="#f3fbfa"/><rect x="632.5" y="0" width="63.25" height="63.25" fill="#ffffff"/><rect x="632.5" y="0" width="31.63" height="31.63" fill="#b0c4cd"/><path d="M 632.5 0 A 31.63 31.63 0 0 1 664.13 31.63 L 632.5 31.63L632.5 0" fill="#e6ecef"/><rect x="664.13" y="0" width="31.63" height="31.63" fill="#74cdc6"/><path d="M 664.13 31.63 A 31.63 31.63 0 0 1  695.76 0 L 695.76 31.63L664.13 31.63" fill="#7ad0c9"/><rect x="632.5" y="31.63" width="31.63" height="31.63" fill="#74cdc6"/><path d="M 632.5 63.26 A 31.63 31.63 0 0 0 664.13 31.63 L 632.5 31.63L632.5 63.26" fill="#b1e3df"/><rect x="664.13" y="31.63" width="31.63" height="31.63" fill="#7e9fad"/><path d="M 664.13 31.63 A 31.63 31.63 0 0 0 695.76 63.26 L 695.76 31.63L664.13 31.63" fill="#6b91a1"/><rect x="695.75" y="0" width="63.25" height="63.25" fill="#ffffff"/><rect x="695.75" y="0" width="31.63" height="31.63" fill="#e9f7f6"/><path d="M 695.75 31.63 A 31.63 31.63 0 0 1  727.38 0 L 727.38 31.63L695.75 31.63" fill="#4fc0b7"/><rect x="727.38" y="0" width="31.63" height="31.63" fill="#5a8597"/><path d="M 727.38 0 A 31.63 31.63 0 0 1 759.01 31.63 L 727.38 31.63L727.38 0" fill="#c4eae7"/><rect x="695.75" y="31.63" width="31.63" height="31.63" fill="#427387"/><path d="M 695.75 31.63 A 31.63 31.63 0 0 0 727.38 63.26 L 727.38 31.63L695.75 31.63" fill="#d8e2e6"/><rect x="727.38" y="31.63" width="31.63" height="31.63" fill="#ade2de"/><path d="M 727.38 63.26 A 31.63 31.63 0 0 0 759.01 31.63 L 727.38 31.63L727.38 63.26" fill="#7bd0c9"/><rect x="0" y="63.25" width="63.25" height="63.25" fill="#ffffff"/><rect x="0" y="63.25" width="31.63" height="31.63" fill="#bbe7e3"/><path d="M 0 63.25 A 31.63 31.63 0 0 1 31.63 94.88 L 0 94.88L0 63.25" fill="#d3efed"/><rect x="31.63" y="63.25" width="31.63" height="31.63" fill="#e2e9ec"/><path d="M 31.63 94.88 A 31.63 31.63 0 0 1  63.26 63.25 L 63.26 94.88L31.63 94.88" fill="#74cdc6"/><rect x="0" y="94.88" width="31.63" height="31.63" fill="#d3efed"/><path d="M 0 126.50999999999999 A 31.63 31.63 0 0 0 31.63 94.88 L 0 94.88L0 126.50999999999999" fill="#52c1b8"/><rect x="31.63" y="94.88" width="31.63" height="31.63" fill="#5ec5bd"/><path d="M 31.63 94.88 A 31.63 31.63 0 0 0 63.26 126.50999999999999 L 63.26 94.88L31.63 94.88" fill="#7397a7"/><rect x="63.25" y="63.25" width="63.25" height="63.25" fill="#49beb4"/><path d="M 63.25 63.25 A 63.25 63.25 0 0 1  126.5 126.5 L 63.25 63.25 A 63.25 63.25 0 0 0 126.5 126.5" fill="#d6e0e5"/><rect x="126.5" y="63.25" width="63.25" height="63.25" fill="#bee8e4"/><path d="M 126.5 63.25 A 63.25 63.25 0 0 1 189.75 126.5 L 126.5 126.5L126.5 63.25" fill="#688f9f"/><rect x="189.75" y="63.25" width="63.25" height="63.25" fill="#49beb4"/><polygon points="253,63.25 253,126.5 189.75,126.5" fill="#65c8c0"/><rect x="253" y="63.25" width="63.25" height="63.25" fill="#ffffff"/><rect x="253" y="63.25" width="31.63" height="31.63" fill="#83a3b1"/><path d="M 253 63.25 A 31.63 31.63 0 0 1 284.63 94.88 L 253 94.88L253 63.25" fill="#fcfefe"/><rect x="284.63" y="63.25" width="31.63" height="31.63" fill="#ccedea"/><path d="M 284.63 94.88 A 31.63 31.63 0 0 1  316.26 63.25 L 316.26 94.88L284.63 94.88" fill="#d7f1ef"/><rect x="253" y="94.88" width="31.63" height="31.63" fill="#4a798c"/><path d="M 253 126.50999999999999 A 31.63 31.63 0 0 0 284.63 94.88 L 253 94.88L253 126.50999999999999" fill="#f9fdfd"/><rect x="284.63" y="94.88" width="31.63" height="31.63" fill="#4a798c"/><path d="M 284.63 94.88 A 31.63 31.63 0 0 0 316.26 126.50999999999999 L 316.26 94.88L284.63 94.88" fill="#548093"/><rect x="316.25" y="63.25" width="63.25" height="63.25" fill="#d2dee3"/><rect x="316.25" y="63.25" width="63.25" height="63.25" fill="#7397a7"/><rect x="379.5" y="63.25" width="63.25" height="63.25" fill="#fbfcfc"/><path d="M 379.5 126.5 A 63.25 63.25 0 0 1  442.75 63.25 L 442.75 126.5L379.5 126.5" fill="#edf2f4"/><rect x="442.75" y="63.25" width="63.25" height="63.25" fill="#e3f5f4"/><path d="M 442.75 126.5 A 63.25 63.25 0 0 0 506 63.25 L 442.75 63.25L442.75 126.5" fill="#5ac4bb"/><rect x="506" y="63.25" width="63.25" height="63.25" fill="#ffffff"/><rect x="506" y="63.25" width="31.63" height="31.63" fill="#a7e0db"/><path d="M 506 94.88 A 31.63 31.63 0 0 0 537.63 63.25 L 506 63.25L506 94.88" fill="#5ec5bd"/><rect x="537.63" y="63.25" width="31.63" height="31.63" fill="#68c9c1"/><path d="M 537.63 63.25 A 31.63 31.63 0 0 0 569.26 94.88 L 569.26 63.25L537.63 63.25" fill="#8caab6"/><rect x="506" y="94.88" width="31.63" height="31.63" fill="#d9f1ef"/><path d="M 506 94.88 A 31.63 31.63 0 0 1 537.63 126.50999999999999 L 506 126.50999999999999L506 94.88" fill="#59c4bb"/><rect x="537.63" y="94.88" width="31.63" height="31.63" fill="#b3c6cf"/><path d="M 537.63 126.50999999999999 A 31.63 31.63 0 0 1  569.26 94.88 L 569.26 126.50999999999999L537.63 126.50999999999999" fill="#eaf7f6"/><rect x="569.25" y="63.25" width="63.25" height="63.25" fill="#7ed1ca"/><polygon points="632.5,63.25 632.5,126.5 569.25,126.5" fill="#5ac4bb"/><rect x="632.5" y="63.25" width="63.25" height="63.25" fill="#ffffff"/><rect x="632.5" y="63.25" width="31.63" height="31.63" fill="#bbe7e3"/><circle cx="648.315" cy="79.065" r="15.815" fill="#d4dfe4"/><rect x="664.13" y="63.25" width="31.63" height="31.63" fill="#cedae0"/><rect x="664.13" y="63.25" width="31.63" height="31.63" fill="#eff9f9"/><rect x="632.5" y="94.88" width="31.63" height="31.63" fill="#bce7e4"/><circle cx="648.315" cy="110.695" r="15.815" fill="#96b1bc"/><rect x="664.13" y="94.88" width="31.63" height="31.63" fill="#c5eae7"/><rect x="664.13" y="94.88" width="31.63" height="31.63" fill="#81d2cb"/><rect x="695.75" y="63.25" width="63.25" height="63.25" fill="#ffffff"/><rect x="695.75" y="63.25" width="31.63" height="31.63" fill="#64c7bf"/><path d="M 695.75 94.88 A 31.63 31.63 0 0 1  727.38 63.25 L 727.38 94.88L695.75 94.88" fill="#f7fcfc"/><rect x="727.38" y="63.25" width="31.63" height="31.63" fill="#9cdcd6"/><path d="M 727.38 63.25 A 31.63 31.63 0 0 1 759.01 94.88 L 727.38 94.88L727.38 63.25" fill="#e0e8ec"/><rect x="695.75" y="94.88" width="31.63" height="31.63" fill="#6acac2"/><path d="M 695.75 94.88 A 31.63 31.63 0 0 0 727.38 126.50999999999999 L 727.38 94.88L695.75 94.88" fill="#d4f0ed"/><rect x="727.38" y="94.88" width="31.63" height="31.63" fill="#aee2de"/><path d="M 727.38 126.50999999999999 A 31.63 31.63 0 0 0 759.01 94.88 L 727.38 94.88L727.38 126.50999999999999" fill="#b6e5e1"/><rect x="0" y="126.5" width="63.25" height="63.25" fill="#2a6178"/><path d="M 0 189.75 A 63.25 63.25 0 0 0 63.25 126.5 L 0 126.5L0 189.75" fill="#c7d5db"/><rect x="63.25" y="126.5" width="63.25" height="63.25" fill="#ffffff"/><rect x="63.25" y="126.5" width="31.63" height="31.63" fill="#b3c7cf"/><polygon points="94.88,126.5 94.88,158.13 63.25,158.13" fill="#8fd7d1"/><rect x="94.88" y="126.5" width="31.63" height="31.63" fill="#85d3cd"/><polygon points="94.88,126.5 126.50999999999999,158.13 94.88,158.13" fill="#7c9eac"/><rect x="63.25" y="158.13" width="31.63" height="31.63" fill="#235c74"/><polygon points="63.25,158.13 94.88,158.13 63.25,189.76" fill="#eaeff2"/><rect x="94.88" y="158.13" width="31.63" height="31.63" fill="#d0dce1"/><polygon points="94.88,158.13 126.50999999999999,158.13 126.50999999999999,189.76" fill="#b6c9d1"/><rect x="126.5" y="126.5" width="63.25" height="63.25" fill="#ffffff"/><rect x="126.5" y="126.5" width="31.63" height="31.63" fill="#6c92a2"/><polygon points="158.13,126.5 158.13,158.13 126.5,158.13" fill="#98b3be"/><rect x="158.13" y="126.5" width="31.63" height="31.63" fill="#9ab4bf"/><polygon points="158.13,126.5 189.76,126.5 158.13,158.13" fill="#cfdce1"/><rect x="126.5" y="158.13" width="31.63" height="31.63" fill="#4abeb5"/><polygon points="126.5,158.13 158.13,158.13 158.13,189.76" fill="#daf2f0"/><rect x="158.13" y="158.13" width="31.63" height="31.63" fill="#63c7bf"/><polygon points="158.13,158.13 189.76,189.76 158.13,189.76" fill="#5e8799"/><rect x="189.75" y="126.5" width="63.25" height="63.25" fill="#31667c"/><polygon points="189.75,126.5 253,126.5 189.75,189.75" fill="#b8cad2"/><rect x="253" y="126.5" width="63.25" height="63.25" fill="#b2c6ce"/><path d="M 253 189.75 A 63.25 63.25 0 0 0 316.25 126.5 L 253 126.5L253 189.75" fill="#7e9fad"/><rect x="316.25" y="126.5" width="63.25" height="63.25" fill="#ffffff"/><rect x="316.25" y="126.5" width="31.63" height="31.63" fill="#80d2cb"/><path d="M 316.25 158.13 A 31.63 31.63 0 0 1  347.88 126.5 L 347.88 158.13L316.25 158.13" fill="#c2e9e6"/><rect x="347.88" y="126.5" width="31.63" height="31.63" fill="#2a6178"/><path d="M 347.88 126.5 A 31.63 31.63 0 0 1 379.51 158.13 L 347.88 158.13L347.88 126.5" fill="#baccd3"/><rect x="316.25" y="158.13" width="31.63" height="31.63" fill="#ffffff"/><path d="M 316.25 158.13 A 31.63 31.63 0 0 0 347.88 189.76 L 347.88 158.13L316.25 158.13" fill="#9fb8c2"/><rect x="347.88" y="158.13" width="31.63" height="31.63" fill="#d0dce1"/><path d="M 347.88 189.76 A 31.63 31.63 0 0 0 379.51 158.13 L 347.88 158.13L347.88 189.76" fill="#47778b"/><rect x="379.5" y="126.5" width="63.25" height="63.25" fill="#8bd5cf"/><path d="M 379.5 189.75 A 63.25 63.25 0 0 1  442.75 126.5 L 442.75 189.75L379.5 189.75" fill="#235b73"/><rect x="442.75" y="126.5" width="63.25" height="63.25" fill="#ebf0f2"/><polygon points="442.75,126.5 506,126.5 506,189.75" fill="#5d8798"/><rect x="506" y="126.5" width="63.25" height="63.25" fill="#ffffff"/><rect x="506" y="126.5" width="31.63" height="31.63" fill="#b4c7cf"/><circle cx="521.815" cy="142.315" r="15.815" fill="#dfe7eb"/><rect x="537.63" y="126.5" width="31.63" height="31.63" fill="#86d4cd"/><rect x="537.63" y="126.5" width="31.63" height="31.63" fill="#aae1dc"/><rect x="506" y="158.13" width="31.63" height="31.63" fill="#3e7085"/><circle cx="521.815" cy="173.945" r="15.815" fill="#8aa8b5"/><rect x="537.63" y="158.13" width="31.63" height="31.63" fill="#54c2b9"/><rect x="537.63" y="158.13" width="31.63" height="31.63" fill="#f3fbfa"/><rect x="569.25" y="126.5" width="63.25" height="63.25" fill="#ffffff"/><rect x="569.25" y="126.5" width="31.63" height="31.63" fill="#b4e4e0"/><circle cx="585.065" cy="142.315" r="15.815" fill="#85d3cd"/><rect x="600.88" y="126.5" width="31.63" height="31.63" fill="#96b1bd"/><rect x="600.88" y="126.5" width="31.63" height="31.63" fill="#aac0c9"/><rect x="569.25" y="158.13" width="31.63" height="31.63" fill="#a6dfdb"/><circle cx="585.065" cy="173.945" r="15.815" fill="#f6f9fa"/><rect x="600.88" y="158.13" width="31.63" height="31.63" fill="#7397a6"/><rect x="600.88" y="158.13" width="31.63" height="31.63" fill="#285f77"/><rect x="632.5" y="126.5" width="63.25" height="63.25" fill="#9ddcd7"/><polygon points="632.5,126.5 695.75,126.5 695.75,189.75" fill="#83d3cc"/><rect x="695.75" y="126.5" width="63.25" height="63.25" fill="#5f889a"/><path d="M 695.75 189.75 A 63.25 63.25 0 0 1  759 126.5 L 759 189.75L695.75 189.75" fill="#adc2cb"/><rect x="0" y="189.75" width="63.25" height="63.25" fill="#ffffff"/><rect x="0" y="189.75" width="31.63" height="31.63" fill="#a4bcc6"/><polygon points="31.63,189.75 31.63,221.38 0,221.38" fill="#7bd0c9"/><rect x="31.63" y="189.75" width="31.63" height="31.63" fill="#52c1b8"/><polygon points="31.63,189.75 63.26,221.38 31.63,221.38" fill="#8bd5cf"/><rect x="0" y="221.38" width="31.63" height="31.63" fill="#82d2cc"/><polygon points="0,221.38 31.63,221.38 0,253.01" fill="#225b73"/><rect x="31.63" y="221.38" width="31.63" height="31.63" fill="#9ab4bf"/><polygon points="31.63,221.38 63.26,221.38 63.26,253.01" fill="#a0ddd8"/><rect x="63.25" y="189.75" width="63.25" height="63.25" fill="#ffffff"/><rect x="63.25" y="189.75" width="31.63" height="31.63" fill="#9edcd7"/><polygon points="94.88,189.75 94.88,221.38 63.25,221.38" fill="#daf2f0"/><rect x="94.88" y="189.75" width="31.63" height="31.63" fill="#4ec0b6"/><polygon points="94.88,189.75 126.50999999999999,221.38 94.88,221.38" fill="#7d9eac"/><rect x="63.25" y="221.38" width="31.63" height="31.63" fill="#83d3cc"/><polygon points="63.25,221.38 94.88,221.38 94.88,253.01" fill="#7fa0ae"/><rect x="94.88" y="221.38" width="31.63" height="31.63" fill="#6acac2"/><polygon points="94.88,221.38 126.50999999999999,221.38 94.88,253.01" fill="#e3f5f3"/><rect x="126.5" y="189.75" width="63.25" height="63.25" fill="#ffffff"/><rect x="126.5" y="189.75" width="31.63" height="31.63" fill="#46768a"/><path d="M 126.5 221.38 A 31.63 31.63 0 0 1 158.13 189.75 L 158.13 197.6575 A 23.7225 23.7225 0 0 0 134.4075 221.38" fill="#e1e9ec"/><rect x="158.13" y="189.75" width="31.63" height="31.63" fill="#58c3bb"/><path d="M 158.13 189.75 A 31.63 31.63 0 0 1 189.76 221.38 L 181.8525 221.38 A 23.7225 23.7225 0 0 0 158.13 197.6575" fill="#4f7d90"/><rect x="126.5" y="221.38" width="31.63" height="31.63" fill="#e7edf0"/><path d="M 126.5 221.38 A 31.63 31.63 0 0 0 158.13 253.01 L 158.13 245.1025 A 23.7225 23.7225 0 0 1 134.4075 221.38" fill="#adc2cb"/><rect x="158.13" y="221.38" width="31.63" height="31.63" fill="#74cdc6"/><path d="M 158.13 253.01 A 31.63 31.63 0 0 0 189.76 221.38 L 181.8525 221.38 A 23.7225 23.7225 0 0 1 158.13 245.1025" fill="#eef9f8"/><rect x="189.75" y="189.75" width="63.25" height="63.25" fill="#dcf3f1"/><rect x="189.75" y="189.75" width="63.25" height="63.25" fill="#95d9d3"/><rect x="253" y="189.75" width="63.25" height="63.25" fill="#8daab7"/><path d="M 253 189.75 A 63.25 63.25 0 0 1  316.25 253 L 253 189.75 A 63.25 63.25 0 0 0 316.25 253" fill="#6ccbc3"/><rect x="316.25" y="189.75" width="63.25" height="63.25" fill="#76cec7"/><polygon points="316.25,189.75 379.5,253 316.25,253" fill="#6acac2"/><rect x="379.5" y="189.75" width="63.25" height="63.25" fill="#ffffff"/><rect x="379.5" y="189.75" width="31.63" height="31.63" fill="#3a6d82"/><polygon points="411.13,189.75 411.13,221.38 379.5,221.38" fill="#5ac4bb"/><rect x="411.13" y="189.75" width="31.63" height="31.63" fill="#b5e5e1"/><polygon points="411.13,189.75 442.76,221.38 411.13,221.38" fill="#c6eae7"/><rect x="379.5" y="221.38" width="31.63" height="31.63" fill="#baccd3"/><polygon points="379.5,221.38 411.13,221.38 411.13,253.01" fill="#8daab7"/><rect x="411.13" y="221.38" width="31.63" height="31.63" fill="#4f7c8f"/><polygon points="411.13,221.38 442.76,221.38 411.13,253.01" fill="#6c92a2"/><rect x="442.75" y="189.75" width="63.25" height="63.25" fill="#ffffff"/><rect x="442.75" y="189.75" width="31.63" height="31.63" fill="#94b0bb"/><path d="M 442.75 189.75 A 31.63 31.63 0 0 1 474.38 221.38 L 442.75 221.38L442.75 189.75" fill="#e4f5f4"/><rect x="474.38" y="189.75" width="31.63" height="31.63" fill="#dfe8eb"/><path d="M 474.38 221.38 A 31.63 31.63 0 0 1  506.01 189.75 L 506.01 221.38L474.38 221.38" fill="#b6e5e1"/><rect x="442.75" y="221.38" width="31.63" height="31.63" fill="#f6fcfb"/><path d="M 442.75 253.01 A 31.63 31.63 0 0 0 474.38 221.38 L 442.75 221.38L442.75 253.01" fill="#f0f4f5"/><rect x="474.38" y="221.38" width="31.63" height="31.63" fill="#f7fcfc"/><path d="M 474.38 221.38 A 31.63 31.63 0 0 0 506.01 253.01 L 506.01 221.38L474.38 221.38" fill="#cedbe0"/><rect x="506" y="189.75" width="63.25" height="63.25" fill="#87a6b3"/><path d="M 506 253 A 63.25 63.25 0 0 1  569.25 189.75 L 569.25 253L506 253" fill="#c3e9e6"/><rect x="569.25" y="189.75" width="63.25" height="63.25" fill="#b2c6ce"/><rect x="569.25" y="189.75" width="63.25" height="63.25" fill="#407186"/><rect x="632.5" y="189.75" width="63.25" height="63.25" fill="#7397a6"/><path d="M 632.5 189.75 A 63.25 63.25 0 0 1 695.75 253 L 632.5 253L632.5 189.75" fill="#95b0bc"/><rect x="695.75" y="189.75" width="63.25" height="63.25" fill="#87d4ce"/><rect x="695.75" y="189.75" width="63.25" height="63.25" fill="#91adb9"/><rect x="0" y="253" width="63.25" height="63.25" fill="#ffffff"/><rect x="0" y="253" width="31.63" height="31.63" fill="#d0eeec"/><polygon points="31.63,253 31.63,284.63 0,284.63" fill="#396c82"/><rect x="31.63" y="253" width="31.63" height="31.63" fill="#8eabb7"/><polygon points="31.63,253 63.26,284.63 31.63,284.63" fill="#d6f0ee"/><rect x="0" y="284.63" width="31.63" height="31.63" fill="#dde6e9"/><polygon points="0,284.63 31.63,284.63 0,316.26" fill="#9bdbd6"/><rect x="31.63" y="284.63" width="31.63" height="31.63" fill="#9bdbd6"/><polygon points="31.63,284.63 63.26,284.63 63.26,316.26" fill="#5d8798"/><rect x="63.25" y="253" width="63.25" height="63.25" fill="#49788b"/><polygon points="63.25,253 126.5,316.25 63.25,316.25" fill="#7acfc8"/><rect x="126.5" y="253" width="63.25" height="63.25" fill="#ffffff"/><rect x="126.5" y="253" width="31.63" height="31.63" fill="#cad8de"/><polygon points="158.13,253 158.13,284.63 126.5,284.63" fill="#9adbd6"/><rect x="158.13" y="253" width="31.63" height="31.63" fill="#e9f7f6"/><polygon points="158.13,253 189.76,284.63 158.13,284.63" fill="#6ccac3"/><rect x="126.5" y="284.63" width="31.63" height="31.63" fill="#50c0b7"/><polygon points="126.5,284.63 158.13,284.63 126.5,316.26" fill="#83a3b1"/><rect x="158.13" y="284.63" width="31.63" height="31.63" fill="#daf2f0"/><polygon points="158.13,284.63 189.76,284.63 189.76,316.26" fill="#89d5cf"/><rect x="189.75" y="253" width="63.25" height="63.25" fill="#47778b"/><polygon points="189.75,253 253,316.25 189.75,316.25" fill="#668d9e"/><rect x="253" y="253" width="63.25" height="63.25" fill="#ffffff"/><rect x="253" y="253" width="31.63" height="31.63" fill="#e0f4f2"/><path d="M 253 284.63 A 31.63 31.63 0 0 1 284.63 253 L 284.63 260.9075 A 23.7225 23.7225 0 0 0 260.9075 284.63" fill="#bfd0d7"/><rect x="284.63" y="253" width="31.63" height="31.63" fill="#5ac4bb"/><path d="M 284.63 253 A 31.63 31.63 0 0 1 316.26 284.63 L 308.3525 284.63 A 23.7225 23.7225 0 0 0 284.63 260.9075" fill="#5ac4bb"/><rect x="253" y="284.63" width="31.63" height="31.63" fill="#c3eae6"/><path d="M 253 284.63 A 31.63 31.63 0 0 0 284.63 316.26 L 284.63 308.3525 A 23.7225 23.7225 0 0 1 260.9075 284.63" fill="#e7f7f5"/><rect x="284.63" y="284.63" width="31.63" height="31.63" fill="#91d8d2"/><path d="M 284.63 316.26 A 31.63 31.63 0 0 0 316.26 284.63 L 308.3525 284.63 A 23.7225 23.7225 0 0 1 284.63 308.3525" fill="#a8e0db"/><rect x="316.25" y="253" width="63.25" height="63.25" fill="#f6f8f9"/><path d="M 316.25 253 A 63.25 63.25 0 0 1  379.5 316.25 L 316.25 253 A 63.25 63.25 0 0 0 379.5 316.25" fill="#c9ece9"/><rect x="379.5" y="253" width="63.25" height="63.25" fill="#b2e3df"/><path d="M 379.5 253 A 63.25 63.25 0 0 1 442.75 316.25 L 379.5 316.25L379.5 253" fill="#53c1b8"/><rect x="442.75" y="253" width="63.25" height="63.25" fill="#ffffff"/><rect x="442.75" y="253" width="31.63" height="31.63" fill="#9ab4bf"/><path d="M 442.75 284.63 A 31.63 31.63 0 0 1 474.38 253 L 474.38 260.9075 A 23.7225 23.7225 0 0 0 450.6575 284.63" fill="#98dad5"/><rect x="474.38" y="253" width="31.63" height="31.63" fill="#6acac2"/><path d="M 474.38 253 A 31.63 31.63 0 0 1 506.01 284.63 L 498.1025 284.63 A 23.7225 23.7225 0 0 0 474.38 260.9075" fill="#34687e"/><rect x="442.75" y="284.63" width="31.63" height="31.63" fill="#57c3ba"/><path d="M 442.75 284.63 A 31.63 31.63 0 0 0 474.38 316.26 L 474.38 308.3525 A 23.7225 23.7225 0 0 1 450.6575 284.63" fill="#53c1b8"/><rect x="474.38" y="284.63" width="31.63" height="31.63" fill="#dcf3f1"/><path d="M 474.38 316.26 A 31.63 31.63 0 0 0 506.01 284.63 L 498.1025 284.63 A 23.7225 23.7225 0 0 1 474.38 308.3525" fill="#2a6178"/><rect x="506" y="253" width="63.25" height="63.25" fill="#ffffff"/><rect x="506" y="253" width="31.63" height="31.63" fill="#8ba9b5"/><path d="M 506 284.63 A 31.63 31.63 0 0 1 537.63 253 L 537.63 260.9075 A 23.7225 23.7225 0 0 0 513.9075 284.63" fill="#88a7b4"/><rect x="537.63" y="253" width="31.63" height="31.63" fill="#a7bdc7"/><path d="M 537.63 253 A 31.63 31.63 0 0 1 569.26 284.63 L 561.3525 284.63 A 23.7225 23.7225 0 0 0 537.63 260.9075" fill="#f3fbfa"/><rect x="506" y="284.63" width="31.63" height="31.63" fill="#457589"/><path d="M 506 284.63 A 31.63 31.63 0 0 0 537.63 316.26 L 537.63 308.3525 A 23.7225 23.7225 0 0 1 513.9075 284.63" fill="#9ddcd7"/><rect x="537.63" y="284.63" width="31.63" height="31.63" fill="#42bbb2"/><path d="M 537.63 316.26 A 31.63 31.63 0 0 0 569.26 284.63 L 561.3525 284.63 A 23.7225 23.7225 0 0 1 537.63 308.3525" fill="#f4fbfb"/><rect x="569.25" y="253" width="63.25" height="63.25" fill="#ffffff"/><rect x="569.25" y="253" width="31.63" height="31.63" fill="#cbd8de"/><path d="M 569.25 253 A 31.63 31.63 0 0 0 600.88 284.63 L 600.88 253L569.25 253" fill="#95b0bc"/><rect x="600.88" y="253" width="31.63" height="31.63" fill="#a1b9c3"/><path d="M 600.88 284.63 A 31.63 31.63 0 0 0 632.51 253 L 600.88 253L600.88 284.63" fill="#f0f4f5"/><rect x="569.25" y="284.63" width="31.63" height="31.63" fill="#447489"/><path d="M 569.25 316.26 A 31.63 31.63 0 0 1  600.88 284.63 L 600.88 316.26L569.25 316.26" fill="#d1dde2"/><rect x="600.88" y="284.63" width="31.63" height="31.63" fill="#c0e8e5"/><path d="M 600.88 284.63 A 31.63 31.63 0 0 1 632.51 316.26 L 600.88 316.26L600.88 284.63" fill="#7699a8"/><rect x="632.5" y="253" width="63.25" height="63.25" fill="#ffffff"/><rect x="632.5" y="253" width="31.63" height="31.63" fill="#7acfc8"/><path d="M 632.5 284.63 A 31.63 31.63 0 0 0 664.13 253 L 632.5 253L632.5 284.63" fill="#baccd3"/><rect x="664.13" y="253" width="31.63" height="31.63" fill="#d6e1e5"/><path d="M 664.13 253 A 31.63 31.63 0 0 0 695.76 284.63 L 695.76 253L664.13 253" fill="#72cdc5"/><rect x="632.5" y="284.63" width="31.63" height="31.63" fill="#32677d"/><path d="M 632.5 284.63 A 31.63 31.63 0 0 1 664.13 316.26 L 632.5 316.26L632.5 284.63" fill="#e4f5f4"/><rect x="664.13" y="284.63" width="31.63" height="31.63" fill="#3d6f84"/><path d="M 664.13 316.26 A 31.63 31.63 0 0 1  695.76 284.63 L 695.76 316.26L664.13 316.26" fill="#8cd6d0"/><rect x="695.75" y="253" width="63.25" height="63.25" fill="#ffffff"/><rect x="695.75" y="253" width="31.63" height="31.63" fill="#5f8899"/><path d="M 695.75 284.63 A 31.63 31.63 0 0 1 727.38 253 L 727.38 260.9075 A 23.7225 23.7225 0 0 0 703.6575 284.63" fill="#9db6c1"/><rect x="727.38" y="253" width="31.63" height="31.63" fill="#6fccc4"/><path d="M 727.38 253 A 31.63 31.63 0 0 1 759.01 284.63 L 751.1025 284.63 A 23.7225 23.7225 0 0 0 727.38 260.9075" fill="#c7d5db"/><rect x="695.75" y="284.63" width="31.63" height="31.63" fill="#d5e0e4"/><path d="M 695.75 284.63 A 31.63 31.63 0 0 0 727.38 316.26 L 727.38 308.3525 A 23.7225 23.7225 0 0 1 703.6575 284.63" fill="#a0ddd8"/><rect x="727.38" y="284.63" width="31.63" height="31.63" fill="#265e75"/><path d="M 727.38 316.26 A 31.63 31.63 0 0 0 759.01 284.63 L 751.1025 284.63 A 23.7225 23.7225 0 0 1 727.38 308.3525" fill="#bbe7e3"/><rect x="0" y="316.25" width="63.25" height="63.25" fill="#ffffff"/><rect x="0" y="316.25" width="31.63" height="31.63" fill="#80d2cb"/><polygon points="31.63,316.25 31.63,347.88 0,347.88" fill="#668e9e"/><rect x="31.63" y="316.25" width="31.63" height="31.63" fill="#6b91a1"/><polygon points="31.63,316.25 63.26,316.25 31.63,347.88" fill="#7ea0ae"/><rect x="0" y="347.88" width="31.63" height="31.63" fill="#9bdbd6"/><polygon points="0,347.88 31.63,347.88 31.63,379.51" fill="#eaf8f6"/><rect x="31.63" y="347.88" width="31.63" height="31.63" fill="#8ad5cf"/><polygon points="31.63,347.88 63.26,379.51 31.63,379.51" fill="#98b2be"/><rect x="63.25" y="316.25" width="63.25" height="63.25" fill="#ffffff"/><rect x="63.25" y="316.25" width="31.63" height="31.63" fill="#51c1b8"/><circle cx="79.065" cy="332.065" r="15.815" fill="#bdced5"/><rect x="94.88" y="316.25" width="31.63" height="31.63" fill="#eef2f4"/><rect x="94.88" y="316.25" width="31.63" height="31.63" fill="#41bbb1"/><rect x="63.25" y="347.88" width="31.63" height="31.63" fill="#91adb9"/><circle cx="79.065" cy="363.695" r="15.815" fill="#7397a6"/><rect x="94.88" y="347.88" width="31.63" height="31.63" fill="#d2dee3"/><rect x="94.88" y="347.88" width="31.63" height="31.63" fill="#c6ebe8"/><rect x="126.5" y="316.25" width="63.25" height="63.25" fill="#41bbb1"/><rect x="126.5" y="316.25" width="63.25" height="63.25" fill="#a2ded9"/><rect x="189.75" y="316.25" width="63.25" height="63.25" fill="#fbfefe"/><polygon points="189.75,316.25 253,316.25 253,379.5" fill="#acc2cb"/><rect x="253" y="316.25" width="63.25" height="63.25" fill="#85a4b1"/><polygon points="316.25,316.25 316.25,379.5 253,379.5" fill="#c3d2d9"/><rect x="316.25" y="316.25" width="63.25" height="63.25" fill="#ffffff"/><rect x="316.25" y="316.25" width="31.63" height="31.63" fill="#4bbeb5"/><path d="M 316.25 347.88 A 31.63 31.63 0 0 1 347.88 316.25 L 347.88 324.1575 A 23.7225 23.7225 0 0 0 324.1575 347.88" fill="#4e7b8f"/><rect x="347.88" y="316.25" width="31.63" height="31.63" fill="#fafdfd"/><path d="M 347.88 316.25 A 31.63 31.63 0 0 1 379.51 347.88 L 371.6025 347.88 A 23.7225 23.7225 0 0 0 347.88 324.1575" fill="#9adbd5"/><rect x="316.25" y="347.88" width="31.63" height="31.63" fill="#50c1b7"/><path d="M 316.25 347.88 A 31.63 31.63 0 0 0 347.88 379.51 L 347.88 371.6025 A 23.7225 23.7225 0 0 1 324.1575 347.88" fill="#b4e4e0"/><rect x="347.88" y="347.88" width="31.63" height="31.63" fill="#eaf0f2"/><path d="M 347.88 379.51 A 31.63 31.63 0 0 0 379.51 347.88 L 371.6025 347.88 A 23.7225 23.7225 0 0 1 347.88 371.6025" fill="#f0faf9"/><rect x="379.5" y="316.25" width="63.25" height="63.25" fill="#ffffff"/><rect x="379.5" y="316.25" width="31.63" height="31.63" fill="#d8e2e6"/><polygon points="411.13,316.25 411.13,347.88 379.5,347.88" fill="#71ccc5"/><rect x="411.13" y="316.25" width="31.63" height="31.63" fill="#4e7c8f"/><polygon points="411.13,316.25 442.76,347.88 411.13,347.88" fill="#64c7bf"/><rect x="379.5" y="347.88" width="31.63" height="31.63" fill="#3e7085"/><polygon points="379.5,347.88 411.13,347.88 411.13,379.51" fill="#d4dfe4"/><rect x="411.13" y="347.88" width="31.63" height="31.63" fill="#b6e5e1"/><polygon points="411.13,347.88 442.76,347.88 411.13,379.51" fill="#598496"/><rect x="442.75" y="316.25" width="63.25" height="63.25" fill="#ffffff"/><rect x="442.75" y="316.25" width="31.63" height="31.63" fill="#e6f6f5"/><polygon points="474.38,316.25 474.38,347.88 442.75,347.88" fill="#c8ebe9"/><rect x="474.38" y="316.25" width="31.63" height="31.63" fill="#8eabb8"/><polygon points="474.38,316.25 506.01,347.88 474.38,347.88" fill="#7c9eac"/><rect x="442.75" y="347.88" width="31.63" height="31.63" fill="#8eabb8"/><polygon points="442.75,347.88 474.38,347.88 442.75,379.51" fill="#91adb9"/><rect x="474.38" y="347.88" width="31.63" height="31.63" fill="#7fd1ca"/><polygon points="474.38,347.88 506.01,347.88 506.01,379.51" fill="#47768a"/><rect x="506" y="316.25" width="63.25" height="63.25" fill="#53c2b8"/><polygon points="569.25,316.25 569.25,379.5 506,379.5" fill="#a9bfc9"/><rect x="569.25" y="316.25" width="63.25" height="63.25" fill="#ffffff"/><rect x="569.25" y="316.25" width="31.63" height="31.63" fill="#82d2cc"/><path d="M 569.25 316.25 A 31.63 31.63 0 0 1 600.88 347.88 L 569.25 347.88L569.25 316.25" fill="#b1c5ce"/><rect x="600.88" y="316.25" width="31.63" height="31.63" fill="#f0f4f5"/><path d="M 600.88 347.88 A 31.63 31.63 0 0 1  632.51 316.25 L 632.51 347.88L600.88 347.88" fill="#7196a5"/><rect x="569.25" y="347.88" width="31.63" height="31.63" fill="#e7f6f5"/><path d="M 569.25 379.51 A 31.63 31.63 0 0 0 600.88 347.88 L 569.25 347.88L569.25 379.51" fill="#e4f5f4"/><rect x="600.88" y="347.88" width="31.63" height="31.63" fill="#ade2dd"/><path d="M 600.88 347.88 A 31.63 31.63 0 0 0 632.51 379.51 L 632.51 347.88L600.88 347.88" fill="#a4ded9"/><rect x="632.5" y="316.25" width="63.25" height="63.25" fill="#f1faf9"/><rect x="632.5" y="316.25" width="63.25" height="63.25" fill="#d5f0ee"/><rect x="695.75" y="316.25" width="63.25" height="63.25" fill="#ddf3f1"/><path d="M 695.75 379.5 A 63.25 63.25 0 0 1  759 316.25 L 695.75 379.5 A 63.25 63.25 0 0 0 759 316.25" fill="#76cec7"/><rect x="0" y="379.5" width="63.25" height="63.25" fill="#ffffff"/><rect x="0" y="379.5" width="31.63" height="31.63" fill="#66c8c0"/><path d="M 0 379.5 A 31.63 31.63 0 0 1 31.63 411.13 L 0 411.13L0 379.5" fill="#ccedea"/><rect x="31.63" y="379.5" width="31.63" height="31.63" fill="#c6d5db"/><path d="M 31.63 411.13 A 31.63 31.63 0 0 1  63.26 379.5 L 63.26 411.13L31.63 411.13" fill="#d2dde2"/><rect x="0" y="411.13" width="31.63" height="31.63" fill="#568294"/><path d="M 0 442.76 A 31.63 31.63 0 0 0 31.63 411.13 L 0 411.13L0 442.76" fill="#aee2de"/><rect x="31.63" y="411.13" width="31.63" height="31.63" fill="#66c8c0"/><path d="M 31.63 411.13 A 31.63 31.63 0 0 0 63.26 442.76 L 63.26 411.13L31.63 411.13" fill="#e3eaed"/><rect x="63.25" y="379.5" width="63.25" height="63.25" fill="#70ccc4"/><rect x="63.25" y="379.5" width="63.25" height="63.25" fill="#cedbe0"/><rect x="126.5" y="379.5" width="63.25" height="63.25" fill="#fdfdfe"/><polygon points="126.5,379.5 189.75,442.75 126.5,442.75" fill="#52c1b8"/><rect x="189.75" y="379.5" width="63.25" height="63.25" fill="#ffffff"/><rect x="189.75" y="379.5" width="31.63" height="31.63" fill="#f7fcfc"/><path d="M 189.75 411.13 A 31.63 31.63 0 0 0 221.38 379.5 L 189.75 379.5L189.75 411.13" fill="#feffff"/><rect x="221.38" y="379.5" width="31.63" height="31.63" fill="#47bdb3"/><path d="M 221.38 379.5 A 31.63 31.63 0 0 0 253.01 411.13 L 253.01 379.5L221.38 379.5" fill="#2e647a"/><rect x="189.75" y="411.13" width="31.63" height="31.63" fill="#e6f6f5"/><path d="M 189.75 411.13 A 31.63 31.63 0 0 1 221.38 442.76 L 189.75 442.76L189.75 411.13" fill="#5f889a"/><rect x="221.38" y="411.13" width="31.63" height="31.63" fill="#63c7bf"/><path d="M 221.38 442.76 A 31.63 31.63 0 0 1  253.01 411.13 L 253.01 442.76L221.38 442.76" fill="#6fcbc4"/><rect x="253" y="379.5" width="63.25" height="63.25" fill="#ffffff"/><rect x="253" y="379.5" width="31.63" height="31.63" fill="#70ccc4"/><polygon points="284.63,379.5 284.63,411.13 253,411.13" fill="#93afba"/><rect x="284.63" y="379.5" width="31.63" height="31.63" fill="#d5e0e4"/><polygon points="284.63,379.5 316.26,411.13 284.63,411.13" fill="#fafdfd"/><rect x="253" y="411.13" width="31.63" height="31.63" fill="#69c9c1"/><polygon points="253,411.13 284.63,411.13 284.63,442.76" fill="#87a6b3"/><rect x="284.63" y="411.13" width="31.63" height="31.63" fill="#e2e9ec"/><polygon points="284.63,411.13 316.26,411.13 284.63,442.76" fill="#598496"/><rect x="316.25" y="379.5" width="63.25" height="63.25" fill="#def3f1"/><path d="M 316.25 379.5 A 63.25 63.25 0 0 1 379.5 442.75 L 316.25 442.75L316.25 379.5" fill="#cddadf"/><rect x="379.5" y="379.5" width="63.25" height="63.25" fill="#42bbb1"/><path d="M 379.5 379.5 A 63.25 63.25 0 0 1  442.75 442.75 L 379.5 379.5 A 63.25 63.25 0 0 0 442.75 442.75" fill="#f5f7f9"/><rect x="442.75" y="379.5" width="63.25" height="63.25" fill="#ffffff"/><rect x="442.75" y="379.5" width="31.63" height="31.63" fill="#658c9d"/><path d="M 442.75 411.13 A 31.63 31.63 0 0 1  474.38 379.5 L 474.38 411.13L442.75 411.13" fill="#8ed7d1"/><rect x="474.38" y="379.5" width="31.63" height="31.63" fill="#f4f6f8"/><path d="M 474.38 379.5 A 31.63 31.63 0 0 1 506.01 411.13 L 474.38 411.13L474.38 379.5" fill="#d4f0ed"/><rect x="442.75" y="411.13" width="31.63" height="31.63" fill="#93d8d3"/><path d="M 442.75 411.13 A 31.63 31.63 0 0 0 474.38 442.76 L 474.38 411.13L442.75 411.13" fill="#fafbfc"/><rect x="474.38" y="411.13" width="31.63" height="31.63" fill="#265e76"/><path d="M 474.38 442.76 A 31.63 31.63 0 0 0 506.01 411.13 L 474.38 411.13L474.38 442.76" fill="#90adb9"/><rect x="506" y="379.5" width="63.25" height="63.25" fill="#5b8697"/><rect x="506" y="379.5" width="63.25" height="63.25" fill="#86d4cd"/><rect x="569.25" y="379.5" width="63.25" height="63.25" fill="#b9cbd3"/><rect x="569.25" y="379.5" width="63.25" height="63.25" fill="#4dbfb6"/><rect x="632.5" y="379.5" width="63.25" height="63.25" fill="#ffffff"/><rect x="632.5" y="379.5" width="31.63" height="31.63" fill="#6c92a2"/><path d="M 632.5 379.5 A 31.63 31.63 0 0 0 664.13 411.13 L 664.13 379.5L632.5 379.5" fill="#d1eeec"/><rect x="664.13" y="379.5" width="31.63" height="31.63" fill="#517e91"/><path d="M 664.13 411.13 A 31.63 31.63 0 0 0 695.76 379.5 L 664.13 379.5L664.13 411.13" fill="#c1d1d8"/><rect x="632.5" y="411.13" width="31.63" height="31.63" fill="#e9eff1"/><path d="M 632.5 442.76 A 31.63 31.63 0 0 1  664.13 411.13 L 664.13 442.76L632.5 442.76" fill="#265e75"/><rect x="664.13" y="411.13" width="31.63" height="31.63" fill="#97dad4"/><path d="M 664.13 411.13 A 31.63 31.63 0 0 1 695.76 442.76 L 664.13 442.76L664.13 411.13" fill="#4bbfb5"/><rect x="695.75" y="379.5" width="63.25" height="63.25" fill="#32677d"/><path d="M 695.75 442.75 A 63.25 63.25 0 0 1  759 379.5 L 695.75 442.75 A 63.25 63.25 0 0 0 759 379.5" fill="#698fa0"/><rect x="0" y="442.75" width="63.25" height="63.25" fill="#407186"/><rect x="0" y="442.75" width="63.25" height="63.25" fill="#b1c5cd"/><rect x="63.25" y="442.75" width="63.25" height="63.25" fill="#eaeff2"/><rect x="63.25" y="442.75" width="63.25" height="63.25" fill="#4abeb5"/><rect x="126.5" y="442.75" width="63.25" height="63.25" fill="#ffffff"/><rect x="126.5" y="442.75" width="31.63" height="31.63" fill="#9db6c1"/><path d="M 126.5 442.75 A 31.63 31.63 0 0 1 158.13 474.38 L 126.5 474.38L126.5 442.75" fill="#8fd7d1"/><rect x="158.13" y="442.75" width="31.63" height="31.63" fill="#d7e1e5"/><path d="M 158.13 474.38 A 31.63 31.63 0 0 1  189.76 442.75 L 189.76 474.38L158.13 474.38" fill="#8aa8b5"/><rect x="126.5" y="474.38" width="31.63" height="31.63" fill="#a6dfda"/><path d="M 126.5 506.01 A 31.63 31.63 0 0 0 158.13 474.38 L 126.5 474.38L126.5 506.01" fill="#43bcb2"/><rect x="158.13" y="474.38" width="31.63" height="31.63" fill="#87d4ce"/><path d="M 158.13 474.38 A 31.63 31.63 0 0 0 189.76 506.01 L 189.76 474.38L158.13 474.38" fill="#e4f5f4"/><rect x="189.75" y="442.75" width="63.25" height="63.25" fill="#a3bac4"/><polygon points="189.75,442.75 253,442.75 189.75,506" fill="#69c9c1"/><rect x="253" y="442.75" width="63.25" height="63.25" fill="#ffffff"/><rect x="253" y="442.75" width="31.63" height="31.63" fill="#a6dfda"/><polygon points="284.63,442.75 284.63,474.38 253,474.38" fill="#bce7e4"/><rect x="284.63" y="442.75" width="31.63" height="31.63" fill="#bae6e3"/><polygon points="284.63,442.75 316.26,474.38 284.63,474.38" fill="#b4c7cf"/><rect x="253" y="474.38" width="31.63" height="31.63" fill="#437488"/><polygon points="253,474.38 284.63,474.38 284.63,506.01" fill="#c8ebe8"/><rect x="284.63" y="474.38" width="31.63" height="31.63" fill="#618a9b"/><polygon points="284.63,474.38 316.26,474.38 284.63,506.01" fill="#aee2de"/><rect x="316.25" y="442.75" width="63.25" height="63.25" fill="#dbf2f0"/><rect x="316.25" y="442.75" width="63.25" height="63.25" fill="#daf2f0"/><rect x="379.5" y="442.75" width="63.25" height="63.25" fill="#b4c8d0"/><rect x="379.5" y="442.75" width="63.25" height="63.25" fill="#7699a8"/><rect x="442.75" y="442.75" width="63.25" height="63.25" fill="#ffffff"/><rect x="442.75" y="442.75" width="31.63" height="31.63" fill="#becfd6"/><path d="M 442.75 474.38 A 31.63 31.63 0 0 1 474.38 442.75 L 474.38 450.6575 A 23.7225 23.7225 0 0 0 450.6575 474.38" fill="#49beb4"/><rect x="474.38" y="442.75" width="31.63" height="31.63" fill="#d1efec"/><path d="M 474.38 442.75 A 31.63 31.63 0 0 1 506.01 474.38 L 498.1025 474.38 A 23.7225 23.7225 0 0 0 474.38 450.6575" fill="#fefffe"/><rect x="442.75" y="474.38" width="31.63" height="31.63" fill="#9fddd8"/><path d="M 442.75 474.38 A 31.63 31.63 0 0 0 474.38 506.01 L 474.38 498.1025 A 23.7225 23.7225 0 0 1 450.6575 474.38" fill="#92aeba"/><rect x="474.38" y="474.38" width="31.63" height="31.63" fill="#56c2b9"/><path d="M 474.38 506.01 A 31.63 31.63 0 0 0 506.01 474.38 L 498.1025 474.38 A 23.7225 23.7225 0 0 1 474.38 498.1025" fill="#78cfc8"/><rect x="506" y="442.75" width="63.25" height="63.25" fill="#ffffff"/><rect x="506" y="442.75" width="31.63" height="31.63" fill="#4e7c8f"/><polygon points="537.63,442.75 537.63,474.38 506,474.38" fill="#6ecbc3"/><rect x="537.63" y="442.75" width="31.63" height="31.63" fill="#9ddcd7"/><polygon points="537.63,442.75 569.26,474.38 537.63,474.38" fill="#99b3be"/><rect x="506" y="474.38" width="31.63" height="31.63" fill="#7dd1ca"/><polygon points="506,474.38 537.63,474.38 537.63,506.01" fill="#2c637a"/><rect x="537.63" y="474.38" width="31.63" height="31.63" fill="#34687e"/><polygon points="537.63,474.38 569.26,474.38 537.63,506.01" fill="#abe1dc"/><rect x="569.25" y="442.75" width="63.25" height="63.25" fill="#ffffff"/><rect x="569.25" y="442.75" width="31.63" height="31.63" fill="#a3bbc5"/><path d="M 569.25 474.38 A 31.63 31.63 0 0 1 600.88 442.75 L 600.88 450.6575 A 23.7225 23.7225 0 0 0 577.1575 474.38" fill="#54c2b9"/><rect x="600.88" y="442.75" width="31.63" height="31.63" fill="#a1ddd8"/><path d="M 600.88 442.75 A 31.63 31.63 0 0 1 632.51 474.38 L 624.6025 474.38 A 23.7225 23.7225 0 0 0 600.88 450.6575" fill="#73cdc6"/><rect x="569.25" y="474.38" width="31.63" height="31.63" fill="#4dbfb6"/><path d="M 569.25 474.38 A 31.63 31.63 0 0 0 600.88 506.01 L 600.88 498.1025 A 23.7225 23.7225 0 0 1 577.1575 474.38" fill="#8aa8b5"/><rect x="600.88" y="474.38" width="31.63" height="31.63" fill="#96d9d4"/><path d="M 600.88 506.01 A 31.63 31.63 0 0 0 632.51 474.38 L 624.6025 474.38 A 23.7225 23.7225 0 0 1 600.88 498.1025" fill="#dae4e8"/><rect x="632.5" y="442.75" width="63.25" height="63.25" fill="#bbe7e3"/><path d="M 632.5 442.75 A 63.25 63.25 0 0 1 695.75 506 L 632.5 506L632.5 442.75" fill="#50c0b7"/><rect x="695.75" y="442.75" width="63.25" height="63.25" fill="#ffffff"/><rect x="695.75" y="442.75" width="31.63" height="31.63" fill="#aec3cc"/><polygon points="727.38,442.75 727.38,474.38 695.75,474.38" fill="#f1f5f6"/><rect x="727.38" y="442.75" width="31.63" height="31.63" fill="#70ccc4"/><polygon points="727.38,442.75 759.01,474.38 727.38,474.38" fill="#8bd5cf"/><rect x="695.75" y="474.38" width="31.63" height="31.63" fill="#578395"/><polygon points="695.75,474.38 727.38,474.38 695.75,506.01" fill="#e8f7f6"/><rect x="727.38" y="474.38" width="31.63" height="31.63" fill="#35697f"/><polygon points="727.38,474.38 759.01,474.38 759.01,506.01" fill="#789ba9"/></g></svg>