<?xml version="1.0" standalone="no"?><svg xmlns:xlink="http://www.w3.org/1999/xlink" xmlns="http://www.w3.org/2000/svg" viewBox="0 0 1000 166.66666666666666" preserveAspectRatio="xMaxYMax slice"><g transform="scale(0.9009009009009009)"><rect x="0" y="0" width="1110" height="185" fill="#ffffff"/><rect x="0" y="0" width="92.5" height="92.5" fill="#f2fafa"/><path d="M 0 0 A 92.5 92.5 0 0 0 92.5 92.5 L 92.5 0L0 0" fill="#7bd0c9"/><rect x="92.5" y="0" width="92.5" height="92.5" fill="#ffffff"/><rect x="92.5" y="0" width="46.25" height="46.25" fill="#9fb8c2"/><path d="M 92.5 0 A 46.25 46.25 0 0 0 138.75 46.25 L 138.75 0L92.5 0" fill="#d9f1ef"/><rect x="138.75" y="0" width="46.25" height="46.25" fill="#e9eff1"/><path d="M 138.75 46.25 A 46.25 46.25 0 0 1  185 0 L 138.75 46.25 A 46.25 46.25 0 0 0 185 0" fill="#a9e0dc"/><rect x="92.5" y="46.25" width="46.25" height="46.25" fill="#92d8d2"/><path d="M 92.5 92.5 A 46.25 46.25 0 0 0 138.75 46.25 L 92.5 46.25L92.5 92.5" fill="#4fc0b7"/><rect x="138.75" y="46.25" width="46.25" height="46.25" fill="#678e9e"/><path d="M 138.75 92.5 A 46.25 46.25 0 0 0 185 46.25 L 138.75 46.25L138.75 92.5" fill="#c3d2d9"/><rect x="185" y="0" width="92.5" height="92.5" fill="#ffffff"/><rect x="185" y="0" width="46.25" height="46.25" fill="#f9fbfb"/><path d="M 185 0 A 46.25 46.25 0 0 1 231.25 46.25 L 185 46.25L185 0" fill="#d6f0ee"/><rect x="231.25" y="0" width="46.25" height="46.25" fill="#bde8e4"/><path d="M 231.25 0 A 46.25 46.25 0 0 0 277.5 46.25 L 277.5 0L231.25 0" fill="#dbe4e8"/><rect x="185" y="46.25" width="46.25" height="46.25" fill="#eff3f5"/><path d="M 185 46.25 A 46.25 46.25 0 0 0 231.25 92.5 L 231.25 46.25L185 46.25" fill="#fdfdfe"/><rect x="231.25" y="46.25" width="46.25" height="46.25" fill="#275f76"/><path d="M 231.25 46.25 A 46.25 46.25 0 0 1 277.5 92.5 L 231.25 92.5L231.25 46.25" fill="#b0c4cd"/><rect x="277.5" y="0" width="92.5" height="92.5" fill="#7bd0c9"/><path d="M 277.5 0 A 92.5 92.5 0 0 1  370 92.5 L 277.5 0 A 92.5 92.5 0 0 0 370 92.5" fill="#598496"/><rect x="370" y="0" width="92.5" height="92.5" fill="#ffffff"/><rect x="370" y="0" width="46.25" height="46.25" fill="#60899a"/><path d="M 370 0 A 46.25 46.25 0 0 0 416.25 46.25 L 416.25 0L370 0" fill="#a6dfda"/><rect x="416.25" y="0" width="46.25" height="46.25" fill="#91adb9"/><path d="M 416.25 0 A 46.25 46.25 0 0 1 462.5 46.25 L 416.25 46.25L416.25 0" fill="#235c74"/><rect x="370" y="46.25" width="46.25" height="46.25" fill="#5bc4bc"/><path d="M 370 92.5 A 46.25 46.25 0 0 1  416.25 46.25 L 416.25 92.5L370 92.5" fill="#6fcbc4"/><rect x="416.25" y="46.25" width="46.25" height="46.25" fill="#bfe8e5"/><path d="M 416.25 92.5 A 46.25 46.25 0 0 0 462.5 46.25 L 416.25 46.25L416.25 92.5" fill="#fefefe"/><rect x="462.5" y="0" width="92.5" height="92.5" fill="#ffffff"/><rect x="462.5" y="0" width="46.25" height="46.25" fill="#92d8d2"/><path d="M 462.5 46.25 A 46.25 46.25 0 0 1  508.75 0 L 462.5 46.25 A 46.25 46.25 0 0 0 508.75 0" fill="#becfd6"/><rect x="508.75" y="0" width="46.25" height="46.25" fill="#82a2b0"/><path d="M 508.75 46.25 A 46.25 46.25 0 0 1  555 0 L 508.75 46.25 A 46.25 46.25 0 0 0 555 0" fill="#c6ebe8"/><rect x="462.5" y="46.25" width="46.25" height="46.25" fill="#7599a8"/><path d="M 462.5 46.25 A 46.25 46.25 0 0 0 508.75 92.5 L 508.75 46.25L462.5 46.25" fill="#cedae0"/><rect x="508.75" y="46.25" width="46.25" height="46.25" fill="#80d1cb"/><path d="M 508.75 46.25 A 46.25 46.25 0 0 1 555 92.5 L 508.75 92.5L508.75 46.25" fill="#92aeba"/><rect x="555" y="0" width="92.5" height="92.5" fill="#7397a6"/><path d="M 555 0 A 92.5 92.5 0 0 1  647.5 92.5 L 555 0 A 92.5 92.5 0 0 0 647.5 92.5" fill="#d4dfe4"/><rect x="647.5" y="0" width="92.5" height="92.5" fill="#ffffff"/><rect x="647.5" y="0" width="46.25" height="46.25" fill="#b8e6e2"/><path d="M 647.5 46.25 A 46.25 46.25 0 0 1  693.75 0 L 647.5 46.25 A 46.25 46.25 0 0 0 693.75 0" fill="#f2fafa"/><rect x="693.75" y="0" width="46.25" height="46.25" fill="#b6c9d1"/><path d="M 693.75 0 A 46.25 46.25 0 0 1 740 46.25 L 693.75 46.25L693.75 0" fill="#a4deda"/><rect x="647.5" y="46.25" width="46.25" height="46.25" fill="#90d7d1"/><path d="M 647.5 92.5 A 46.25 46.25 0 0 0 693.75 46.25 L 647.5 46.25L647.5 92.5" fill="#70ccc4"/><rect x="693.75" y="46.25" width="46.25" height="46.25" fill="#bae6e3"/><path d="M 693.75 92.5 A 46.25 46.25 0 0 1  740 46.25 L 740 92.5L693.75 92.5" fill="#b4e4e0"/><rect x="740" y="0" width="92.5" height="92.5" fill="#ffffff"/><rect x="740" y="0" width="46.25" height="46.25" fill="#a8bec8"/><path d="M 740 46.25 A 46.25 46.25 0 0 0 786.25 0 L 740 0L740 46.25" fill="#5ec5bd"/><rect x="786.25" y="0" width="46.25" height="46.25" fill="#71ccc5"/><path d="M 786.25 46.25 A 46.25 46.25 0 0 1  832.5 0 L 786.25 46.25 A 46.25 46.25 0 0 0 832.5 0" fill="#5cc5bc"/><rect x="740" y="46.25" width="46.25" height="46.25" fill="#86d4cd"/><path d="M 740 46.25 A 46.25 46.25 0 0 1 786.25 92.5 L 740 92.5L740 46.25" fill="#94d9d3"/><rect x="786.25" y="46.25" width="46.25" height="46.25" fill="#c4eae7"/><path d="M 786.25 46.25 A 46.25 46.25 0 0 0 832.5 92.5 L 832.5 46.25L786.25 46.25" fill="#d5e0e4"/><rect x="832.5" y="0" width="92.5" height="92.5" fill="#d4f0ed"/><path d="M 832.5 0 A 92.5 92.5 0 0 1 925 92.5 L 832.5 92.5L832.5 0" fill="#94d9d3"/><rect x="925" y="0" width="92.5" height="92.5" fill="#ffffff"/><rect x="925" y="0" width="46.25" height="46.25" fill="#628a9b"/><path d="M 925 46.25 A 46.25 46.25 0 0 1  971.25 0 L 925 46.25 A 46.25 46.25 0 0 0 971.25 0" fill="#49beb4"/><rect x="971.25" y="0" width="46.25" height="46.25" fill="#688f9f"/><path d="M 971.25 46.25 A 46.25 46.25 0 0 1  1017.5 0 L 1017.5 46.25L971.25 46.25" fill="#6ecbc4"/><rect x="925" y="46.25" width="46.25" height="46.25" fill="#2b6279"/><path d="M 925 92.5 A 46.25 46.25 0 0 0 971.25 46.25 L 925 46.25L925 92.5" fill="#376b80"/><rect x="971.25" y="46.25" width="46.25" height="46.25" fill="#7095a4"/><path d="M 971.25 92.5 A 46.25 46.25 0 0 1  1017.5 46.25 L 971.25 92.5 A 46.25 46.25 0 0 0 1017.5 46.25" fill="#7196a5"/><rect x="1017.5" y="0" width="92.5" height="92.5" fill="#598496"/><path d="M 1017.5 0 A 92.5 92.5 0 0 0 1110 92.5 L 1110 0L1017.5 0" fill="#b6c9d1"/><rect x="0" y="92.5" width="92.5" height="92.5" fill="#376a80"/><path d="M 0 92.5 A 92.5 92.5 0 0 0 92.5 185 L 92.5 92.5L0 92.5" fill="#99b3be"/><rect x="92.5" y="92.5" width="92.5" height="92.5" fill="#ffffff"/><rect x="92.5" y="92.5" width="46.25" height="46.25" fill="#548093"/><path d="M 92.5 138.75 A 46.25 46.25 0 0 1  138.75 92.5 L 138.75 138.75L92.5 138.75" fill="#cbecea"/><rect x="138.75" y="92.5" width="46.25" height="46.25" fill="#a1b9c4"/><path d="M 138.75 92.5 A 46.25 46.25 0 0 0 185 138.75 L 185 92.5L138.75 92.5" fill="#cddadf"/><rect x="92.5" y="138.75" width="46.25" height="46.25" fill="#c3d2d9"/><path d="M 92.5 138.75 A 46.25 46.25 0 0 0 138.75 185 L 138.75 138.75L92.5 138.75" fill="#e1e9ec"/><rect x="138.75" y="138.75" width="46.25" height="46.25" fill="#8ed6d1"/><path d="M 138.75 138.75 A 46.25 46.25 0 0 0 185 185 L 185 138.75L138.75 138.75" fill="#5ec5bd"/><rect x="185" y="92.5" width="92.5" height="92.5" fill="#638c9c"/><path d="M 185 185 A 92.5 92.5 0 0 0 277.5 92.5 L 185 92.5L185 185" fill="#78cfc8"/><rect x="277.5" y="92.5" width="92.5" height="92.5" fill="#ffffff"/><rect x="277.5" y="92.5" width="46.25" height="46.25" fill="#d3dee3"/><path d="M 277.5 92.5 A 46.25 46.25 0 0 1  323.75 138.75 L 277.5 92.5 A 46.25 46.25 0 0 0 323.75 138.75" fill="#e3f5f3"/><rect x="323.75" y="92.5" width="46.25" height="46.25" fill="#71ccc5"/><path d="M 323.75 138.75 A 46.25 46.25 0 0 0 370 92.5 L 323.75 92.5L323.75 138.75" fill="#275f76"/><rect x="277.5" y="138.75" width="46.25" height="46.25" fill="#46768a"/><path d="M 277.5 138.75 A 46.25 46.25 0 0 1  323.75 185 L 277.5 138.75 A 46.25 46.25 0 0 0 323.75 185" fill="#f8fafb"/><rect x="323.75" y="138.75" width="46.25" height="46.25" fill="#8caab6"/><path d="M 323.75 138.75 A 46.25 46.25 0 0 0 370 185 L 370 138.75L323.75 138.75" fill="#caece9"/><rect x="370" y="92.5" width="92.5" height="92.5" fill="#2c6279"/><path d="M 370 92.5 A 92.5 92.5 0 0 1 462.5 185 L 370 185L370 92.5" fill="#7397a6"/><rect x="462.5" y="92.5" width="92.5" height="92.5" fill="#e3eaed"/><path d="M 462.5 185 A 92.5 92.5 0 0 0 555 92.5 L 462.5 92.5L462.5 185" fill="#dcf3f1"/><rect x="555" y="92.5" width="92.5" height="92.5" fill="#47778b"/><path d="M 555 92.5 A 92.5 92.5 0 0 1 647.5 185 L 555 185L555 92.5" fill="#dde5e9"/><rect x="647.5" y="92.5" width="92.5" height="92.5" fill="#ffffff"/><rect x="647.5" y="92.5" width="46.25" height="46.25" fill="#e3f5f3"/><path d="M 647.5 138.75 A 46.25 46.25 0 0 1  693.75 92.5 L 693.75 138.75L647.5 138.75" fill="#dde5e9"/><rect x="693.75" y="92.5" width="46.25" height="46.25" fill="#baccd4"/><path d="M 693.75 138.75 A 46.25 46.25 0 0 0 740 92.5 L 693.75 92.5L693.75 138.75" fill="#b1c5ce"/><rect x="647.5" y="138.75" width="46.25" height="46.25" fill="#b8cbd2"/><path d="M 647.5 185 A 46.25 46.25 0 0 1  693.75 138.75 L 647.5 185 A 46.25 46.25 0 0 0 693.75 138.75" fill="#578294"/><rect x="693.75" y="138.75" width="46.25" height="46.25" fill="#c2d2d9"/><path d="M 693.75 138.75 A 46.25 46.25 0 0 1  740 185 L 693.75 138.75 A 46.25 46.25 0 0 0 740 185" fill="#5dc5bd"/><rect x="740" y="92.5" width="92.5" height="92.5" fill="#ffffff"/><rect x="740" y="92.5" width="46.25" height="46.25" fill="#c0e8e5"/><path d="M 740 92.5 A 46.25 46.25 0 0 0 786.25 138.75 L 786.25 92.5L740 92.5" fill="#a8bfc8"/><rect x="786.25" y="92.5" width="46.25" height="46.25" fill="#d4f0ed"/><path d="M 786.25 92.5 A 46.25 46.25 0 0 1 832.5 138.75 L 786.25 138.75L786.25 92.5" fill="#255d75"/><rect x="740" y="138.75" width="46.25" height="46.25" fill="#b1e3df"/><path d="M 740 138.75 A 46.25 46.25 0 0 1  786.25 185 L 740 138.75 A 46.25 46.25 0 0 0 786.25 185" fill="#a4bcc6"/><rect x="786.25" y="138.75" width="46.25" height="46.25" fill="#caece9"/><path d="M 786.25 185 A 46.25 46.25 0 0 1  832.5 138.75 L 832.5 185L786.25 185" fill="#dcf3f1"/><rect x="832.5" y="92.5" width="92.5" height="92.5" fill="#4fc0b7"/><path d="M 832.5 92.5 A 92.5 92.5 0 0 1 925 185 L 832.5 185L832.5 92.5" fill="#c0e9e5"/><rect x="925" y="92.5" width="92.5" height="92.5" fill="#4e7c8f"/><path d="M 925 92.5 A 92.5 92.5 0 0 1 1017.5 185 L 925 185L925 92.5" fill="#4c7a8d"/><rect x="1017.5" y="92.5" width="92.5" height="92.5" fill="#ffffff"/><rect x="1017.5" y="92.5" width="46.25" height="46.25" fill="#8ba9b5"/><path d="M 1017.5 92.5 A 46.25 46.25 0 0 1 1063.75 138.75 L 1017.5 138.75L1017.5 92.5" fill="#6a91a1"/><rect x="1063.75" y="92.5" width="46.25" height="46.25" fill="#96dad4"/><path d="M 1063.75 92.5 A 46.25 46.25 0 0 1 1110 138.75 L 1063.75 138.75L1063.75 92.5" fill="#f5fbfb"/><rect x="1017.5" y="138.75" width="46.25" height="46.25" fill="#abe1dc"/><path d="M 1017.5 138.75 A 46.25 46.25 0 0 0 1063.75 185 L 1063.75 138.75L1017.5 138.75" fill="#245c74"/><rect x="1063.75" y="138.75" width="46.25" height="46.25" fill="#69c9c1"/><path d="M 1063.75 138.75 A 46.25 46.25 0 0 1  1110 185 L 1063.75 138.75 A 46.25 46.25 0 0 0 1110 185" fill="#61c6be"/></g></svg>