<svg id="_0001_analysis" xmlns="http://www.w3.org/2000/svg" xmlns:xlink="http://www.w3.org/1999/xlink" viewBox="0 0 500 500" data-imageid="rocket-launch-59" imageName="Rocket Launch" class="illustrations_image" style="width: 165px;"><defs><style>.cls-1_rocket-launch-59{fill:url(#linear-gradient);}.cls-1_rocket-launch-59,.cls-2_rocket-launch-59,.cls-3_rocket-launch-59,.cls-4_rocket-launch-59,.cls-5_rocket-launch-59,.cls-6_rocket-launch-59,.cls-7_rocket-launch-59,.cls-8_rocket-launch-59,.cls-9_rocket-launch-59,.cls-10_rocket-launch-59,.cls-11_rocket-launch-59{stroke-width:0px;}.cls-2_rocket-launch-59{fill:url(#linear-gradient-4-rocket-launch-59);}.cls-3_rocket-launch-59{fill:url(#linear-gradient-2-rocket-launch-59);}.cls-4_rocket-launch-59{fill:url(#linear-gradient-3-rocket-launch-59);}.cls-5_rocket-launch-59{fill:url(#linear-gradient-8-rocket-launch-59);}.cls-6_rocket-launch-59{fill:url(#linear-gradient-9-rocket-launch-59);}.cls-7_rocket-launch-59{fill:url(#linear-gradient-7-rocket-launch-59);}.cls-8_rocket-launch-59{fill:url(#linear-gradient-5-rocket-launch-59);}.cls-9_rocket-launch-59{fill:url(#linear-gradient-6-rocket-launch-59);}.cls-10_rocket-launch-59{isolation:isolate;opacity:.24;}.cls-10_rocket-launch-59,.cls-11_rocket-launch-59{fill:#68e1fd;}</style><linearGradient id="linear-gradient-rocket-launch-59" x1="522.84" y1="-564.91" x2="508.39" y2="-590.41" gradientTransform="translate(-153.39 863.23) rotate(-9.18)" gradientUnits="userSpaceOnUse"><stop offset="0" stop-color="#231f20" stop-opacity="0"/><stop offset=".95" stop-color="#231f20"/></linearGradient><linearGradient id="linear-gradient-2-rocket-launch-59" x1="497.1" y1="-589.01" x2="516.06" y2="-589.01" gradientTransform="translate(-153.39 863.23) rotate(-9.18)" gradientUnits="userSpaceOnUse"><stop offset="0" stop-color="#231f20" stop-opacity="0"/><stop offset=".95" stop-color="#231f20"/></linearGradient><linearGradient id="linear-gradient-3-rocket-launch-59" x1="289.89" y1="164.62" x2="311.18" y2="198.5" gradientUnits="userSpaceOnUse"><stop offset=".02" stop-color="#fff" stop-opacity="0"/><stop offset=".32" stop-color="#fff" stop-opacity=".39"/><stop offset=".68" stop-color="#fff" stop-opacity=".68"/><stop offset="1" stop-color="#fff"/></linearGradient><linearGradient id="linear-gradient-4-rocket-launch-59" x1="236.78" y1="171.64" x2="259.15" y2="228.76" gradientUnits="userSpaceOnUse"><stop offset="0" stop-color="#231f20" stop-opacity="0"/><stop offset=".95" stop-color="#231f20"/></linearGradient><linearGradient id="linear-gradient-5-rocket-launch-59" x1="126.85" y1="-646.29" x2="379.21" y2="-646.29" gradientTransform="translate(-61.01 965.87)" xlink:href="#linear-gradient-3-rocket-launch-59"/><linearGradient id="linear-gradient-6-rocket-launch-59" x1="276.28" y1="-587.42" x2="173.27" y2="-763.26" gradientTransform="translate(-61.01 965.87)" xlink:href="#linear-gradient-3-rocket-launch-59"/><linearGradient id="linear-gradient-7-rocket-launch-59" x1="578.03" y1="-598.08" x2="575.27" y2="-626.2" gradientTransform="translate(-153.39 863.23) rotate(-9.18)" xlink:href="#linear-gradient-3-rocket-launch-59"/><linearGradient id="linear-gradient-8-rocket-launch-59" x1="456.76" y1="-640.4" x2="399.95" y2="-741" gradientTransform="translate(-61.01 965.87)" xlink:href="#linear-gradient-3-rocket-launch-59"/><linearGradient id="linear-gradient-9-rocket-launch-59" x1="134.82" y1="-726.27" x2="196.42" y2="-790.42" gradientTransform="translate(-61.01 965.87)" gradientUnits="userSpaceOnUse"><stop offset=".02" stop-color="#fff" stop-opacity="0"/><stop offset=".32" stop-color="#fff" stop-opacity=".39"/><stop offset=".66" stop-color="#fff" stop-opacity=".68"/><stop offset="1" stop-color="#fff"/></linearGradient></defs><path id="background_rocket-launch-59" class="cls-10_rocket-launch-59 targetColor" d="M436.72,433.28c-7.44,21.31-59.62,7.53-75.05,6.49-14.48-.98-28.97-1.71-43.47-2.18-39.79-1.33-79.66-.84-119.4,1.49-9.42.54-18.84,1.19-28.25,1.95-18.75,1.49-37.75,3.41-56.3.64-1.47-.22-2.95-.46-4.43-.75-16.9-3.24-33.59-11.45-43.98-24.83-1.9-2.44-3.58-5.05-5.01-7.8-9.9-19.11-6.56-42.16-11.21-63.16-4.15-18.75-14.56-35.47-20.95-53.59-23.92-67.71,11.58-141.99,79.29-165.91,2.28-.81,4.58-1.55,6.9-2.22,31.83-9.3,66.34-6.22,98.01-15.99,33.43-10.33,61.27-34.22,94.41-45.49,29.22-9.82,60.93-9.35,89.85,1.32,33.71,12.55,64.21,47.5,53.43,81.83-4.46,14.19-15.44,26.29-16.9,41.1-2.83,28.89,30.52,49.35,35.06,78.02,5.12,32.38-26.5,56.89-46.25,83.06-5.45,7.19-10.24,15.26-11.67,24.16-3.77,23.57,31.48,45.97,25.92,61.86Z" style="fill: rgb(34, 91, 115);"/><g id="rocket_rocket-launch-59"><path class="cls-11_rocket-launch-59 targetColor" d="M257.07,204.24s12.26,3.18,10.92,6.59c-1.35,3.41-6.99,6.89-14.82,10.92l.28,3.89s20.71-6.27,23.16-14.73c1.42-5.01.42-10.39-2.69-14.56l-16.84,7.88h-.01Z" style="fill: rgb(34, 91, 115);"/><path class="cls-1_rocket-launch-59" d="M257.07,204.24s12.26,3.18,10.92,6.59c-1.35,3.41-6.99,6.89-14.82,10.92l.28,3.89s20.71-6.27,23.16-14.73c1.42-5.01.42-10.39-2.69-14.56l-16.84,7.88h-.01Z"/><path class="cls-11_rocket-launch-59 targetColor" d="M253.87,191.21s-8.37,4.95-9.7,6.07-1.31,4.76,1.86,8.59c4.77,5.75,8.71,4.28,8.71,4.28l8.07-8.37-8.93-10.57h-.01Z" style="fill: rgb(34, 91, 115);"/><path class="cls-3_rocket-launch-59" d="M253.87,191.21s-8.37,4.95-9.7,6.07-1.31,4.76,1.86,8.59c4.77,5.75,8.71,4.28,8.71,4.28l8.07-8.37-8.93-10.57h-.01Z"/><path class="cls-11_rocket-launch-59 targetColor" d="M247.24,196.48c7.61-12.77,17.73-23.87,29.76-32.61,20.28-14.91,50.24-25.96,60.24-22.8,10,3.16-2.68,26.87-44.28,49.6-.89.47-6.85,3.76-7.78,4.16l-28.93,12.13s-5.43-.27-9.01-10.48Z" style="fill: rgb(34, 91, 115);"/><path class="cls-4_rocket-launch-59" d="M247.24,196.48c7.61-12.77,17.73-23.87,29.76-32.61,20.28-14.91,50.24-25.96,60.24-22.8,10,3.16-2.68,26.87-44.28,49.6-.89.47-6.85,3.76-7.78,4.16l-28.93,12.13s-5.43-.27-9.01-10.48Z"/><path class="cls-11_rocket-launch-59 targetColor" d="M264.1,174.99s-8.99-8.92-19.07-4.5-24.55,25.95-24.55,25.95l5,.28s16.68-15.84,19.69-14.56,3.25,12.22,3.25,12.22c0,0,6.97-.9,11.94-9.04,4.97-8.14,3.75-10.35,3.75-10.35h0Z" style="fill: rgb(34, 91, 115);"/><path class="cls-2_rocket-launch-59" d="M264.1,174.99s-8.99-8.92-19.07-4.5-24.55,25.95-24.55,25.95l5,.28s16.68-15.84,19.69-14.56,3.25,12.22,3.25,12.22c0,0,6.97-.9,11.94-9.04,4.97-8.14,3.75-10.35,3.75-10.35h0Z"/><path class="cls-8_rocket-launch-59" d="M318.2,437.58c-39.79-1.33-79.66-.84-119.4,1.49-9.42.54-18.84,1.19-28.25,1.95-18.75,1.49-37.75,3.41-56.3.64-1.47-.22-2.95-.46-4.43-.75-16.9-3.24-33.59-11.45-43.98-24.83,5.05-57.08,37.66-93.94,51.67-112.36,23.53-30.91,118.4-103.92,128.08-106.67h0c9.59-2.71,7.22,1.21,7.22,1.21l1.9,11.89h0c-1.89,1.3-150.9,104.23-81.51,168.5,36.5,33.81,93.74,50.63,144.99,58.93h.01Z"/><path class="cls-9_rocket-launch-59" d="M125.96,348.86c-18.35,45.08,18.95,71.51,72.84,90.22-9.42.54-18.84,1.19-28.25,1.95-18.75,1.49-37.75,3.41-56.3.64-10.19-22.79-14.56-43.67-13.96-58.44,3.07-81.36,143.14-184.57,145.31-186.17h0l9.12,13.06h0c-1.59.53-84.38,29.65-128.76,138.73h0Z"/><circle class="cls-7_rocket-launch-59" cx="316.65" cy="161.01" r="5.6"/></g><g id="clouds_rocket-launch-59"><path class="cls-5_rocket-launch-59" d="M366.77,253.56c-12.13-5.64-26.23-7.45-39.01-3.64-12.79,3.81-23.92,13.73-28,26.44-1.13,3.52-1.77,7.28-3.94,10.31-2.8,3.86-7.58,5.65-11.31,8.65-11.6,9.33-9.57,29.28,1.52,39.22,11.09,9.93,27.8,11.18,42.19,7.38,15.08,16.92,40.36,23.94,62.01,17.22,4.22,6.39,13.46,7.78,20.68,5.19,7.22-2.58,12.88-8.18,18.29-13.61l16.51-16.56c9.23-9.26,18.56-18.66,25.1-29.97,6.54-11.32,10.03-24.99,6.7-37.6-5.32-20.08-25.9-32.04-45.98-26.72-4.42,1.17-8.58,3.13-12.3,5.8-2.11-13.53-13.34-15.44-26.21-12.76-3.2.66-31.34,18.28-26.25,20.66h0Z"/><path class="cls-6_rocket-launch-59" d="M100.79,185.34c6.2-3.41,13.34-5.85,20.31-4.43s13.19,7.75,12.49,14.8c7.43-.78,14.08,4.61,14.86,12.04.55,5.28-2.03,10.4-6.62,13.08,7.4,5.54,7.11,17.72,1.02,24.67s-16.11,9.28-25.33,8.6-18.01-3.94-26.9-6.47c-2.38-.87-4.93-1.13-7.44-.76-2.72.63-4.85,2.62-7.08,4.33-10.15,7.79-23.19,10.79-35.72,8.21-4.01-.7-7.77-2.43-10.92-5.02-4.23-3.8-6.16-9.58-6.81-15.24-1.73-15.22,6.07-31.96,20.37-37.6,0,0,1.92-7.95,2.43-8.87,1.6-3.03,3.82-5.69,6.53-7.79,4.85-3.77,11.15-5.76,16.91-7.63,11.18-3.66,28.7-8.79,31.9,8.07h0Z"/></g></svg>