<svg width="500" height="500" viewBox="0 0 500 500" fill="none" xmlns="http://www.w3.org/2000/svg">
<path opacity="0.24" d="M436.72 433.28C429.28 454.59 377.1 440.81 361.67 439.77C347.19 438.79 332.7 438.06 318.2 437.59C278.41 436.26 238.54 436.75 198.8 439.08C189.38 439.62 179.96 440.27 170.55 441.03C151.8 442.52 132.8 444.44 114.25 441.67C112.78 441.45 111.3 441.21 109.82 440.92C92.92 437.68 76.23 429.47 65.84 416.09C63.94 413.65 62.26 411.04 60.83 408.29C50.93 389.18 54.27 366.13 49.62 345.13C45.47 326.38 35.06 309.66 28.67 291.54C4.75 223.83 40.25 149.55 107.96 125.63C110.24 124.82 112.54 124.08 114.86 123.41C146.69 114.11 181.2 117.19 212.87 107.42C246.3 97.09 274.14 73.2 307.28 61.93C336.5 52.11 368.21 52.58 397.13 63.25C430.84 75.8 461.34 110.75 450.56 145.08C446.1 159.27 435.12 171.37 433.66 186.18C430.83 215.07 464.18 235.53 468.72 264.2C473.84 296.58 442.22 321.09 422.47 347.26C417.02 354.45 412.23 362.52 410.8 371.42C407.03 394.99 442.28 417.39 436.72 433.28Z" fill="#41BBB1"/>
<path d="M257.07 204.24C257.07 204.24 269.33 207.42 267.99 210.83C266.64 214.24 261 217.72 253.17 221.75L253.45 225.64C253.45 225.64 274.16 219.37 276.61 210.91C278.03 205.9 277.03 200.52 273.92 196.35L257.08 204.23H257.07V204.24Z" fill="#41BBB1"/>
<path d="M253.87 191.21C253.87 191.21 245.5 196.16 244.17 197.28C242.84 198.4 242.86 202.04 246.03 205.87C250.8 211.62 254.74 210.15 254.74 210.15L262.81 201.78L253.88 191.21H253.87Z" fill="#41BBB1"/>
<path d="M253.87 191.21C253.87 191.21 245.5 196.16 244.17 197.28C242.84 198.4 242.86 202.04 246.03 205.87C250.8 211.62 254.74 210.15 254.74 210.15L262.81 201.78L253.88 191.21H253.87Z" fill="url(#paint0_linear_46_2)"/>
<path d="M247.24 196.48C254.85 183.71 264.97 172.61 277 163.87C297.28 148.96 327.24 137.91 337.24 141.07C347.24 144.23 334.56 167.94 292.96 190.67C292.07 191.14 286.11 194.43 285.18 194.83L256.25 206.96C256.25 206.96 250.82 206.69 247.24 196.48Z" fill="#41BBB1"/>
<path d="M247.24 196.48C254.85 183.71 264.97 172.61 277 163.87C297.28 148.96 327.24 137.91 337.24 141.07C347.24 144.23 334.56 167.94 292.96 190.67C292.07 191.14 286.11 194.43 285.18 194.83L256.25 206.96C256.25 206.96 250.82 206.69 247.24 196.48Z" fill="url(#paint1_linear_46_2)"/>
<path d="M264.1 174.99C264.1 174.99 255.11 166.07 245.03 170.49C234.95 174.91 220.48 196.44 220.48 196.44L225.48 196.72C225.48 196.72 242.16 180.88 245.17 182.16C248.18 183.44 248.42 194.38 248.42 194.38C248.42 194.38 255.39 193.48 260.36 185.34C265.33 177.2 264.11 174.99 264.11 174.99H264.1Z" fill="#41BBB1"/>
<path d="M264.1 174.99C264.1 174.99 255.11 166.07 245.03 170.49C234.95 174.91 220.48 196.44 220.48 196.44L225.48 196.72C225.48 196.72 242.16 180.88 245.17 182.16C248.18 183.44 248.42 194.38 248.42 194.38C248.42 194.38 255.39 193.48 260.36 185.34C265.33 177.2 264.11 174.99 264.11 174.99H264.1Z" fill="url(#paint2_linear_46_2)"/>
<path d="M318.2 437.58C278.41 436.25 238.54 436.74 198.8 439.07C189.38 439.61 179.96 440.26 170.55 441.02C151.8 442.51 132.8 444.43 114.25 441.66C112.78 441.44 111.3 441.2 109.82 440.91C92.92 437.67 76.23 429.46 65.84 416.08C70.89 359 103.5 322.14 117.51 303.72C141.04 272.81 235.91 199.8 245.59 197.05C255.18 194.34 252.81 198.26 252.81 198.26L254.71 210.15C252.82 211.45 103.81 314.38 173.2 378.65C209.7 412.46 266.94 429.28 318.19 437.58H318.2Z" fill="url(#paint3_linear_46_2)"/>
<path d="M125.96 348.86C107.61 393.94 144.91 420.37 198.8 439.08C189.38 439.62 179.96 440.27 170.55 441.03C151.8 442.52 132.8 444.44 114.25 441.67C104.06 418.88 99.69 398 100.29 383.23C103.36 301.87 243.43 198.66 245.6 197.06L254.72 210.12C253.13 210.65 170.34 239.77 125.96 348.85V348.86Z" fill="url(#paint4_linear_46_2)"/>
<path d="M316.65 166.61C319.743 166.61 322.25 164.103 322.25 161.01C322.25 157.917 319.743 155.41 316.65 155.41C313.557 155.41 311.05 157.917 311.05 161.01C311.05 164.103 313.557 166.61 316.65 166.61Z" fill="url(#paint5_linear_46_2)"/>
<path d="M366.77 253.56C354.64 247.92 340.54 246.11 327.76 249.92C314.97 253.73 303.84 263.65 299.76 276.36C298.63 279.88 297.99 283.64 295.82 286.67C293.02 290.53 288.24 292.32 284.51 295.32C272.91 304.65 274.94 324.6 286.03 334.54C297.12 344.47 313.83 345.72 328.22 341.92C343.3 358.84 368.58 365.86 390.23 359.14C394.45 365.53 403.69 366.92 410.91 364.33C418.13 361.75 423.79 356.15 429.2 350.72L445.71 334.16C454.94 324.9 464.27 315.5 470.81 304.19C477.35 292.87 480.84 279.2 477.51 266.59C472.19 246.51 451.61 234.55 431.53 239.87C427.11 241.04 422.95 243 419.23 245.67C417.12 232.14 405.89 230.23 393.02 232.91C389.82 233.57 361.68 251.19 366.77 253.57V253.56Z" fill="url(#paint6_linear_46_2)"/>
<path d="M100.79 185.34C106.99 181.93 114.13 179.49 121.1 180.91C128.07 182.33 134.29 188.66 133.59 195.71C141.02 194.93 147.67 200.32 148.45 207.75C149 213.03 146.42 218.15 141.83 220.83C149.23 226.37 148.94 238.55 142.85 245.5C136.76 252.45 126.74 254.78 117.52 254.1C108.3 253.42 99.51 250.16 90.62 247.63C88.24 246.76 85.69 246.5 83.18 246.87C80.46 247.5 78.33 249.49 76.1 251.2C65.95 258.99 52.91 261.99 40.38 259.41C36.37 258.71 32.61 256.98 29.46 254.39C25.23 250.59 23.3 244.81 22.65 239.15C20.92 223.93 28.72 207.19 43.02 201.55C43.02 201.55 44.94 193.6 45.45 192.68C47.05 189.65 49.27 186.99 51.98 184.89C56.83 181.12 63.13 179.13 68.89 177.26C80.07 173.6 97.59 168.47 100.79 185.33V185.34Z" fill="url(#paint7_linear_46_2)"/>
<defs>
<linearGradient id="paint0_linear_46_2" x1="243.374" y1="202.458" x2="262.092" y2="199.434" gradientUnits="userSpaceOnUse">
<stop stop-color="#231F20" stop-opacity="0"/>
<stop offset="0.95" stop-color="#231F20"/>
</linearGradient>
<linearGradient id="paint1_linear_46_2" x1="289.89" y1="164.62" x2="311.18" y2="198.5" gradientUnits="userSpaceOnUse">
<stop offset="0.02" stop-color="white" stop-opacity="0"/>
<stop offset="0.32" stop-color="white" stop-opacity="0.39"/>
<stop offset="0.68" stop-color="white" stop-opacity="0.68"/>
<stop offset="1" stop-color="white"/>
</linearGradient>
<linearGradient id="paint2_linear_46_2" x1="236.78" y1="171.64" x2="259.15" y2="228.76" gradientUnits="userSpaceOnUse">
<stop stop-color="#231F20" stop-opacity="0"/>
<stop offset="0.95" stop-color="#231F20"/>
</linearGradient>
<linearGradient id="paint3_linear_46_2" x1="65.84" y1="319.58" x2="318.2" y2="319.58" gradientUnits="userSpaceOnUse">
<stop offset="0.02" stop-color="white" stop-opacity="0"/>
<stop offset="0.32" stop-color="white" stop-opacity="0.39"/>
<stop offset="0.68" stop-color="white" stop-opacity="0.68"/>
<stop offset="1" stop-color="white"/>
</linearGradient>
<linearGradient id="paint4_linear_46_2" x1="215.27" y1="378.45" x2="112.26" y2="202.61" gradientUnits="userSpaceOnUse">
<stop offset="0.02" stop-color="white" stop-opacity="0"/>
<stop offset="0.32" stop-color="white" stop-opacity="0.39"/>
<stop offset="0.68" stop-color="white" stop-opacity="0.68"/>
<stop offset="1" stop-color="white"/>
</linearGradient>
<linearGradient id="paint5_linear_46_2" x1="321.821" y1="180.593" x2="314.61" y2="153.274" gradientUnits="userSpaceOnUse">
<stop offset="0.02" stop-color="white" stop-opacity="0"/>
<stop offset="0.32" stop-color="white" stop-opacity="0.39"/>
<stop offset="0.68" stop-color="white" stop-opacity="0.68"/>
<stop offset="1" stop-color="white"/>
</linearGradient>
<linearGradient id="paint6_linear_46_2" x1="395.75" y1="325.47" x2="338.94" y2="224.87" gradientUnits="userSpaceOnUse">
<stop offset="0.02" stop-color="white" stop-opacity="0"/>
<stop offset="0.32" stop-color="white" stop-opacity="0.39"/>
<stop offset="0.68" stop-color="white" stop-opacity="0.68"/>
<stop offset="1" stop-color="white"/>
</linearGradient>
<linearGradient id="paint7_linear_46_2" x1="73.81" y1="239.6" x2="135.41" y2="175.45" gradientUnits="userSpaceOnUse">
<stop offset="0.02" stop-color="white" stop-opacity="0"/>
<stop offset="0.32" stop-color="white" stop-opacity="0.39"/>
<stop offset="0.66" stop-color="white" stop-opacity="0.68"/>
<stop offset="1" stop-color="white"/>
</linearGradient>
</defs>
</svg>
